<svg xmlns="http://www.w3.org/2000/svg" width="53.008" height="58.116"><defs><style>.cls-1{fill:#ffb53b}.cls-2{fill:#448ef5}.cls-3{fill:#3bffd3}.cls-4{fill:#ffdda4}.cls-7{fill:#0f0720}.cls-8{fill:#fff}</style></defs><g id="speaker" transform="translate(-10.974 -42.802)"><path id="Path_8883" d="M405.454 329.637H405v-.459a.706.706 0 10-1.413 0v.459h-.459a.706.706 0 100 1.413h.459v.459a.706.706 0 001.413 0v-.459h.459a.706.706 0 000-1.413z" class="cls-1" data-name="Path 8883" transform="translate(-344.45 -245.483)"/><path id="Path_8884" d="M291.7 43.967h-.459v-.459a.706.706 0 10-1.413 0v.459h-.459a.706.706 0 000 1.413h.459v.459a.706.706 0 101.413 0v-.459h.459a.706.706 0 000-1.413z" class="cls-2" data-name="Path 8884" transform="translate(-246.505)"/><path id="Path_8885" d="M104.287 150.372h-.459v-.459a.706.706 0 10-1.413 0v.459h-.459a.706.706 0 000 1.413h.459v.459a.706.706 0 001.413 0v-.459h.459a.706.706 0 100-1.413z" class="cls-3" data-name="Path 8885" transform="translate(-85.094 -91.436)"/><path id="Path_8886" d="M325.687 399.9a2.062 2.062 0 111.459-.6 2.056 2.056 0 01-1.459.6zm.959-1.1zm-.959-1.609a.65.65 0 10.46.19.649.649 0 00-.46-.192z" class="cls-3" data-name="Path 8886" transform="translate(-276.6 -303.347)"/><path id="Path_8887" d="M97.761 380.988a2.069 2.069 0 11.429-.045 2.084 2.084 0 01-.429.045zm.005-2.714a.65.65 0 10.544 1.005.65.65 0 00-.544-1.005z" class="cls-2" data-name="Path 8887" transform="translate(-80.331 -287.105)"/><circle id="Ellipse_230" cx="6.603" cy="6.603" r="6.603" class="cls-3" data-name="Ellipse 230" transform="translate(11.679 72.466)"/><path id="Path_8888" d="M236.46 315.157l-5.528 2.289-3.263-7.879-1.749-4.221 7.09-2.936 2.12 5.12 2.243 5.418a1.691 1.691 0 01-.913 2.209z" class="cls-4" data-name="Path 8888" transform="translate(-192.557 -223.17)"/><path id="Path_8890" d="M194.42 336.27l-2.6 1.076a3.365 3.365 0 01-4.395-1.821l-4.083-9.856-1.013-2.447 10.265-4.252.819 3.95 2.274 10.953a2.129 2.129 0 01-1.267 2.397z" class="cls-3" data-name="Path 8890" transform="translate(-155.033 -237.391)"/><path id="Path_8892" fill="#4c97ff" d="M135.669 142.771l-29.1 7.942a4.041 4.041 0 01-4.8-2.354l-4.985-12.035a4.043 4.043 0 011.731-5.057l26.195-14.957z" data-name="Path 8892" transform="translate(-80.998 -63.219)"/><path id="Path_8896" fill="#d2e0f2" d="M105.066 195.7l8.782 21.2-7.279 1.987a4.043 4.043 0 01-4.8-2.353l-4.985-12.036a4.043 4.043 0 011.73-5.057z" data-name="Path 8896" transform="translate(-80.995 -131.433)"/><path id="Path_8897" d="M312.38 142.265a9.488 9.488 0 117.262 17.532z" class="cls-4" data-name="Path 8897" transform="translate(-267.132 -84.868)"/><path id="Path_8898" d="M288.563 126.324a3.773 3.773 0 01-4.93-2.042l-10.38-25.059a3.773 3.773 0 116.972-2.888l10.379 25.058a3.774 3.774 0 01-2.042 4.93z" class="cls-1" data-name="Path 8898" transform="translate(-233.286 -43.969)"/><path id="Path_8900" d="M101.935 282.335l-4.881 2.022a1.733 1.733 0 11-1.326-3.2l4.881-2.022z" class="cls-1" data-name="Path 8900" transform="translate(-79.432 -203.089)"/><path id="Path_8901" d="M165.5 110.725a6.3 6.3 0 1111.545 3.061l.885 2.01a.5.5 0 01-.655.655l-2.01-.885a6.3 6.3 0 01-9.765-4.841z" class="cls-3" data-name="Path 8901" transform="translate(-140.525 -52.559)"/><g id="Group_3980" data-name="Group 3980" transform="translate(10.974 49.328)"><path id="Path_8902" d="M420.231 164.187l1.337-.554a.706.706 0 00-.541-1.305l-1.337.554a.706.706 0 10.54 1.305z" class="cls-7" data-name="Path 8902" transform="translate(-369.882 -151.971)"/><path id="Path_8903" d="M407.249 136.658a.706.706 0 00-.972.231l-.937 1.521a.706.706 0 101.2.741l.937-1.521a.706.706 0 00-.228-.972z" class="cls-7" data-name="Path 8903" transform="translate(-357.843 -129.834)"/><path id="Path_8904" d="M425.295 189.886l-1.738-.413a.706.706 0 10-.327 1.374l1.738.413a.706.706 0 00.327-1.374z" class="cls-7" data-name="Path 8904" transform="translate(-372.83 -175.329)"/><path id="Path_8905" d="M111.9 101.948a10.029 10.029 0 00-8.93-6.259l-1.614-3.938a4.407 4.407 0 00-2.388-2.413 4.341 4.341 0 00-3.377 0 4.407 4.407 0 00-2.388 2.413 4.471 4.471 0 00-.264 2.509l-1.577.91a6.954 6.954 0 00-6.094-4.752 6.88 6.88 0 00-5.334 2.029 7.01 7.01 0 00-.321 9.505l-8.946 5.163a4.758 4.758 0 00-2.233 5.186 7.321 7.321 0 00-3.323 9.234 7.208 7.208 0 006.655 4.494 7.09 7.09 0 002.157-.338 4.685 4.685 0 003.979 2.236 4.606 4.606 0 001.227-.167L91 124.487l2.429 11.826a1.419 1.419 0 01-.834 1.593l-2.56 1.072a2.61 2.61 0 01-3.419-1.431l-3.25-7.929a.693.693 0 00-.909-.381.706.706 0 00-.377.919l3.25 7.929a4.014 4.014 0 003.708 2.5 3.95 3.95 0 001.529-.308l2.56-1.072a2.829 2.829 0 001.664-3.178l-.469-2.283 3.343-1.4a2.4 2.4 0 001.278-3.118L96.391 123l4.04-1.115a.7.7 0 00.488-.864.7.7 0 00-.854-.493l-13.539 3.735-8.18-19.963 2.336-1.348a6.786 6.786 0 003.535 1.375q.3.026.607.026a6.77 6.77 0 003.476-.953l1.643.731a1.169 1.169 0 001.316-.249 1.2 1.2 0 00.247-1.33l-.724-1.661a6.984 6.984 0 00.916-4.123c0-.055-.012-.109-.018-.164l1.715-.99 10.037 24.488a4.419 4.419 0 004.082 2.753 4.349 4.349 0 001.683-.339 4.407 4.407 0 002.388-2.413 4.474 4.474 0 000-3.413l-1.614-3.938a10.213 10.213 0 001.935-10.807zM66.4 121a5.91 5.91 0 012.517-7.361l1.3 3.177-.677.283a2.4 2.4 0 00-1.3 1.314 2.435 2.435 0 000 1.858 2.406 2.406 0 002.223 1.5 2.368 2.368 0 00.916-.185l.677-.283 1.272 3.1A5.793 5.793 0 0166.4 121zm8.614-2.457l-4.165 1.744a1.008 1.008 0 01-1.321-.553 1.026 1.026 0 010-.782 1.011 1.011 0 01.547-.553l4.165-1.744zm22.645 11.224a.985.985 0 01-.525 1.28l-3.1 1.3-1.689-8.227 2.693-.743zm-12.485-5.128l-6.409 1.761a3.283 3.283 0 01-3.9-1.933l-1.52-3.71 2.2-.922.371.905a.7.7 0 00.643.434.687.687 0 00.266-.054.706.706 0 00.377-.919l-2.611-6.37a.693.693 0 00-.909-.381.706.706 0 00-.377.919l.4.978-2.2.922-1.551-3.784a3.345 3.345 0 011.406-4.155l5.768-3.329zm4.185-23.513l.658 1.51-1.494-.665a.689.689 0 00-.665.057 5.435 5.435 0 01-3.522.9 5.561 5.561 0 01-5.017-5.181 5.618 5.618 0 011.6-4.307 5.494 5.494 0 013.906-1.631q.177 0 .356.012a5.583 5.583 0 014.233 8.63.708.708 0 00-.057.672zm20.941 18.443a3.017 3.017 0 01-1.635 1.652 2.973 2.973 0 01-2.312 0 3.018 3.018 0 01-1.635-1.652L94.491 94.625a3.063 3.063 0 010-2.337 3.018 3.018 0 011.635-1.652 2.977 2.977 0 011.152-.232 3.026 3.026 0 012.8 1.885l10.222 24.943a3.064 3.064 0 010 2.337zm-.924-8.265l-5.808-14.164a8.647 8.647 0 017.049 5.346 8.8 8.8 0 01-1.244 8.814z" class="cls-7" data-name="Path 8905" transform="translate(-64.567 -88.995)"/><path id="Path_8906" d="M149.6 261.689a.706.706 0 101.305-.541l-2.651-6.4a.706.706 0 10-1.305.541z" class="cls-7" data-name="Path 8906" transform="translate(-135.436 -231.084)"/></g><circle id="Ellipse_231" cx=".79" cy=".79" r=".79" class="cls-8" data-name="Ellipse 231" transform="translate(27.683 56.904)"/><circle id="Ellipse_232" cx=".79" cy=".79" r=".79" class="cls-8" data-name="Ellipse 232" transform="translate(30.456 56.904)"/><circle id="Ellipse_233" cx=".79" cy=".79" r=".79" class="cls-8" data-name="Ellipse 233" transform="translate(33.23 56.904)"/></g></svg>