<svg xmlns="http://www.w3.org/2000/svg" width="794" height="582"><defs><radialGradient id="a" cx=".5" cy=".5" r=".5" gradientUnits="objectBoundingBox"><stop offset="0" stop-color="#4c97ff" stop-opacity=".302"/><stop offset="1" stop-color="#4c97ff" stop-opacity="0"/></radialGradient></defs><path data-name="Path 183" d="M266.449 225.148c-14 1.678-27.554 3.794-40.369 6.383-85.514 17.245-85.543 44.866-85.595 46.288a258511.01 258511.01 0 00-.191 98.003c.06-26.52 55.358-44.94 126.155-53.058z" fill="#4c97ff" opacity=".5"/><path data-name="Path 184" d="M539.247 253.379c-17.6-10.006-41.893-16.732-61.587-20.9-51.5-10.919-117.424-14.562-178.593-10.35v97.717c88.63-5.974 190.9 3.095 240 30.978 14.595 8.291 21.5 17.064 21.483 25.689v-1.27c.017-9.679.172-92.35.177-94.623.015-12.815-10.331-20.906-21.48-27.241z" fill="#4c97ff" opacity=".5"/><path data-name="Path 185" d="M396.79 230.703a732.177 732.177 0 00-47.5-1.549c-13.987 0-27.944.392-41.6 1.172v80.206c14.456-.8 29.167-1.2 43.853-1.2 15.607 0 30.728.428 45.25 1.262z" fill="#fff" opacity=".69"/><path data-name="Path 186" d="M472.348 240.313c-15.455-3.133-32.418-5.654-50.291-7.5v79.7c18 1.711 34.831 4.11 50.291 7.123z" fill="#fff" opacity=".69"/><path data-name="Path 187" d="M535.023 260.98a140.17 140.17 0 00-22.12-9.8v78.843a173.642 173.642 0 0130.583 13.2 89.82 89.82 0 018.47 5.419l.126-68.029c.008-6.961-5.094-12.833-17.059-19.633z" fill="#fff" opacity=".69"/><g data-name="Group 37"><path data-name="Rectangle 2" d="M654.637 87.369H777.5a16 16 0 0116 16v73.707a16 16 0 01-16 16H639.637a1 1 0 01-1-1v-88.707a16 16 0 0116-16z" fill="#fff" stroke="#4c97ff"/><g data-name="Group 36" transform="translate(683.737 119.443)"><rect data-name="Rectangle 3" width="63.951" height="41.889" rx="4.014" fill="#ffb53b"/><g data-name="Group 35" fill="#fff"><path data-name="Path 188" d="M57.65 2.443c-1.227-.028-50.094 0-50.094 0-1.161.054-1.694.436-.7 1.494S30.09 25.361 30.09 25.361a2.7 2.7 0 003.945.12c1.1-.939 23.26-20.8 24.478-21.818s.363-1.192-.863-1.22z"/><path data-name="Path 189" d="M29.417 27.868C27.87 26.556 3.461 3.345 3.461 3.345c-1.135-1.164-1.308.506-1.308.506l-.037 33.4a2.99 2.99 0 002.131 2.294c.96.152 54.7.309 54.7.309a2.65 2.65 0 002.59-2.315c.185-1.357.237-23.98.251-32.262 0-1.266-.64-1.684-2.026-.414-5.506 5.045-23.974 21.962-25.286 23.09a3.715 3.715 0 01-5.059-.085z"/></g></g></g><path data-name="Path 190" d="M1163.074 1238.887c0 5.869-56.291 10.627-125.728 10.627s-125.727-4.758-125.727-10.627 56.29-10.625 125.727-10.625 125.728 4.756 125.728 10.625z" transform="translate(-649.653 -667.514)" fill="url(#a)"/><g data-name="Group 46"><path data-name="Path 210" d="M372.692 215.531c-7.617-9.99-25.237-36.248-26.794-67.116-2.268-44.98 4.573-59.253 4.573-59.253s5.078-3.979 6.919-6.9 5.668-5.783 3.859-6.922-4.351 2.381-5.141 3.634a.954.954 0 01-1.113.411 1.985 1.985 0 01-1.395-2.527 25.011 25.011 0 012.862-5.654c3.681-5.848 6.516-11.366 4.7-10.952s-7.759 10.947-9.074 13.035 3.406-9.594 5.148-14.523-1.287-3.63-2.082-.824-5.467 14.439-6.233 13.956 4.07-13.958 2.192-15.141-1.425 1.89-2.13 4.038-1.224 9.728-3.192 10.175c0 0-.732-10.33-1.6-9.339-.432.495-1.7 11.5-1.779 16.153-.18 10.955-15.172 69.4-11.638 84.768 3.444 14.987 7.971 58.025 20 66.679 14.149.512 15.356-3.279 21.918-13.698z" fill="#ffbe9d"/><path data-name="Path 211" d="M346.072 151.103a35.215 35.215 0 00-15.833 5.292 28.773 28.773 0 00.538 6.209c.937 4.077 1.954 10.232 3.181 17.205l16.053-8.072a100.616 100.616 0 01-3.939-20.634z" fill="#f0a178"/><path data-name="Path 212" d="M429.459 239.557c10.294 7.2 37.258 23.719 68.163 24 45.036.407 59.015-7.017 59.015-7.017s3.765-5.239 6.611-7.2 5.542-5.9 6.757-4.142-2.2 4.445-3.419 5.285a.956.956 0 00-.366 1.13 1.985 1.985 0 002.582 1.288 24.967 24.967 0 005.53-3.093c5.692-3.92 11.088-6.98 10.75-5.15s-10.617 8.2-12.648 9.6 9.442-3.8 14.3-5.745 3.678 1.136.908 2.046-14.2 6.06-13.688 6.806 13.78-4.646 15.039-2.817-1.829 1.5-3.947 2.3-9.668 1.626-10.035 3.609c0 0 10.353.3 9.4 1.215-.479.453-11.419 2.177-16.066 2.446-10.939.631-68.71 18.026-84.216 15.132-15.116-2.823-58.3-5.567-67.448-17.232-1.1-14.112 2.638-15.475 12.778-22.461z" fill="#ffbe9d"/><path data-name="Path 213" d="M477.857 261.27a123.354 123.354 0 01-21.773-7c-1.412 3.984-.73 13.2 1.286 21.189 6.256.937 12.312 1.7 17.439 2.386a52.064 52.064 0 003.048-16.575z" fill="#f0a178"/><g data-name="Group 400"><path data-name="Path 2422" d="M420.68 148.635s27.066 4.257 20.496 17.609-13.77 13.847-4.853 17.952 15.08 7.466 8.225 13.64-22.007 2.674-14.105 11.448-2.472 20.42-17.52 19.63-36.402 2.245-50.626-13.551-21.175 5.86-9.7 10.915c0 0-17.673-2.018-18.952-13.824s-.352-16.096 16.137-19.582 6.52-4.508 3.707-20.06 13.416-17.471 23.988-20.015 21.925-19.636 43.203-4.162z" fill="#0f0720"/><g data-name="Group 399"><path data-name="Path 147" d="M412.3 196.31s-4.8 6.301-4.641 13.812c.087 4.064.587 9.192 1.647 12.219 1.108 3.172.092 5.737-3.055 6.825a8.67 8.67 0 01-6.514-.16c-3.705-1.648-9.297-4.639-10.82-8.949-1.02-2.882 11.217-34.248 11.217-34.248z" fill="#ffbe9d"/><path data-name="Path 149" d="M412.299 196.31l-12.17-10.502s-1.437 3.688-3.286 8.65c2.743 4.661 6.464 9.218 11.283 11.167a26.427 26.427 0 014.173-9.314z" fill="#f0a178"/><path data-name="Path 150" d="M423.475 153.868a14.6 14.6 0 014.939 8.553c.982 5.559-2.583 11.907-2.49 16.606s-8.114 27.309-18.982 22.283-12.537-22.559-12.613-26.38 7.11-16.699 13.454-19.941 15.692-1.12 15.692-1.12z" fill="#ffbe9d"/><g data-name="Group 24"><path data-name="Path 151" d="M417.935 180.9a50.488 50.488 0 00.377 6.187 3.609 3.609 0 01-2.18.248 3.391 3.391 0 002.521-.04 52.516 52.516 0 00-.718-6.395z" fill="#0f0720"/><path data-name="Path 152" d="M413.277 171.89a10.9 10.9 0 00-4.636-2.246c-2.548-.432-6.245 2.364-6.245 2.364s4-2.036 5.696-1.678a9.769 9.769 0 013.299 1.583z" fill="#0f0720"/><path data-name="Path 153" d="M419.845 173.88a7.776 7.776 0 013.291-2.035c1.665-.337 3.48 2.533 3.48 2.533s-2.137-2.136-3.256-1.843a6.9 6.9 0 00-2.34 1.434z" fill="#0f0720"/><path data-name="Path 154" d="M424.425 179.015a1.572 1.572 0 01-1.88 1.178 1.577 1.577 0 01-.91-2.028 1.573 1.573 0 011.88-1.176 1.576 1.576 0 01.91 2.026z" fill="#0f0720"/><path data-name="Path 155" d="M411.748 176.686a1.575 1.575 0 01-1.88 1.176 1.58 1.58 0 01-.912-2.025 1.57 1.57 0 011.879-1.177 1.582 1.582 0 01.913 2.026z" fill="#0f0720"/><path data-name="Path 156" d="M405.3 174.086c7.739-2.251 7.122 2.896 8.444 4.2-1.264-.75-1.722-3.228-3.297-3.748a21.257 21.257 0 00-5.147-.452z" fill="#0f0720"/><path data-name="Path 157" d="M419.23 179.168c4.285-5.323 6.27-1.18 7.791-.822-1.224.028-2.7-1.611-4.032-1.26a16.7 16.7 0 00-3.758 2.082z" fill="#0f0720"/><path data-name="Path 158" d="M410.44 184.538c-.616 1.078-2.576 1.117-4.38.083s-2.764-2.744-2.15-3.824 2.576-1.116 4.378-.083 2.768 2.744 2.152 3.824z" fill="#f0a178"/></g><path data-name="Path 159" d="M375.525 190.03c8.301-2.825-6.928-4.602-6.396-14.755.147-2.817 1.13-4.13 2.561-4.607 6.504-2.168 10.282-7.278 12.427-14.117 1.387-4.422 6.966-10.181 14.061-11.385 4.833-.819 9.648-.048 14.463.405 9.46.886 11.766 8.102 11.568 8.833-.165.008-.615-.196-1.37-.382-6.575-1.29-15.37 3.082-17.26 9.743-.493 2.735-2.818 9.236-5.858 8.992-1.252-.102-1-3.826-1.519-4.241-6.328 5.707-2.844 14.614-.96 19.863a14.422 14.422 0 001.527 3.255c5.43 7.995-1.463 24.103-6.046 26.362-4.777 2.358-16.59-2.172-10.942-7.257s-19.018-4.259-21.698-12.225 7.146-5.655 15.442-8.484z" fill="#12062d"/><path data-name="Path 160" d="M399.827 171.457s-.272-4.747-4.097-3.625-2.855 12.681.518 11.73 3.579-8.105 3.579-8.105z" fill="#ffbe9d"/><path data-name="Path 161" d="M398.876 173.697s-.192-5.147-2.132-3.888-2.396 6.27-.458 6.685 2.59-2.797 2.59-2.797z" fill="#f0a178"/><g data-name="Group 25"><path data-name="Path 162" d="M414.59 193.715a2.023 2.023 0 00.2.002.324.324 0 00.313-.339.317.317 0 00-.337-.31c-.01-.007-2.467.058-6.798-2.84a.329.329 0 00-.453.09.329.329 0 00.09.451c3.855 2.584 6.288 2.91 6.985 2.946z" fill="#0f0720"/></g><g data-name="Group 26"><path data-name="Path 163" d="M411.488 195.053a1.054 1.054 0 00.434-.047.328.328 0 00-.232-.613c-.038.011-.768.16-2.418-1.164a.321.321 0 00-.457.05.327.327 0 00.05.457 4.927 4.927 0 002.623 1.317z" fill="#0f0720"/></g></g></g><g data-name="Group 1753"><g data-name="Group 1757"><g data-name="Group 254"><g data-name="Group 253"><g data-name="Group 252"><g data-name="Group 251"><g data-name="Group 250"><g data-name="Group 249"><g data-name="Group 248"><g data-name="Group 247"><path data-name="Path 38" d="M347.945 554.152l-10.91-1.54-.295-13.095-.163-7.166 14.33-2.053-1.552 10.999z" fill="#ffbe9d"/></g></g></g></g></g></g></g><path data-name="Path 3806" d="M336.647 535.543l13.307.525-.326 3.091-12.89-.866z" fill="#f0a178"/></g><g data-name="Group 260"><g data-name="Group 258"><g data-name="Group 257"><g data-name="Group 256"><g data-name="Group 255"><path data-name="Path 39" d="M347.912 554.323l-11.117-1.827-.053-9.75-.018-3.342 12.579 1.994-.431 3.396z" fill="#6c54ff"/></g></g></g></g><g data-name="Group 259"><path data-name="Path 40" d="M348.872 544.794l-12.13-2.047-.018-3.343 12.579 1.994z" fill="#5941e9"/></g></g><g data-name="Group 343"><g data-name="Group 266"><g data-name="Group 265"><g data-name="Group 264"><g data-name="Group 263"><g data-name="Group 262"><g data-name="Group 261"><path data-name="Path 41" d="M374.815 571.829l-41.624-1.459a5.82 5.82 0 01-.465-2.33c-.138-3.531 1.18-9.106 1.856-12.632.081-.412.152-.795.208-1.143a12.346 12.346 0 00.176-1.444 2.124 2.124 0 012.643-2.306c4.067 4.279 9.056-1.748 11.766.38 0 0 .11.088.358.296.228.192.573.49 1.052.922a117.69 117.69 0 012.96 2.774c3.2 3.089 8.75 5.248 13.466 7.414.601.276 1.159.552 1.671.823q.59.31 1.11.617c3.838 2.249 5.011 4.31 5.243 5.785a3.25 3.25 0 01-.42 2.303z" fill="#c9e0ff"/></g></g></g></g></g></g><g data-name="Group 1763"><g data-name="Group 272"><g data-name="Group 271"><g data-name="Group 270"><g data-name="Group 269"><g data-name="Group 268"><g data-name="Group 267"><path data-name="Path 42" d="M369.995 563.742c-1.103.816-3.546 2.44-5.46 2.372a2.098 2.098 0 01-.25-.018c-1.347-.16-6.221-2.772-10.18-5.131-2.268-1.353-4.336-2.677-5.82-3.734-2.434-1.729-2.844-2.371-2.926-2.81-.307-1.655 2.45-2.705 4.374-3.23.228.191.573.49 1.052.921-2.388.562-4.367 1.505-4.296 2.083.215.495 2.614 2.46 8.39 5.89 4.409 2.617 8.6 4.755 9.542 4.867 1.278.145 3.203-.951 4.465-1.827q.588.309 1.109.617z" fill="#4c97ff"/></g></g></g></g></g></g><g data-name="Group 281"><g data-name="Group 280"><g data-name="Group 279"><g data-name="Group 278"><g data-name="Group 277"><g data-name="Group 276"><g data-name="Group 275"><g data-name="Group 274"><g data-name="Group 273"><path data-name="Path 43" d="M374.814 571.829l-41.622-1.459a5.808 5.808 0 01-.466-2.33l42.51 1.489a3.249 3.249 0 01-.422 2.3z" fill="#4c97ff"/></g></g></g></g></g></g></g></g></g><g data-name="Group 291"><g data-name="Group 290"><g data-name="Group 289"><g data-name="Group 288"><g data-name="Group 287"><g data-name="Group 286"><g data-name="Group 285"><g data-name="Group 284"><g data-name="Group 283"><g data-name="Group 282"><path data-name="Path 44" d="M337.438 570.52l-1.236-.044a9.143 9.143 0 002.47-6.587 11.746 11.746 0 00-4.09-8.482c.081-.412.152-.796.208-1.144a12.757 12.757 0 014.874 9.612 10.105 10.105 0 01-2.226 6.644z" fill="#4c97ff"/></g></g></g></g></g></g></g></g></g></g><g data-name="Group 300"><g data-name="Group 299"><g data-name="Group 298"><g data-name="Group 297"><g data-name="Group 296"><g data-name="Group 295"><g data-name="Group 294"><g data-name="Group 293"><g data-name="Group 292"><path data-name="Path 45" d="M352.953 557.316a.686.686 0 01-.117-1.357l2.62-.554a.686.686 0 11.284 1.342l-2.62.555a.693.693 0 01-.167.014z" fill="#4c97ff"/></g></g></g></g></g></g></g></g></g><g data-name="Group 309"><g data-name="Group 308"><g data-name="Group 307"><g data-name="Group 306"><g data-name="Group 305"><g data-name="Group 304"><g data-name="Group 303"><g data-name="Group 302"><g data-name="Group 301"><path data-name="Path 46" d="M350.446 555.06a.687.687 0 01-.118-1.357l2.62-.555a.687.687 0 01.283 1.344l-2.619.554a.68.68 0 01-.166.014z" fill="#4c97ff"/></g></g></g></g></g></g></g></g></g><g data-name="Group 318"><g data-name="Group 317"><g data-name="Group 316"><g data-name="Group 315"><g data-name="Group 314"><g data-name="Group 313"><g data-name="Group 312"><g data-name="Group 311"><g data-name="Group 310"><path data-name="Path 47" d="M355.5 558.917a.686.686 0 01-.117-1.356l2.62-.555a.686.686 0 11.283 1.343l-2.619.555a.679.679 0 01-.166.013z" fill="#4c97ff"/></g></g></g></g></g></g></g></g></g><g data-name="Group 324"><g data-name="Group 323"><g data-name="Group 322"><g data-name="Group 321"><g data-name="Group 320"><g data-name="Group 319"><path data-name="Path 48" d="M358.05 560.462a.687.687 0 01-.118-1.358l2.62-.554a.687.687 0 01.283 1.343l-2.62.555a.685.685 0 01-.166.014z" fill="#4c97ff"/></g></g></g></g></g></g><g data-name="Group 333"><g data-name="Group 332"><g data-name="Group 331"><g data-name="Group 330"><g data-name="Group 329"><g data-name="Group 328"><g data-name="Group 327"><g data-name="Group 326"><g data-name="Group 325"><path data-name="Path 49" d="M360.837 561.905a.687.687 0 01-.117-1.358l2.62-.553a.686.686 0 11.284 1.342l-2.62.556a.678.678 0 01-.167.013z" fill="#4c97ff"/></g></g></g></g></g></g></g></g></g><g data-name="Group 342"><g data-name="Group 341"><g data-name="Group 340"><g data-name="Group 339"><g data-name="Group 338"><g data-name="Group 337"><g data-name="Group 336"><g data-name="Group 335"><g data-name="Group 334"><path data-name="Path 50" d="M363.871 563.158a.687.687 0 01-.118-1.357l2.62-.554a.687.687 0 01.284 1.343l-2.62.554a.685.685 0 01-.166.014z" fill="#4c97ff"/></g></g></g></g></g></g></g></g></g></g></g></g><g data-name="Group 1758"><g data-name="Group 254"><g data-name="Group 253"><g data-name="Group 252"><g data-name="Group 251"><g data-name="Group 250"><g data-name="Group 249"><g data-name="Group 248"><g data-name="Group 247"><path data-name="Path 38" d="M406.318 551.546h-11.017l-2.121-12.924-1.162-7.072 13.9-4.034v11.106z" fill="#ffbe9d"/></g></g></g></g></g></g></g><path data-name="Path 3805" d="M392.052 532.186l13.967-1.141-.069 3.964-13.309.291z" opacity=".1"/></g><g data-name="Group 260"><g data-name="Group 258"><g data-name="Group 257"><g data-name="Group 256"><g data-name="Group 255"><path data-name="Path 39" d="M406.317 551.546h-11.015l-1.581-9.624-.541-3.3h12.741l.106 3.423z" fill="#6c54ff"/></g></g></g></g><g data-name="Group 259"><path data-name="Path 40" d="M406.027 542.045l-12.306-.123-.541-3.3h12.741z" fill="#5941e9"/></g></g><g data-name="Group 343"><g data-name="Group 266"><g data-name="Group 265"><g data-name="Group 264"><g data-name="Group 263"><g data-name="Group 262"><g data-name="Group 261"><path data-name="Path 41" d="M433.501 568.942h-41.665a5.822 5.822 0 01-.547-2.314c-.262-3.525.861-9.145 1.413-12.694.067-.414.124-.8.168-1.15a12.351 12.351 0 00.125-1.45 2.125 2.125 0 012.562-2.398c4.216 4.136 8.993-2.064 11.777-.031 0 0 .113.083.368.283.235.184.59.47 1.084.885.71.594 1.707 1.456 3.057 2.669 3.307 2.976 8.931 4.941 13.722 6.941.611.255 1.178.511 1.7.764q.6.289 1.132.578c3.915 2.114 5.16 4.134 5.443 5.6a3.251 3.251 0 01-.339 2.317z" fill="#c9e0ff"/></g></g></g></g></g></g><g data-name="Group 272"><g data-name="Group 271"><g data-name="Group 270"><g data-name="Group 269"><g data-name="Group 268"><g data-name="Group 267"><path data-name="Path 42" d="M428.399 561.026c-1.074.854-3.46 2.563-5.375 2.563-.084 0-.168 0-.251-.01-1.352-.113-6.317-2.553-10.357-4.773-2.315-1.273-4.429-2.524-5.95-3.529-2.494-1.643-2.926-2.271-3.024-2.707-.365-1.644 2.354-2.79 4.26-3.383.235.184.59.47 1.084.885-2.368.645-4.313 1.657-4.222 2.233.232.487 2.7 2.367 8.594 5.595 4.5 2.461 8.765 4.452 9.711 4.531 1.283.1 3.169-1.063 4.4-1.983q.598.288 1.13.578z" fill="#4c97ff"/></g></g></g></g></g></g><g data-name="Group 281"><g data-name="Group 280"><g data-name="Group 279"><g data-name="Group 278"><g data-name="Group 277"><g data-name="Group 276"><g data-name="Group 275"><g data-name="Group 274"><g data-name="Group 273"><path data-name="Path 43" d="M433.5 568.943h-41.663a5.81 5.81 0 01-.548-2.314h42.553a3.25 3.25 0 01-.342 2.314z" fill="#4c97ff"/></g></g></g></g></g></g></g></g></g><g data-name="Group 291"><g data-name="Group 290"><g data-name="Group 289"><g data-name="Group 288"><g data-name="Group 287"><g data-name="Group 286"><g data-name="Group 285"><g data-name="Group 284"><g data-name="Group 283"><g data-name="Group 282"><path data-name="Path 44" d="M396.087 568.943h-1.237a9.147 9.147 0 002.239-6.672 11.751 11.751 0 00-4.387-8.337c.067-.414.124-.801.168-1.151a12.762 12.762 0 015.21 9.439 10.109 10.109 0 01-1.993 6.721z" fill="#4c97ff"/></g></g></g></g></g></g></g></g></g></g><g data-name="Group 300"><g data-name="Group 299"><g data-name="Group 298"><g data-name="Group 297"><g data-name="Group 296"><g data-name="Group 295"><g data-name="Group 294"><g data-name="Group 293"><g data-name="Group 292"><path data-name="Path 45" d="M411.136 555.198a.686.686 0 01-.165-1.352l2.6-.646a.686.686 0 11.331 1.332l-2.599.647a.693.693 0 01-.167.019z" fill="#4c97ff"/></g></g></g></g></g></g></g></g></g><g data-name="Group 309"><g data-name="Group 308"><g data-name="Group 307"><g data-name="Group 306"><g data-name="Group 305"><g data-name="Group 304"><g data-name="Group 303"><g data-name="Group 302"><g data-name="Group 301"><path data-name="Path 46" d="M408.55 553.032a.687.687 0 01-.165-1.353l2.6-.646a.687.687 0 01.33 1.333l-2.599.646a.681.681 0 01-.166.02z" fill="#4c97ff"/></g></g></g></g></g></g></g></g></g><g data-name="Group 318"><g data-name="Group 317"><g data-name="Group 316"><g data-name="Group 315"><g data-name="Group 314"><g data-name="Group 313"><g data-name="Group 312"><g data-name="Group 311"><g data-name="Group 310"><path data-name="Path 47" d="M413.738 556.711a.686.686 0 01-.165-1.352l2.6-.646a.686.686 0 11.33 1.332l-2.599.647a.679.679 0 01-.166.019z" fill="#4c97ff"/></g></g></g></g></g></g></g></g></g><g data-name="Group 324"><g data-name="Group 323"><g data-name="Group 322"><g data-name="Group 321"><g data-name="Group 320"><g data-name="Group 319"><path data-name="Path 48" d="M416.341 558.165a.687.687 0 01-.165-1.353l2.6-.646a.687.687 0 01.33 1.333l-2.599.646a.685.685 0 01-.166.02z" fill="#4c97ff"/></g></g></g></g></g></g><g data-name="Group 333"><g data-name="Group 332"><g data-name="Group 331"><g data-name="Group 330"><g data-name="Group 329"><g data-name="Group 328"><g data-name="Group 327"><g data-name="Group 326"><g data-name="Group 325"><path data-name="Path 49" d="M419.179 559.51a.687.687 0 01-.165-1.353l2.6-.645a.686.686 0 11.331 1.332l-2.6.647a.678.678 0 01-.166.019z" fill="#4c97ff"/></g></g></g></g></g></g></g></g></g><g data-name="Group 342"><g data-name="Group 341"><g data-name="Group 340"><g data-name="Group 339"><g data-name="Group 338"><g data-name="Group 337"><g data-name="Group 336"><g data-name="Group 335"><g data-name="Group 334"><path data-name="Path 50" d="M422.257 560.658a.687.687 0 01-.165-1.353l2.6-.646a.687.687 0 01.33 1.333l-2.599.646a.685.685 0 01-.166.02z" fill="#4c97ff"/></g></g></g></g></g></g></g></g></g></g></g><path data-name="Path 3782" d="M414.056 320.57c-2.542-5.344-9.53-24.068-9.53-24.068l-50.728 1.227s-11.202 20.77-12.473 28.502c-1.072 6.503-7.522 210.077-7.522 210.077s7.204.113 19.398-.004l24.865-160.25 10.813 156.912 19.557-.004s7.644-208.118 5.62-212.392z" fill="#ffb53b"/><path data-name="Path 3804" d="M380.495 398.33c-2.127-39.093-2.74-22.475-2.74-22.475s8.289 154.085 11.47 157.04c1.019.946 1.668-.718 1.668-.718s-8.271-94.75-10.398-133.847z" fill="#e3a031"/><path data-name="Path 3783" d="M360.535 316.234c-.128.009-.045 1.844-.707 4.71a21.55 21.55 0 01-14.757 15.857c-2.783.859-4.598.905-4.59 1.024a4.486 4.486 0 001.283.003 19.109 19.109 0 003.452-.615 20.922 20.922 0 0015.06-16.207 17.664 17.664 0 00.355-3.52 5.016 5.016 0 00-.096-1.252z" fill="#e3a031"/><path data-name="Path 3784" d="M414.75 333.369c-.006-.1-1.195-.44-3.02-1.36a21.484 21.484 0 01-3.033-1.858 23.788 23.788 0 01-3.204-2.948 23.418 23.418 0 01-2.574-3.526 21.229 21.229 0 01-1.51-3.226c-.68-1.91-.874-3.179-.978-3.16s.023.325.063.905a14.021 14.021 0 00.54 2.386 18.116 18.116 0 001.404 3.397 20.778 20.778 0 002.584 3.664 21.03 21.03 0 003.332 2.982 16.927 16.927 0 003.168 1.806 13.054 13.054 0 002.306.817 2.568 2.568 0 00.923.12z" fill="#e3a031"/><path data-name="Path 3785" d="M369.32 319.23a2.239 2.239 0 01-.071.575c-.09.39-.083.973-.149 1.7a963.574 963.574 0 00-.554 6.553c-.476 5.673-1.157 13.9-2.1 24.058-1.826 20.32-4.624 48.353-8.28 79.255-1.86 15.452-3.718 30.158-5.59 43.503s4.329-27.984 6.18-43.43c3.659-30.912 6.353-58.966 8.12-79.29a1508.314 1508.314 0 001.898-24.089c.186-2.821.335-5.022.439-6.545.041-.737.072-1.298.101-1.712a5.375 5.375 0 00.006-.579z" fill="#e3a031"/><path data-name="Path 3786" d="M404.7 528.958c-.092-5.296-.217-12.895-.398-22.274-.058-4.656-.12-9.86-.193-15.39s-.115-11.434.056-17.645c.293-12.43.651-26.099.773-40.451s-.009-28.047-.512-40.479-1.237-23.625-2.162-32.986c-.41-4.69-.975-8.916-1.387-12.627s-.917-6.927-1.319-9.497-.754-4.608-.979-5.98c-.11-.655-.192-1.151-.266-1.554s-.108-.528-.108-.528a4.836 4.836 0 00.039.545q.039.557.21 1.558c.19 1.396.487 3.46.862 5.998s.731 5.774 1.214 9.504.907 7.93 1.294 12.622c.865 9.353 1.615 20.533 2.032 32.96s.549 26.097.43 40.45-.443 27.996-.727 40.46c-.147 6.22-.047 12.133.003 17.664s.19 10.683.264 15.385c.239 9.385.422 16.984.548 22.276.09 2.604.354 2.55.326-.01z" fill="#e3a031"/><path data-name="Path 3807" d="M387.178 527.612l22.209-1.2-.547 6.9-19.861.781z" fill="#ffca74"/><path data-name="Path 3808" d="M332.958 530.345h22.005l-1.639 5.968H333.35z" fill="#ffca74"/></g><path data-name="Path 217" d="M321.682 173.527s9.01 57.162 16.737 57.162c0 0-14.092 55.613 14.548 70.31s59.769 1.317 69.553-8.466 19.547-10.02 31.368-5.02 20.044-18.916 20.044-31.708c0-5.015-10.884-5.941-22.554-13.215s-13.811-13.175-24.167-17.3c-1.327-.528-3.1-.84-4.622-1.441-6.495-2.559-12.613-5.124-17.83-7.289-5.912-2.454-13.887-3.634-18.425-5.281-3.52-1.277-.376.3-5.763-3.94s-11.319-6.205-15.785-13.022c-8.637-13.183-8.637-37.277-17.729-33.64s-25.375 12.85-25.375 12.85z" fill="#6c54ff"/><path data-name="Path 3810" d="M352.967 300.999c28.639 14.7 59.769 1.317 69.553-8.466 4.57-4.569 14.661-21.833 14.661-21.833s-15.453 22.725-36.506 30.3-59.154-5.872-47.708-.001z" fill="#8470ff"/><path data-name="Path 3809" d="M342.508 284.734c-9.357-19.168-4.088-54.044-4.088-54.044s-14.092 55.613 14.548 70.31c7.5 3.851 22.88 6.362 22.88 6.362s-23.983-3.46-33.34-22.628z" fill="#5941e9"/><path data-name="Path 2423" d="M426.671 225.11s-37.816-4.271-44.816-16.969c0 0 2.552 4.57 16.004 4.156 7.611-.235 11.91 5.983 19.113 9.186s9.7 3.627 9.7 3.627z" fill="#ffbe9d"/></g><path data-name="Path 237" d="M325.135 336.115c-96.092-3.414-184.71-23.683-184.647-57.7l-.18 97.444c-.061 32.792 87.974 54.3 184.827 57.937z" fill="#4c97ff"/><g data-name="Group 47" fill="#4c97ff"><path data-name="Path 238" d="M136.601 401.145v12.078c-.062 34.015 88.555 54.285 184.646 57.7v-12.078c-96.091-3.411-184.704-23.686-184.646-57.7z"/><path data-name="Path 239" d="M136.44 499.476l-.02 11.191c0 .3.007.6.021.9l.021-11.7-.022-.391z"/><path data-name="Path 240" d="M142.995 445.438l-.016 8.189c-.061 32.791 87.977 54.3 184.828 57.937v-8.966c-96.084-3.608-183.493-24.807-184.812-57.16z"/></g><path data-name="Path 241" d="M149.192 307.346l-.128 68.529c-.024 12.372 24.631 26.261 68.211 36.216v-79.4c-26.684-5.575-52.018-13.651-68.083-25.345z" fill="#fff" opacity=".29"/><path data-name="Path 242" d="M224.671 334.135v9.133c35.639 6.811 72.4 9.4 91.836 10.346v-9.132c-19.435-.946-56.197-3.535-91.836-10.347z" fill="#fff" opacity=".29"/><path data-name="Path 243" d="M224.671 361.544c35.639 6.811 72.4 9.4 91.836 10.346v-9.133c-19.435-.945-56.2-3.536-91.836-10.346z" fill="#fff" opacity=".29"/><path data-name="Path 244" d="M224.671 379.816c35.639 6.81 72.4 9.4 91.836 10.346v-9.134c-19.435-.945-56.2-3.535-91.836-10.346z" fill="#fff" opacity=".29"/><path data-name="Path 245" d="M224.671 398.092c35.639 6.811 72.4 9.4 91.836 10.348v-9.132c-19.435-.945-56.2-3.536-91.836-10.348z" fill="#fff" opacity=".29"/><path data-name="Path 246" d="M224.671 413.697c25.241 5.264 56.157 9.239 91.836 10.987v-7.1c-19.435-.945-56.2-3.536-91.836-10.346z" fill="#fff" opacity=".29"/><path data-name="Path 247" d="M560.834 279.102c-.011 9.388-8.77 16.64-8.206 16.1-11.283 10.883-30.657 19.518-55.028 26.031v96.98c8.363-2.3 16.251-4.853 23.56-7.677 15.093-5.809 39.066-17.49 39.487-33.608.001-.107-.033 17.893.187-97.826z" fill="#4c97ff"/><path data-name="Path 248" d="M506.34 327.861c19.489-5.716 34.795-12.671 45.687-20.755 0 0-.122 66.189-.13 69.636-.257 7.865-13.229 17.679-33.884 25.627a216.33 216.33 0 01-11.673 4.114z" fill="#80b5ff"/><path data-name="Path 252" d="M683.24 540.426l-85.954-3.271a7.529 7.529 0 01-7.237-7.81l.986-25.9a7.528 7.528 0 017.81-7.235l28.144 1.071-12.625-41.174 23.363 41.582 47.071 1.792a7.528 7.528 0 017.235 7.81l-.985 25.9a7.529 7.529 0 01-7.808 7.235z" fill="#67a7ff"/><g data-name="Group 51"><path data-name="Path 833" d="M50.173 284.317a19.391 19.391 0 00-19.3 19.439c0 15.229 17.484 30.954 18.23 31.616a1.609 1.609 0 002.136 0c.746-.663 18.23-16.387 18.23-31.616a19.391 19.391 0 00-19.296-19.439zm0 30.018a10.72 10.72 0 1110.718-10.718 10.731 10.731 0 01-10.718 10.718z" fill="#ffd63b"/><path data-name="Path 834" d="M243.172 132.884a14.656 14.656 0 00-14.586 14.693c0 11.51 13.215 23.4 13.778 23.9a1.216 1.216 0 001.614 0c.564-.5 13.778-12.386 13.778-23.9a14.656 14.656 0 00-14.584-14.693zm0 22.688a8.1 8.1 0 118.1-8.1 8.111 8.111 0 01-8.1 8.1z" fill="#4c97ff"/><path data-name="Path 835" d="M704.376 292.884a20.3 20.3 0 00-20.206 20.354c0 15.946 18.307 32.411 19.088 33.1a1.685 1.685 0 002.236 0c.781-.694 19.088-17.158 19.088-33.1a20.3 20.3 0 00-20.206-20.354zm0 31.431a11.224 11.224 0 1111.225-11.225 11.236 11.236 0 01-11.225 11.225z" fill="#ffb53b"/><g data-name="Group 4053"><path data-name="Path 251" d="M10.7 77.369h116.538a10.2 10.2 0 0110.2 10.2v35.118a10.2 10.2 0 01-10.2 10.2H89.077l19.215 55.092-33.774-55.092H10.7a10.2 10.2 0 01-10.2-10.2V87.569a10.2 10.2 0 0110.2-10.2z" fill="#fff" stroke="#4c97ff"/><path data-name="Line 160" fill="none" stroke="#ffb53b" stroke-linecap="round" d="M32.635 92.5h73"/><path data-name="Line 161" fill="none" stroke="#ffb53b" stroke-linecap="round" d="M32.635 104.5h73"/><path data-name="Line 162" fill="none" stroke="#ffb53b" stroke-linecap="round" d="M32.635 116.5h46"/></g></g><g data-name="Ellipse 156" transform="translate(613.857 509.971)" fill="none" stroke="#fff"><circle cx="7.5" cy="7.5" r="7.5" stroke="none"/><circle cx="7.5" cy="7.5" r="7"/></g><g data-name="Ellipse 157" transform="translate(639.007 515.964)" fill="none" stroke="#fff"><circle cx="4" cy="4" r="4" stroke="none"/><circle cx="4" cy="4" r="3.5"/></g><g data-name="Ellipse 158" transform="translate(657.007 517.964)" fill="none" stroke="#fff"><circle cx="4" cy="4" r="4" stroke="none"/><circle cx="4" cy="4" r="3.5"/></g><g data-name="Group 4052"><path data-name="Path 250" d="M541.823 0H425.284a10.2 10.2 0 00-10.2 10.2v35.118a10.2 10.2 0 0010.2 10.2h38.159l-19.214 55.094 33.774-55.094h63.819a10.2 10.2 0 0010.2-10.2V10.2A10.2 10.2 0 00541.823 0z" fill="#4c97ff"/><path data-name="Line 157" fill="none" stroke="#fff" stroke-linecap="round" d="M448.202 16.5h73"/><path data-name="Line 158" fill="none" stroke="#fff" stroke-linecap="round" d="M448.202 28.5h73"/><path data-name="Line 159" fill="none" stroke="#fff" stroke-linecap="round" d="M461.2 40.5h46"/></g></svg>