<svg xmlns="http://www.w3.org/2000/svg" width="649" height="600.5"><defs><radialGradient id="b" cx=".5" cy=".5" r=".5" gradientUnits="objectBoundingBox"><stop offset="0" stop-color="#4c97ff" stop-opacity=".302"/><stop offset="1" stop-color="#4c97ff" stop-opacity="0"/></radialGradient><linearGradient id="a" x1=".082" y1=".736" x2="1" y2=".5" gradientUnits="objectBoundingBox"><stop offset="0" stop-color="#4c97ff"/><stop offset="1" stop-color="#4c97ff" stop-opacity="0"/></linearGradient></defs><g data-name="Group 123"><path data-name="Path 458" d="M1896.532 1031.242c-23.7-1.232-8.032 3.255-19.722 9.184s-10.647-10.783-31.026-24.432-17.761 14.864-32.473 24.432-8.172-54.93-22.316-54.93-14.38 45.747-28.189 45.747-18.147-181.17-43.585-169.173-26.868 165.617-45.28 165.617-26.363-103.187-46.214-92.791-27.615 76.246-47.467 76.246-21.94-157.869-45.747-157.869-28.5 66.375-43.585 122.849-41.033 67.945-41.033 67.945 25.946 11.47 41.033 67.945 19.778 122.847 43.585 122.847 25.9-157.868 45.747-157.868 27.617 65.849 47.467 76.246 27.805-92.792 46.214-92.792 19.839 153.623 45.28 165.618 29.778-169.175 43.585-169.175 14.045 45.748 28.189 45.748 7.606-64.5 22.316-54.93 12.094 38.082 32.473 24.432 19.334-30.361 31.026-24.432-3.975 9.77 19.722 9.182 75.062-11.531 75.065-11.533-51.368-12.881-75.065-14.113z" transform="translate(-1390.404 -808.367)" fill="url(#a)"/></g><g data-name="Group 129"><path data-name="Path 459" d="M1608.744 1251.644c0 2.495 60.992 4.516 136.225 4.516s136.228-2.021 136.228-4.516c0-2.3-52.072-4.2-119.678-4.482-5.2-.021-10.832-.033-16.55-.033-75.233 0-136.225 2.021-136.225 4.515z" transform="translate(-1562.254 -660.888)" opacity=".67" fill="url(#b)"/><path data-name="Path 460" d="M227.386 321.75s13.116 21.732 23.794 21.732l-4.123 7.12s-17.653-18.174-20.535-26.418z" fill="#6c54ff"/><path data-name="Path 461" d="M224.95 271.913s6.185-2.247 9.181-2.247 12.927 15.549 12.927 15.549l-11.054 6.922z" fill="#513adb"/><path data-name="Path 462" d="M243.875 285.214s6.931 6.559 6.931 13.49 3.652 8.338 1.124 10.867-9.931 1.124-9.931 1.124l-7.868-21.987z" fill="#6c54ff"/><path data-name="Path 463" d="M199.596 233.256s11.99-4.747 15.987-4.747 20.485 27.729 20.485 27.729l-6.495 3.747s-3.247 9.491 7.493 22.231 17.238 32.475 4.5 37.971-19.736 6.745-23.484 3-18.486-89.931-18.486-89.931z" fill="#8f7dff"/><path data-name="Path 464" d="M147.957 203.289s-6.915 3.859-6.915 16.288c0 12.867 2.972 48.026-2.086 49.15s-39.866-6.59-46.539-11.725l-3.672 6.669s35.973 32.224 56.956 28.1 26.792-42.342 24.919-59.017-20.11-32.017-22.663-29.465z" fill="#e2bb25"/><path data-name="Path 465" d="M81.313 251.158l-18.566-25.522 5.7-4.122 14.364 24.481z" fill="#6c54ff"/><g data-name="Group 1956"><path data-name="Path 466" d="M61.203 230.882l1.544-5.246 18.566 25.522-2 2z" fill="#513adb"/><g data-name="Group 1957"><g data-name="Group 254"><g data-name="Group 253"><g data-name="Group 252"><g data-name="Group 251"><g data-name="Group 250"><g data-name="Group 249"><g data-name="Group 248"><g data-name="Group 247"><path data-name="Path 38" d="M251.506 562.882l11.435-5.093-6.57-14.754-4.557-6.118-4.827-2.19-2.703 10.216z" fill="#ffbe9d"/></g></g></g></g></g></g></g><path data-name="Path 3805" d="M259.375 549.627l-10.744 6.156 1.33 3.293 11.06-5.462z" opacity=".1"/></g><g data-name="Group 343"><g data-name="Group 266"><g data-name="Group 265"><g data-name="Group 264"><g data-name="Group 263"><g data-name="Group 262"><g data-name="Group 261"><path data-name="Path 41" d="M231.327 593.51l43.256-19.261a6.616 6.616 0 00-.502-2.655c-1.354-3.778-5.125-9.1-7.336-12.527-.261-.4-.5-.774-.706-1.116a14.036 14.036 0 01-.8-1.447c-1.338-3.005-3.768-1.305-3.768-1.305-2.466 6.242-10.288 2.013-12.242 5.412 0 0-.08.138-.251.463-.16.3-.395.761-.718 1.415-.463.944-1.1 2.3-1.94 4.185-2.056 4.618-6.989 9.257-11.036 13.55a39.57 39.57 0 00-1.415 1.582q-.489.577-.907 1.123c-3.086 4.008-3.444 6.682-3.06 8.337a3.695 3.695 0 001.425 2.244z" fill="#c9e0ff"/></g></g></g></g></g></g><g data-name="Group 272"><g data-name="Group 271"><g data-name="Group 270"><g data-name="Group 269"><g data-name="Group 268"><g data-name="Group 267"><path data-name="Path 42" d="M232.964 582.933c1.508.39 4.776 1.061 6.764.176.092-.04.175-.078.257-.128 1.35-.742 5.377-5.57 8.546-9.742 1.815-2.392 3.431-4.668 4.546-6.414 1.83-2.86 1.988-3.711 1.887-4.21-.381-1.874-3.733-1.807-5.986-1.54-.16.299-.395.76-.718 1.414 2.757-.425 5.244-.274 5.42.365-.016.624-1.71 3.712-6.337 9.791-3.53 4.639-7.04 8.674-7.987 9.193-1.285.7-3.782.36-5.487-.025q-.491.575-.905 1.12z" fill="#4c97ff"/></g></g></g></g></g></g><g data-name="Group 281"><g data-name="Group 280"><g data-name="Group 279"><g data-name="Group 278"><g data-name="Group 277"><g data-name="Group 276"><g data-name="Group 275"><g data-name="Group 274"><g data-name="Group 273"><path data-name="Path 43" d="M231.328 593.51l43.254-19.261a6.603 6.603 0 00-.501-2.655l-44.179 19.672a3.694 3.694 0 001.426 2.244z" fill="#4c97ff"/></g></g></g></g></g></g></g></g></g><g data-name="Group 291"><g data-name="Group 290"><g data-name="Group 289"><g data-name="Group 288"><g data-name="Group 287"><g data-name="Group 286"><g data-name="Group 285"><g data-name="Group 284"><g data-name="Group 283"><g data-name="Group 282"><path data-name="Path 44" d="M270.168 576.214l1.285-.572a10.395 10.395 0 01-5.408-5.89 13.354 13.354 0 01.7-10.684c-.262-.4-.5-.772-.708-1.117a14.508 14.508 0 00-1.045 12.207 11.488 11.488 0 005.176 6.056z" fill="#4c97ff"/></g></g></g></g></g></g></g></g></g></g><g data-name="Group 300"><g data-name="Group 299"><g data-name="Group 298"><g data-name="Group 297"><g data-name="Group 296"><g data-name="Group 295"><g data-name="Group 294"><g data-name="Group 293"><g data-name="Group 292"><path data-name="Path 45" d="M248.191 568.903a.78.78 0 00-.453-1.48l-3.002.531a.78.78 0 10.274 1.536l3-.531a.787.787 0 00.181-.056z" fill="#4c97ff"/></g></g></g></g></g></g></g></g></g><g data-name="Group 309"><g data-name="Group 308"><g data-name="Group 307"><g data-name="Group 306"><g data-name="Group 305"><g data-name="Group 304"><g data-name="Group 303"><g data-name="Group 302"><g data-name="Group 301"><path data-name="Path 46" d="M249.875 565.458a.78.78 0 00-.455-1.481l-3 .531a.78.78 0 00.272 1.538l3-.533a.773.773 0 00.183-.055z" fill="#4c97ff"/></g></g></g></g></g></g></g></g></g><g data-name="Group 318"><g data-name="Group 317"><g data-name="Group 316"><g data-name="Group 315"><g data-name="Group 314"><g data-name="Group 313"><g data-name="Group 312"><g data-name="Group 311"><g data-name="Group 310"><path data-name="Path 47" d="M246.189 571.676a.78.78 0 00-.455-1.48l-3 .531a.78.78 0 10.272 1.537l3-.532a.771.771 0 00.183-.056z" fill="#4c97ff"/></g></g></g></g></g></g></g></g></g><g data-name="Group 324"><g data-name="Group 323"><g data-name="Group 322"><g data-name="Group 321"><g data-name="Group 320"><g data-name="Group 319"><path data-name="Path 48" d="M244.16 574.39a.78.78 0 00-.455-1.482l-3.001.531a.78.78 0 00.273 1.538l3-.532a.78.78 0 00.182-.056z" fill="#4c97ff"/></g></g></g></g></g></g><g data-name="Group 333"><g data-name="Group 332"><g data-name="Group 331"><g data-name="Group 330"><g data-name="Group 329"><g data-name="Group 328"><g data-name="Group 327"><g data-name="Group 326"><g data-name="Group 325"><path data-name="Path 49" d="M241.835 577.097a.78.78 0 00-.454-1.48l-3.002.532a.78.78 0 10.274 1.537l3-.533a.77.77 0 00.182-.056z" fill="#4c97ff"/></g></g></g></g></g></g></g></g></g><g data-name="Group 342"><g data-name="Group 341"><g data-name="Group 340"><g data-name="Group 339"><g data-name="Group 338"><g data-name="Group 337"><g data-name="Group 336"><g data-name="Group 335"><g data-name="Group 334"><path data-name="Path 50" d="M239.17 579.711a.78.78 0 00-.454-1.48l-3.001.53a.78.78 0 00.273 1.538l3-.533a.778.778 0 00.182-.055z" fill="#4c97ff"/></g></g></g></g></g></g></g></g></g></g></g><g data-name="Group 1959"><g data-name="Group 254"><g data-name="Group 253"><g data-name="Group 252"><g data-name="Group 251"><g data-name="Group 250"><g data-name="Group 249"><g data-name="Group 248"><g data-name="Group 247"><path data-name="Path 38" d="M101.745 579.875l12.52.701 2.403-16.228-1.967-7.51-3.231-4.2-5.577 8.261z" fill="#ffbe9d"/></g></g></g></g></g></g></g><path data-name="Path 3805" d="M115.576 571.677l-11.603-1.835-.656 3.097 11.735 2.093z" opacity=".1"/></g><g data-name="Group 343"><g data-name="Group 266"><g data-name="Group 265"><g data-name="Group 264"><g data-name="Group 263"><g data-name="Group 262"><g data-name="Group 261"><path data-name="Path 41" d="M70.036 597.174l47.231 3.313a6.616 6.616 0 00.804-2.58c.58-3.97-.25-10.44-.593-14.503a38.988 38.988 0 01-.099-1.317 14.035 14.035 0 01-.026-1.653c.23-3.28-2.713-2.922-2.713-2.922-5.109 4.353-10.027-3.055-13.348-.972 0 0-.136.085-.44.291-.281.19-.706.486-1.299.912-.851.616-2.05 1.514-3.677 2.783-3.984 3.111-10.517 4.89-16.107 6.78-.713.24-1.376.484-1.992.73q-.702.28-1.328.566c-4.607 2.089-6.178 4.28-6.616 5.922a3.695 3.695 0 00.203 2.65z" fill="#c9e0ff"/></g></g></g></g></g></g><g data-name="Group 272"><g data-name="Group 271"><g data-name="Group 270"><g data-name="Group 269"><g data-name="Group 268"><g data-name="Group 267"><path data-name="Path 42" d="M76.449 588.606c1.148 1.053 3.718 3.18 5.889 3.332.1.007.19.014.286.008 1.54-.021 7.364-2.392 12.12-4.586 2.726-1.26 5.221-2.51 7.026-3.527 2.958-1.665 3.498-2.342 3.642-2.83.544-1.833-2.447-3.349-4.56-4.172-.281.19-.706.486-1.299.912 2.634.92 4.759 2.221 4.613 2.868-.307.543-3.251 2.474-10.192 5.667-5.295 2.436-10.289 4.35-11.368 4.363-1.463.016-3.508-1.457-4.832-2.598q-.704.276-1.325.563z" fill="#4c97ff"/></g></g></g></g></g></g><g data-name="Group 281"><g data-name="Group 280"><g data-name="Group 279"><g data-name="Group 278"><g data-name="Group 277"><g data-name="Group 276"><g data-name="Group 275"><g data-name="Group 274"><g data-name="Group 273"><path data-name="Path 43" d="M70.037 597.174l47.23 3.313a6.603 6.603 0 00.804-2.58l-48.238-3.383a3.694 3.694 0 00.204 2.65z" fill="#4c97ff"/></g></g></g></g></g></g></g></g></g><g data-name="Group 291"><g data-name="Group 290"><g data-name="Group 289"><g data-name="Group 288"><g data-name="Group 287"><g data-name="Group 286"><g data-name="Group 285"><g data-name="Group 284"><g data-name="Group 283"><g data-name="Group 282"><path data-name="Path 44" d="M112.447 600.149l1.403.098a10.395 10.395 0 01-2.008-7.74 13.353 13.353 0 015.636-9.102 35.474 35.474 0 01-.1-1.319 14.507 14.507 0 00-6.656 10.286 11.487 11.487 0 001.725 7.777z" fill="#4c97ff"/></g></g></g></g></g></g></g></g></g></g><g data-name="Group 300"><g data-name="Group 299"><g data-name="Group 298"><g data-name="Group 297"><g data-name="Group 296"><g data-name="Group 295"><g data-name="Group 294"><g data-name="Group 293"><g data-name="Group 292"><path data-name="Path 45" d="M96.48 583.372a.78.78 0 00.296-1.52l-2.9-.94a.78.78 0 10-.48 1.485l2.898.94a.787.787 0 00.187.035z" fill="#4c97ff"/></g></g></g></g></g></g></g></g></g><g data-name="Group 309"><g data-name="Group 308"><g data-name="Group 307"><g data-name="Group 306"><g data-name="Group 305"><g data-name="Group 304"><g data-name="Group 303"><g data-name="Group 302"><g data-name="Group 301"><path data-name="Path 46" d="M99.585 581.122a.78.78 0 00.294-1.52l-2.898-.941a.78.78 0 00-.482 1.485l2.9.939a.773.773 0 00.186.037z" fill="#4c97ff"/></g></g></g></g></g></g></g></g></g><g data-name="Group 318"><g data-name="Group 317"><g data-name="Group 316"><g data-name="Group 315"><g data-name="Group 314"><g data-name="Group 313"><g data-name="Group 312"><g data-name="Group 311"><g data-name="Group 310"><path data-name="Path 47" d="M93.41 584.88a.78.78 0 00.295-1.52l-2.9-.94a.78.78 0 10-.48 1.484l2.898.94a.771.771 0 00.187.036z" fill="#4c97ff"/></g></g></g></g></g></g></g></g></g><g data-name="Group 324"><g data-name="Group 323"><g data-name="Group 322"><g data-name="Group 321"><g data-name="Group 320"><g data-name="Group 319"><path data-name="Path 48" d="M90.345 586.322a.78.78 0 00.294-1.521l-2.899-.94a.78.78 0 00-.481 1.485l2.899.94a.78.78 0 00.187.036z" fill="#4c97ff"/></g></g></g></g></g></g><g data-name="Group 333"><g data-name="Group 332"><g data-name="Group 331"><g data-name="Group 330"><g data-name="Group 329"><g data-name="Group 328"><g data-name="Group 327"><g data-name="Group 326"><g data-name="Group 325"><path data-name="Path 49" d="M87.021 587.621a.78.78 0 00.294-1.52l-2.9-.94a.78.78 0 10-.48 1.485l2.9.939a.77.77 0 00.186.036z" fill="#4c97ff"/></g></g></g></g></g></g></g></g></g><g data-name="Group 342"><g data-name="Group 341"><g data-name="Group 340"><g data-name="Group 339"><g data-name="Group 338"><g data-name="Group 337"><g data-name="Group 336"><g data-name="Group 335"><g data-name="Group 334"><path data-name="Path 50" d="M83.44 588.677a.78.78 0 00.295-1.521l-2.898-.94a.78.78 0 00-.482 1.485l2.899.939a.778.778 0 00.187.037z" fill="#4c97ff"/></g></g></g></g></g></g></g></g></g></g></g></g><path data-name="Path 467" d="M103.734 570.931l21.169-114.661s15.295-81.176 23.046-126.439l57.519 4.583c-.906 3.742-1.682 6.806-2.193 8.678-13.993 51.386-50.956 126.729-50.956 126.729l-36.91 102.985z" fill="#2e1ba6"/><path data-name="Path 468" d="M201.685 333.247l18.022 111.218 40.535 106.791a15.373 15.373 0 01-11.452 4.883l-57.561-97.1-43.65-127.066z" fill="#4431c2"/><path data-name="Path 469" d="M144.482 302.851c.874-14.05-2.529-91.08 2.155-97.824s9.178-6.745 9.178-6.745 9.128-4.265 23.061.69c11.556 4.109 26.943 56.64 32.375 86.242.837 4.558 2.944 57.37 9.273 55.157l-84.913 10.231c2.66-15.434 8.65-44.199 8.871-47.751z" fill="#ffd63b"/><g data-name="Group 127"><g data-name="Group 1951"><g data-name="Group 1952"><g data-name="Group 1954"><path data-name="Path 49" d="M151.713 137.095s-9.908 9.365-12.437 16.276c-2.6 7.108-6.282 18.535-6.282 18.535l3.23.426s1.474 6.806.662 11.106 6.516 2.511 10.464 3.031 13.388-1.726 19.135-13.638 16.193-33.126-14.772-35.736z" fill="#ffbe9d"/></g><g data-name="Group 1955"><path data-name="Path 50" d="M168.515 198.411c-1.784 7.223-19.2 12.4-20.737 8.608 1.12-12.08.514-11.815.884-16.709.107-1.293.2-2.541.283-3.66a.637.637 0 01.009-.123c.087-1.3.168-2.426.242-3.273a.161.161 0 010-.036c1.069-1.72 8.245-13.293 9.708-15.637.057-.1.111-.184.148-.241 0-.015.01-.021.011-.036a.833.833 0 00.071-.1v-.015l.026-.035 1.447-2.332.433-.7.241 1.1.093.446.486 2.214.832 3.821 1.137 5.244.073.306z" fill="#ffbe9d"/><path data-name="Path 4361" d="M164.386 180.247c-2.361-1.742-13.726 15.726-16.339 16.908.31-3.923.827-10.713.827-10.713s5.516.032 11.618-6.195c.001 0 5.738-1.33 3.894 0z" fill="#eb996e"/></g><g data-name="Group 1953" fill="#0f0720"><path data-name="Path 4358" d="M171.734 129.981c1.956 5.101 2.964 11.84-1.82 14.164 5.238-1.743 5.053-9.397 3.62-14.951z"/><path data-name="Path 4359" d="M168.722 184.591s-2.024 1.74-3.238-1.3c0 0-2.648-6.58 1.884-10.574s11.075-9.807 11.94-18.58-8.6-10.61-8.6-10.61 1.244-13.461-12.918-11.738c0 0-1.901-3.345-9.7-4.534s-6.934 3.8-11.22 2.128-4.108-5.595-1.926-6.699c0 0-8.448 2.28-10.845 8.784s9.287 9.205 9.287 9.205-8.99 2.646-4.965 7.434 9.785 8.134 15.233 4.31 8.313-1.188 10.442.386.297 5.19 3.695 6.515 4.586 6.8 4.586 6.8.893-.97-.757 6.158-1.408 11.872 2.436 13.371 4.666-1.056 4.666-1.056z"/></g><path data-name="Path 52" d="M159.627 161.293s-1.512 7.05.2 7.275 6.207-3.287 6.378-7.632-4.872-4.484-6.578.357z" fill="#ffbe9d"/><path data-name="Path 53" d="M160.961 160.682s-1.385 2.7-.347 4.147 4.088-1.3 3.161-3.776-2.24-1.957-2.814-.371z" fill="#eb996e"/><path data-name="Path 54" d="M142.715 156.262l-.6 1.672s3.071.04 4.405 1.9 1.529 2.077 1.529 2.077-.142-3.982-5.334-5.649z" fill="#0f0720"/><path data-name="Path 55" d="M144.95 161.962a1.582 1.582 0 01-1.617 1.393 1.384 1.384 0 01-1.025-1.74 1.583 1.583 0 011.617-1.393 1.384 1.384 0 011.025 1.74z" fill="#0f0720"/><path data-name="Path 56" d="M139.426 177.409a5.87 5.87 0 003.015-.337 3.1 3.1 0 001.136-.858 3.239 3.239 0 00.6-1.226l.017-.056a.557.557 0 01.661-.369.491.491 0 01.337.635.777.777 0 01-.031.075 4.254 4.254 0 01-1.036 1.463 3.812 3.812 0 01-1.537.821 5.96 5.96 0 01-3.162-.148z" fill="#0f0720"/><path data-name="Path 60" d="M142.654 165.567c-.476 1.132.619 2.593 2.446 3.262s3.7.293 4.173-.84-.619-2.593-2.446-3.262-3.695-.293-4.173.84z" fill="#ff863b" opacity=".49"/></g></g></g><path data-name="Path 483" d="M177.365 199.032s-21.55-1.874-21.55 15.363 3.562 61.452-8.429 65.575c0 0-50.96-17.239-52.083-18.362s-8.9-15.644-11.992-18.736-4.4-8.9-6.182-7.119 1.312 8.431 1.312 8.431-9.744-5.246-11.991-7.494c0 0-.657-.219-1.748.875s.249 3.747.249 3.747-1.937.937-2.186 2.56 2 4.06 2 4.06a11.1 11.1 0 00-.312 3.121c0 2.187 19.985 14.3 19.985 14.3s38.032 36.535 53.4 41.218 48.711-12.177 57.892-47.212-7.312-59.39-18.365-60.327z" fill="#ffbe9d"/><g data-name="Group 128"><path data-name="Path 484" d="M205.206 450.605l-.053-.174c-.472-4.114-11.612-100.84-11.612-106.792a.528.528 0 011.055 0c0 5.813 11.189 103.038 11.6 106.58l49.881 99.929 2.977-2.047c.159.336.208.79.357 1.092l-10.619 6.847a9.025 9.025 0 00-.595-.992l7-4.3z" fill="#2e1ba6"/></g><path data-name="Path 485" d="M151.308 217.519c2.161 22.963 21.074 58.527 50.487 76.14a100.382 100.382 0 0019.672 9.192c-.1-2.289-.2-4.431-.32-6.33-50.286-17.151-68.88-71.647-66.736-85.06 1-7.44 8.989-12.274 16.746-12.338 15.293-.169 23.537 19.352 29.541 33.706l1.5-.567.948-.381c-3.167-8.114-7.229-17.233-12.642-24.145l-.011-.011a34.128 34.128 0 00-7.186-7.05c-12.664-9.128-30.046-1.668-31.955 10.291a24.278 24.278 0 00-.044 6.553z" fill="#6c54ff"/><path data-name="Path 486" d="M147.386 279.969c11.991-4.123 8.429-48.338 8.429-65.575s21.55-15.363 21.55-15.363c11.054.937 27.54 25.293 18.359 60.329s-42.529 51.9-57.892 47.212c-9.844-3-28.987-19.072-41.478-30.237a95.721 95.721 0 016.753-11.675c14.541 5.248 44.279 15.309 44.279 15.309z" fill="#ffe275"/><path data-name="Path 487" d="M186.224 204.555c-4.843-5.065-8.14-5.517-13.406-5.172-9.669.683-16.893 5.205-17 15.012-.028-10.05 7.241-14.762 16.957-15.6 4.144-.321 6.591-.272 10.031 1.9 22.644 14.356 25.633 75.94-19.207 100.767a59.194 59.194 0 01-9.406 4.007c42.766-14.918 55.826-75.394 32.031-100.914z" fill="#fff7cf"/></g><g data-name="Group 1960"><path data-name="Rectangle 2" d="M224.055.5h34.786a16 16 0 0116 16v13.587a16 16 0 01-16 16h-49.786a1 1 0 01-1-1V16.5a16 16 0 0116-16z" fill="#fff" stroke="#4c97ff"/><path data-name="Path 4362" d="M237.51 14.034a3.851 3.851 0 012.8 1.087 3.847 3.847 0 011.117 2.883 3.827 3.827 0 01-1.1 2.871 3.866 3.866 0 01-2.817 1.074 3.866 3.866 0 01-2.817-1.073 3.827 3.827 0 01-1.1-2.872 3.872 3.872 0 011.1-2.884 3.84 3.84 0 012.817-1.086zm10.678.241l-10.866 18.942h-2.414l10.866-18.942zm-12.878 3.729a2.508 2.508 0 00.6 1.744 2.013 2.013 0 001.57.671 2.086 2.086 0 001.61-.671 2.474 2.474 0 00.62-1.744 2.474 2.474 0 00-.617-1.744 2.086 2.086 0 00-1.61-.671 2.013 2.013 0 00-1.57.671 2.508 2.508 0 00-.603 1.744zm10.3 7.539a3.82 3.82 0 012.8 1.073 3.853 3.853 0 011.089 2.872 3.9 3.9 0 01-1.087 2.884 3.794 3.794 0 01-2.8 1.087 3.851 3.851 0 01-2.8-1.087 3.847 3.847 0 01-1.113-2.884 3.827 3.827 0 011.1-2.871 3.866 3.866 0 012.814-1.073zm-2.2 3.944a2.508 2.508 0 00.6 1.744 2.044 2.044 0 001.6.671 2.013 2.013 0 001.57-.671 2.508 2.508 0 00.6-1.744 2.508 2.508 0 00-.6-1.744 2.013 2.013 0 00-1.57-.671 2.044 2.044 0 00-1.6.671 2.508 2.508 0 00-.597 1.745z" fill="#4c97ff"/></g><g data-name="Group 1961"><path data-name="Rectangle 2" d="M449.055 304.87h79.906a16 16 0 0116 16v44.385a16 16 0 01-16 16h-94.906a1 1 0 01-1-1V320.87a16 16 0 0116-16z" fill="#fff" stroke="#ffb53b"/><path data-name="Path 4362" d="M482.41 327.547a6.453 6.453 0 014.7 1.821 6.446 6.446 0 011.866 4.833 6.413 6.413 0 01-1.843 4.81 6.478 6.478 0 01-4.72 1.8 6.478 6.478 0 01-4.72-1.8 6.413 6.413 0 01-1.846-4.811 6.488 6.488 0 011.843-4.833 6.434 6.434 0 014.72-1.82zm17.892.4l-18.206 31.743h-4.043l18.2-31.738zm-21.578 6.253a4.2 4.2 0 001.012 2.922 3.373 3.373 0 002.63 1.124 3.5 3.5 0 002.7-1.124 4.146 4.146 0 001.034-2.922 4.146 4.146 0 00-1.037-2.922 3.5 3.5 0 00-2.7-1.124 3.373 3.373 0 00-2.63 1.124 4.2 4.2 0 00-1.009 2.922zm17.263 12.633a6.214 6.214 0 016.518 6.608 6.532 6.532 0 01-1.821 4.833 6.358 6.358 0 01-4.7 1.821 6.317 6.317 0 01-6.563-6.653 6.413 6.413 0 011.843-4.81 6.478 6.478 0 014.723-1.799zm-3.686 6.608a4.2 4.2 0 001.011 2.922 3.425 3.425 0 002.675 1.124 3.373 3.373 0 002.63-1.124 4.2 4.2 0 001.011-2.922 4.2 4.2 0 00-1.011-2.924 3.373 3.373 0 00-2.63-1.124 3.425 3.425 0 00-2.675 1.124 4.2 4.2 0 00-1.011 2.924z" fill="#ffb53b"/></g><text data-name="-10%" transform="translate(0 358.279)" fill="#4c97ff" font-size="20" font-family="Poppins-Bold, Poppins" font-weight="700" opacity=".4"><tspan x="0" y="0">-10%</tspan></text><text data-name="-30%" transform="translate(545 469.404)" fill="#4c97ff" font-size="40" font-family="Poppins-Bold, Poppins" font-weight="700" opacity=".4"><tspan x="0" y="0">-30%</tspan></text><text data-name="-20%" transform="translate(447 117.904)" fill="#4c97ff" font-size="28" font-family="Poppins-Bold, Poppins" font-weight="700" opacity=".4"><tspan x="0" y="0">-20%</tspan></text><path data-name="Path 4363" d="M72.774 64.221A11.879 11.879 0 0060.952 76.13c0 9.329 10.711 18.962 11.168 19.368a.986.986 0 001.308 0c.457-.406 11.168-10.039 11.168-19.368a11.879 11.879 0 00-11.822-11.909zm0 18.389a6.567 6.567 0 116.567-6.567 6.574 6.574 0 01-6.567 6.567z" fill="#ffd63b"/><path data-name="Path 4364" d="M373.794 429.288a20.3 20.3 0 00-20.206 20.354c0 15.946 18.307 32.411 19.088 33.1a1.685 1.685 0 002.236 0c.781-.694 19.088-17.158 19.088-33.1a20.3 20.3 0 00-20.206-20.354zm0 31.431a11.224 11.224 0 1111.225-11.225 11.236 11.236 0 01-11.225 11.225z" fill="#ffb53b"/></svg>