<svg xmlns="http://www.w3.org/2000/svg" width="54" height="52"><defs><style>.cls-1{fill:#4c97ff}.cls-8{fill:#fff}.cls-3{fill:#3bffd3}.cls-4{fill:#ff8b00}.cls-5{fill:#ffdda4}.cls-6{fill:#ffb53b}.cls-7{fill:#0f0720}</style></defs><g id="law" transform="translate(-39.841 -51.635)"><g id="Group_4013" data-name="Group 4013" transform="translate(39.841 51.635)"><g id="Group_4011" data-name="Group 4011"><g id="Group_4009" data-name="Group 4009" transform="translate(12.63 11.75)"><path id="Path_9155" d="M171.13 149.407l-14.317-4.918-14.313 4.918s-1.714 19.983 14.317 28.783c16.027-8.799 14.313-28.783 14.313-28.783z" class="cls-1" data-name="Path 9155" transform="translate(-142.443 -144.489)"/><path id="Path_9156" fill="#fff" d="M177.221 196.6c-5.1-3.218-8.556-8.168-10.288-14.734a34.993 34.993 0 01-1.126-8.452l11.414-3.921 11.414 3.921a35.007 35.007 0 01-1.126 8.452c-1.733 6.564-5.191 11.514-10.288 14.734z" data-name="Path 9156" opacity=".43" transform="translate(-162.85 -166.328)"/><path id="Path_9157" d="M256 169.492l11.414 3.921a35.006 35.006 0 01-1.126 8.452C264.556 188.43 261.1 193.38 256 196.6z" class="cls-3" data-name="Path 9157" transform="translate(-241.63 -166.328)"/></g><path id="Path_9158" d="M73.291 112.167a5.124 5.124 0 01.889-5.048 5.125 5.125 0 013.036 8.342 5.122 5.122 0 01-3.925-3.294z" class="cls-4" data-name="Path 9158" transform="translate(-68.787 -100.098)"/><path id="Path_9159" d="M50.7 174.68a5.124 5.124 0 010-5.125 5.125 5.125 0 014.439 7.688 5.122 5.122 0 01-4.439-2.563z" class="cls-5" data-name="Path 9159" transform="translate(-48.726 -154.632)"/><path id="Path_9160" d="M65.191 316.865a5.124 5.124 0 01-1.754-4.816 5.125 5.125 0 016.8 5.706 5.122 5.122 0 01-5.046-.89z" class="cls-5" data-name="Path 9160" transform="translate(-60.384 -278.825)"/><path id="Path_9161" d="M115.41 381.18a5.124 5.124 0 01-2.564-4.438 5.125 5.125 0 017.688 4.439 5.122 5.122 0 01-5.124-.001z" class="cls-6" data-name="Path 9161" transform="translate(-103.747 -335.001)"/><path id="Path_9162" d="M110.771 61.451a5.124 5.124 0 011.752-4.817 5.125 5.125 0 011.541 8.743 5.122 5.122 0 01-3.293-3.926z" class="cls-5" data-name="Path 9162" transform="translate(-101.854 -56.001)"/><path id="Path_9163" d="M46.02 245.089a5.124 5.124 0 01-.891-5.048 5.125 5.125 0 015.706 6.8 5.122 5.122 0 01-4.815-1.752z" class="cls-4" data-name="Path 9163" transform="translate(-44.191 -216.132)"/><path id="Path_9164" d="M401.185 112.167a5.124 5.124 0 00-.889-5.048 5.125 5.125 0 00-3.036 8.342 5.122 5.122 0 003.925-3.294z" class="cls-6" data-name="Path 9164" transform="translate(-351.69 -100.098)"/><path id="Path_9165" d="M421.179 174.68a5.124 5.124 0 000-5.125 5.125 5.125 0 00-4.439 7.688 5.122 5.122 0 004.439-2.563z" class="cls-5" data-name="Path 9165" transform="translate(-369.154 -154.632)"/><path id="Path_9166" d="M398.8 316.865a5.124 5.124 0 001.754-4.816 5.125 5.125 0 00-6.8 5.706 5.122 5.122 0 005.046-.89z" class="cls-5" data-name="Path 9166" transform="translate(-349.611 -278.825)"/><path id="Path_9167" d="M343.525 381.18a5.124 5.124 0 002.564-4.438 5.125 5.125 0 00-7.688 4.439 5.122 5.122 0 005.124-.001z" class="cls-6" data-name="Path 9167" transform="translate(-301.188 -335.001)"/><path id="Path_9168" d="M365.354 61.451a5.124 5.124 0 00-1.752-4.817 5.125 5.125 0 00-1.541 8.743 5.122 5.122 0 003.293-3.926z" class="cls-5" data-name="Path 9168" transform="translate(-320.265 -56.001)"/><path id="Path_9169" d="M422.334 245.089a5.124 5.124 0 00.891-5.048 5.125 5.125 0 00-5.706 6.8 5.122 5.122 0 004.815-1.752z" class="cls-6" data-name="Path 9169" transform="translate(-370.164 -216.132)"/><g id="Group_4010" data-name="Group 4010"><path id="Path_9170" d="M161.374 165.967a31.65 31.65 0 004.157-9.677 37.781 37.781 0 001.137-11.3.63.63 0 00-.415-.544l-5.036-1.772a.615.615 0 00-.785.393.637.637 0 00.384.8l4.644 1.634a38.116 38.116 0 01-1.135 10.512 30.343 30.343 0 01-3.989 9.267 24.571 24.571 0 01-8.262 7.819 24.571 24.571 0 01-8.262-7.819 30.346 30.346 0 01-3.989-9.267 38.117 38.117 0 01-1.135-10.512l13.387-4.71 4.789 1.685a.615.615 0 00.785-.393.637.637 0 00-.384-.8l-4.99-1.755a.605.605 0 00-.4 0l-13.979 4.918a.63.63 0 00-.415.544 37.782 37.782 0 001.137 11.3 31.648 31.648 0 004.157 9.677 25.815 25.815 0 009 8.411.6.6 0 00.595 0 25.815 25.815 0 009.004-8.411z" class="cls-7" data-name="Path 9170" transform="translate(-125.074 -128.372)"/><path id="Path_9171" d="M61.114 99.089a20.041 20.041 0 01-3.741-1.795 5.74 5.74 0 00-5.793-5.233 22.59 22.59 0 01-1.212-1.733 5.78 5.78 0 00-2.017-5.063 5.63 5.63 0 00-.522-.389 23.952 23.952 0 01-.666-2.57 5.781 5.781 0 00-.487-4.553v-.363a25.028 25.028 0 01.172-2.911 5.776 5.776 0 00.678-3.535 24.007 24.007 0 011.3-3.625 5.751 5.751 0 001.065-2.076 22.86 22.86 0 012.75-3.794 5.756 5.756 0 00-1.781-9.777.633.633 0 00-.624.11 5.806 5.806 0 00-1.908 3.111.633.633 0 101.233.286 4.535 4.535 0 011.213-2.175 4.491 4.491 0 011.281 7.267 4.5 4.5 0 01-1.722-1.4.633.633 0 10-1.015.756 5.756 5.756 0 001.839 1.6q-.6.714-1.139 1.478a5.721 5.721 0 00-.258-.977 5.781 5.781 0 00-4.411-3.7.633.633 0 00-.6.217 5.757 5.757 0 002.645 9.179q-.3.712-.555 1.445c-.013-.024-.024-.048-.038-.071a5.781 5.781 0 00-4.987-2.879.633.633 0 00-.548.317 5.757 5.757 0 004.268 8.589q-.069.7-.1 1.41a5.785 5.785 0 00-4.766-1.32.632.632 0 00-.486.407 5.758 5.758 0 005.421 7.726c.139 0 .279-.006.419-.016q.125.565.275 1.122a5.783 5.783 0 00-3.621.1.633.633 0 00-.407.486 5.761 5.761 0 007.213 6.545q.319.489.663.962a5.744 5.744 0 00-1.383.571.633.633 0 00-.317.549 5.758 5.758 0 008.429 5.1 21.291 21.291 0 003.814 1.807.633.633 0 10.424-1.192zM44.94 63.487a4.512 4.512 0 01.551-4.127 4.491 4.491 0 012.524 6.934 4.511 4.511 0 01-3.075-2.807zm-2.576 7.879a4.511 4.511 0 01-.174-4.16 4.491 4.491 0 013.69 6.39 4.511 4.511 0 01-3.516-2.23zm-.209 8.819a4.512 4.512 0 01-.894-4.067A4.491 4.491 0 0146 81.771a4.512 4.512 0 01-3.849-1.586zm2.9 9a4.512 4.512 0 01-1.587-3.85 4.485 4.485 0 014.065.892 4.583 4.583 0 011.589 3.851 4.511 4.511 0 01-4.067-.893zm6.9 8.076a4.511 4.511 0 01-2.231-3.516 4.491 4.491 0 016.39 3.689 4.511 4.511 0 01-4.155-.168z" class="cls-7" data-name="Path 9171" transform="translate(-39.841 -51.635)"/><path id="Path_9172" d="M322.081 75.329a.633.633 0 00-.486-.407 5.782 5.782 0 00-4.766 1.32q-.031-.708-.1-1.41a5.757 5.757 0 004.271-8.59.633.633 0 00-.548-.317 5.781 5.781 0 00-4.987 2.879l-.038.071q-.256-.733-.555-1.445a5.757 5.757 0 002.645-9.179.633.633 0 00-.6-.217 5.781 5.781 0 00-4.411 3.7 5.7 5.7 0 00-.258.977q-.542-.763-1.138-1.477a5.755 5.755 0 00.927-9.452.633.633 0 00-.624-.11 5.755 5.755 0 00-1.806 9.755v.005a22.857 22.857 0 012.764 3.811 5.752 5.752 0 001.065 2.076 24.016 24.016 0 011.3 3.625 5.775 5.775 0 00.678 3.535 25.006 25.006 0 01.172 2.911v.363a5.781 5.781 0 00-.487 4.552 24.3 24.3 0 01-.667 2.574 5.684 5.684 0 00-.519.384 5.777 5.777 0 00-2.018 5.063 22.3 22.3 0 01-1.214 1.734 5.74 5.74 0 00-5.793 5.233 20.044 20.044 0 01-3.741 1.795.633.633 0 10.425 1.192 21.3 21.3 0 003.814-1.807 5.756 5.756 0 008.429-5.1.633.633 0 00-.317-.549 5.739 5.739 0 00-1.383-.571q.342-.472.663-.962a5.757 5.757 0 007.213-6.546.632.632 0 00-.408-.486 5.778 5.778 0 00-3.623-.1q.151-.562.277-1.127c.14.01.28.016.419.016a5.758 5.758 0 005.421-7.726zM313.7 62.168a4.512 4.512 0 013.076-2.807 4.492 4.492 0 01-2.524 6.934 4.509 4.509 0 01-.552-4.127zm-4.738-5.868a4.512 4.512 0 012.542-3.3 4.493 4.493 0 01-1.282 7.267 4.51 4.51 0 01-1.26-3.967zm1.344 40.962a4.511 4.511 0 01-4.159.174 4.491 4.491 0 016.39-3.689 4.512 4.512 0 01-2.231 3.516zM318.8 85.34a4.492 4.492 0 01-5.653 4.743 4.491 4.491 0 015.653-4.743zm-2.238-15.9a4.512 4.512 0 013.517-2.23 4.492 4.492 0 01-3.69 6.39 4.509 4.509 0 01.17-4.163zm3.551 10.749a4.509 4.509 0 01-3.849 1.586A4.491 4.491 0 01321 76.118a4.512 4.512 0 01-.894 4.067z" class="cls-7" data-name="Path 9172" transform="translate(-268.425 -51.635)"/></g></g><g id="Group_4012" data-name="Group 4012" transform="translate(18.641 21.091)"><path id="Path_9173" d="M210.151 220.706v-1.774a.633.633 0 111.265 0v1.774a.633.633 0 01-1.265 0z" class="cls-8" data-name="Path 9173" transform="translate(-207.518 -218.3)"/><path id="Path_9174" d="M189.344 220.706v-1.774a.633.633 0 111.265 0v1.774a.633.633 0 01-1.265 0z" class="cls-8" data-name="Path 9174" transform="translate(-189.344 -218.3)"/><path id="Path_9175" d="M230.958 220.706v-1.774a.633.633 0 111.265 0v1.774a.633.633 0 01-1.265 0z" class="cls-8" data-name="Path 9175" transform="translate(-225.692 -218.3)"/></g><path id="Path_9176" d="M265.113 181.469L256 190.581v-7.228l3.733-3.733z" class="cls-1" data-name="Path 9176" transform="translate(-229.071 -163.424)"/><path id="Path_9177" d="M267.347 215.02a34.8 34.8 0 01-1.059 6.611q-.328 1.247-.742 2.418L256 233.6v-7.228z" class="cls-1" data-name="Path 9177" transform="translate(-229.093 -194.344)"/><path id="Path_9178" d="M212.074 74.905a.633.633 0 01-.6-.828l.157-.482-.41-.3a.633.633 0 01.372-1.145h.507l.157-.482a.633.633 0 011.2 0l.157.482h.507a.633.633 0 01.372 1.145l-.41.3.157.482a.633.633 0 01-.974.707l-.41-.3-.41.3a.632.632 0 01-.372.121z" class="cls-6" data-name="Path 9178" transform="translate(-189.605 -68.753)"/><path id="Path_9179" d="M258.994 437.206a.632.632 0 01-.372-.121l-.41-.3-.41.3a.633.633 0 01-.974-.707l.157-.482-.41-.3a.633.633 0 01.372-1.145h.507l.157-.482a.633.633 0 011.2 0l.157.482h.507a.633.633 0 01.372 1.145l-.41.3.157.482a.633.633 0 01-.6.828z" class="cls-1" data-name="Path 9179" transform="translate(-229.301 -385.205)"/><path id="Path_9180" d="M414.891 418.185a.631.631 0 01-.372-.121l-.41-.3-.41.3a.633.633 0 01-.974-.707l.157-.482-.41-.3a.633.633 0 01.372-1.145h.507l.157-.482a.633.633 0 011.2 0l.157.482h.507a.633.633 0 01.372 1.145l-.41.3.157.482a.633.633 0 01-.6.828z" class="cls-3" data-name="Path 9180" transform="translate(-365.797 -368.591)"/><path id="Path_9181" d="M178.557 108.532a.631.631 0 01-.447-.185l-.628-.628-.628.628a.633.633 0 01-.895-.895l1.076-1.076a.633.633 0 01.895 0l1.07 1.076a.633.633 0 01-.447 1.08z" class="cls-1" data-name="Path 9181" transform="translate(-158.809 -99.287)"/><path id="Path_9182" d="M59.09 383.808a.631.631 0 01-.447-.185l-.628-.628-.628.628a.633.633 0 11-.895-.895l1.076-1.076a.633.633 0 01.895 0l1.076 1.076a.633.633 0 01-.447 1.08z" class="cls-6" data-name="Path 9182" transform="translate(-54.223 -339.728)"/></g></g></svg>