<svg xmlns="http://www.w3.org/2000/svg" xmlns:xlink="http://www.w3.org/1999/xlink" width="40" height="40" viewBox="0 0 40 40">
  <defs>
    <clipPath id="clip-By_Traffic_Up_to_400_ports">
      <rect width="40" height="40"/>
    </clipPath>
  </defs>
  <g id="By_Traffic_Up_to_400_ports" data-name="By Traffic  Up to 400 ports" clip-path="url(#clip-By_Traffic_Up_to_400_ports)">
    <g id="Сгруппировать_4312" data-name="Сгруппировать 4312" transform="translate(1.538 1.772)">
      <g id="money" transform="translate(2.633 2.4)">
        <path id="Контур_9322" data-name="Контур 9322" d="M382.941,4.62c-.028-.013-2.774-1.341-2.774-3.687a.927.927,0,1,0-1.855,0c0,2.346-2.747,3.674-2.772,3.686a.927.927,0,0,0,0,1.681c.028.013,2.772,1.32,2.772,3.686a.928.928,0,0,0,.8.918h.014a.913.913,0,0,0,.092.007h.026a.931.931,0,0,0,.246-.033h0a.928.928,0,0,0,.676-.893c0-2.346,2.747-3.674,2.772-3.686a.928.928,0,0,0,0-1.68Z" transform="translate(-351.818 -0.005)" fill="#3bffd3"/>
        <path id="Контур_9323" data-name="Контур 9323" d="M382.959,340.178c-.028-.013-2.772-1.32-2.772-3.686a.927.927,0,0,0-1.855,0c0,2.346-2.747,3.674-2.772,3.686a.928.928,0,0,0,0,1.68c.028.013,2.774,1.341,2.774,3.687a.927.927,0,0,0,.8.918h.014a.915.915,0,0,0,.092.007h.026a.93.93,0,0,0,.246-.033h0a.928.928,0,0,0,.676-.893c0-2.346,2.747-3.674,2.772-3.686a.927.927,0,0,0,0-1.681Z" transform="translate(-351.838 -314.818)" fill="#6c54ff"/>
        <path id="Контур_9324" data-name="Контур 9324" d="M7.959,340.18c-.028-.013-2.774-1.341-2.774-3.687a.927.927,0,0,0-1.855,0c0,2.346-2.747,3.674-2.772,3.686a.928.928,0,0,0,0,1.68c.028.013,2.774,1.341,2.774,3.687a.927.927,0,0,0,.8.918h.014a.916.916,0,0,0,.092.007h.026a.931.931,0,0,0,.246-.033h0a.928.928,0,0,0,.676-.893c0-2.346,2.747-3.674,2.772-3.686a.928.928,0,0,0,0-1.68Z" transform="translate(-0.021 -314.819)" fill="#ffc800"/>
        <path id="Контур_9325" data-name="Контур 9325" d="M7.939,4.615C7.911,4.6,5.164,3.273,5.164.927a.927.927,0,1,0-1.855,0C3.309,3.273.563,4.6.538,4.614a.927.927,0,0,0,0,1.681c.028.013,2.772,1.32,2.772,3.686h0a.928.928,0,0,0,.8.917h.014c.029,0,.059.006.09.007h.026a.929.929,0,0,0,.249-.034h.006a.928.928,0,0,0,.672-.892c0-2.346,2.747-3.674,2.772-3.686a.928.928,0,0,0,0-1.68Z" transform="translate(0)" fill="#448ef5"/>
      </g>
      <ellipse id="Эллипс_291" data-name="Эллипс 291" cx="12" cy="11.5" rx="12" ry="11.5" transform="translate(7.635 8)" fill="#ebd557"/>
      <circle id="Эллипс_290" data-name="Эллипс 290" cx="9.5" cy="9.5" r="9.5" transform="translate(9.635 10)" fill="#ffd63b"/>
      <path id="Контур_9326" data-name="Контур 9326" d="M39.077,12.9H37.949a1.692,1.692,0,0,1,0-3.385H41.9a1.128,1.128,0,1,0,0-2.256H39.641V5H37.385V7.3a3.949,3.949,0,0,0,.564,7.852h1.128a1.692,1.692,0,0,1,0,3.385H35.128a1.128,1.128,0,1,0,0,2.256h2.256v2.256h2.256v-2.3a3.949,3.949,0,0,0-.564-7.852Z" transform="translate(-19.186 4.767)" fill="#ffb53b"/>
      <path id="Контур_9327" data-name="Контур 9327" d="M32.41,0A12.41,12.41,0,0,0,20,12.41a.564.564,0,0,0,1.128,0A11.282,11.282,0,1,1,34.559,23.488a.567.567,0,0,0,.107,1.128h.107A12.41,12.41,0,0,0,32.41,0Z" transform="translate(-13.084 6.947)"/>
      <path id="Контур_9328" data-name="Контур 9328" d="M43.154,16.41A4.513,4.513,0,0,0,38.641,11.9H37.513a1.128,1.128,0,0,1,0-2.256h3.949a1.692,1.692,0,0,0,0-3.385H39.769V4.564A.564.564,0,0,0,39.205,4H36.949a.564.564,0,0,0-.564.564V6.4a4.513,4.513,0,0,0,1.128,8.879h1.128a1.128,1.128,0,1,1,0,2.256H34.692a1.692,1.692,0,0,0,0,3.385h1.692v1.692a.564.564,0,0,0,.564.564h2.256a.564.564,0,0,0,.564-.564V20.776A4.513,4.513,0,0,0,43.154,16.41Zm-4.028,3.345a.564.564,0,0,0-.485.564v1.732H37.513V20.359a.564.564,0,0,0-.564-.564H34.692a.564.564,0,0,1,0-1.128h3.949a2.256,2.256,0,1,0,0-4.513H37.513a3.385,3.385,0,0,1-.485-6.73.564.564,0,0,0,.485-.564V5.128h1.128V6.82a.564.564,0,0,0,.564.564h2.256a.564.564,0,1,1,0,1.128H37.513a2.256,2.256,0,0,0,0,4.513h1.128a3.385,3.385,0,0,1,.485,6.73Z" transform="translate(-18.75 5.203)"/>
    </g>
  </g>
</svg>
