<svg xmlns="http://www.w3.org/2000/svg" width="51" height="52"><defs><style>.cls-1{fill:#fff}.cls-2{fill:#4c97ff}.cls-4{fill:#ffb53b}.cls-5{fill:#ffdda4}.cls-6{fill:#ffe9c5}.cls-7{fill:#3bffd3}.cls-8{fill:#0f0720}</style></defs><g id="search" transform="translate(-39.333 -31.204)"><g id="Group_4004" data-name="Group 4004" transform="translate(39.333 31.204)"><g id="Group_4003" data-name="Group 4003" transform="translate(1.318)"><path id="Path_9060" d="M130.475 37.33v48.554a1.125 1.125 0 01-1.125 1.125H98.732a1.125 1.125 0 01-1.125-1.125V37.33a1.125 1.125 0 011.125-1.125h30.618a1.125 1.125 0 011.125 1.125z" class="cls-1" data-name="Path 9060" transform="translate(-91.953 -35.607)"/><path id="Path_9063" d="M130.475 37.33v36.361H97.607V37.33a1.125 1.125 0 011.125-1.125h30.618a1.125 1.125 0 011.125 1.125z" class="cls-1" data-name="Path 9063" transform="translate(-91.953 -35.607)"/><path id="Path_9065" d="M130.474 42.047V37.33a1.126 1.126 0 00-1.126-1.126H98.732a1.126 1.126 0 00-1.126 1.126v4.717z" class="cls-2" data-name="Path 9065" transform="translate(-91.952 -35.606)"/><g id="Group_3990" data-name="Group 3990" transform="translate(5.654 .598)"><g id="Group_3989" data-name="Group 3989"><g id="Group_3988" data-name="Group 3988"><path id="Path_9066" d="M107.4 42.047l4.407-5.843H98.731a1.125 1.125 0 00-1.125 1.125v4.717h9.8z" class="cls-2" data-name="Path 9066" transform="translate(-97.606 -36.204)"/><g id="Group_3987" data-name="Group 3987" transform="translate(15.082 2.568)"><path id="Path_9067" d="M237.768 58.788h-13.551a.563.563 0 010-1.125h13.551a.563.563 0 010 1.125z" class="cls-2" data-name="Path 9067" transform="translate(-223.654 -57.663)"/></g></g></g></g><g id="Group_3992" data-name="Group 3992" transform="translate(8.459 8.261)"><path id="Path_9068" fill="#4c98ff" d="M0 0h3.1v9.412H0z" data-name="Path 9068" transform="rotate(-45 37.729 -13.433)"/><g id="Group_3991" data-name="Group 3991" transform="translate(.826 .82)"><path id="Path_9070" d="M149.56 128.949a12.8 12.8 0 110-18.106 12.817 12.817 0 010 18.106z" class="cls-4" data-name="Path 9070" transform="translate(-127.71 -107.1)"/></g><circle id="Ellipse_249" cx="9.63" cy="9.63" r="9.63" class="cls-5" data-name="Ellipse 249" transform="rotate(-45 16.437 6.809)"/><path id="Path_9071" d="M175.461 141.325l-13.524 13.524a9.5 9.5 0 01-1.29-2.178l12.636-12.636a9.494 9.494 0 012.178 1.29z" class="cls-6" data-name="Path 9071" transform="translate(-155.88 -135.274)"/><path id="Path_9072" d="M195.471 164.041l-10.819 10.819a9.57 9.57 0 01-5.346-2.551l13.614-13.614a9.569 9.569 0 012.551 5.346z" class="cls-6" data-name="Path 9072" transform="translate(-172.307 -151.701)"/><path id="Path_9073" d="M352.383 329.678l-2.094 2.094a1.057 1.057 0 01-1.5 0l-9.92-9.92a1.057 1.057 0 010-1.5l2.094-2.094a1.057 1.057 0 011.5 0l9.92 9.92a1.058 1.058 0 010 1.5z" class="cls-4" data-name="Path 9073" transform="translate(-312.509 -291.903)"/><path id="Path_9075" d="M0 0h5.076v3.35H0z" class="cls-5" data-name="Path 9075" transform="rotate(-45 51.812 -17.87)"/></g><g id="Group_4000" data-name="Group 4000" transform="translate(12.258 40.957)"><g id="Group_3998" data-name="Group 3998" transform="translate(0 2.935)"><g id="Group_3997" data-name="Group 3997"><g id="Group_3994" data-name="Group 3994" transform="translate(0 2.334)"><path id="Path_9078" d="M171.783 417.54h-18.489a.6.6 0 100 1.2h18.488a.6.6 0 100-1.2z" class="cls-2" data-name="Path 9078" transform="translate(-152.696 -417.54)"/></g><g id="Group_3995" data-name="Group 3995"><path id="Path_9079" d="M157.655 398.037H153.3a.6.6 0 100 1.2h4.36a.6.6 0 100-1.2z" class="cls-2" data-name="Path 9079" transform="translate(-152.697 -398.037)"/></g><g id="Group_3996" data-name="Group 3996" transform="translate(7.21)"><path id="Path_9080" d="M213.58 398.037h9.054a.6.6 0 010 1.2h-9.079a.6.6 0 01-.6-.657.616.616 0 01.625-.543z" class="cls-2" data-name="Path 9080" transform="translate(-212.956 -398.037)"/></g></g></g><g id="Group_3999" data-name="Group 3999" transform="translate(.208)"><circle id="Ellipse_250" cx=".598" cy=".598" r=".598" class="cls-2" data-name="Ellipse 250" transform="translate(1.944)"/><circle id="Ellipse_251" cx=".598" cy=".598" r=".598" class="cls-2" data-name="Ellipse 251"/></g></g><g id="Group_4002" data-name="Group 4002"><circle id="Ellipse_252" cx="5.056" cy="5.056" r="5.056" class="cls-7" data-name="Ellipse 252" transform="translate(.598 34.454)"/><g id="Group_4001" data-name="Group 4001"><path id="Path_9081" d="M93.2 60.578a.6.6 0 00.6-.6v-27.05a.528.528 0 01.527-.527h22.337a.6.6 0 100-1.2H94.33a1.726 1.726 0 00-1.724 1.724v27.054a.6.6 0 00.594.599z" class="cls-8" data-name="Path 9081" transform="translate(-87.55 -31.204)"/><path id="Path_9082" d="M99.106 75.321l-9.612-9.607V32.928a1.726 1.726 0 00-1.725-1.728h-4.621a.6.6 0 100 1.2h4.621a.528.528 0 01.527.527v32.014a1.632 1.632 0 00-.886.086l-4.11-4.112a13.388 13.388 0 10-3.041 3.039l4.115 4.112a1.653 1.653 0 00.373 1.769l3.553 3.553v8.093a.528.528 0 01-.527.527H57.134a.528.528 0 01-.527-.527v-5.145a5.654 5.654 0 000-11.245v-1.45a.6.6 0 00-1.2 0v1.451a5.654 5.654 0 000 11.244v5.144a1.726 1.726 0 001.727 1.72h30.635a1.726 1.726 0 001.724-1.724v-6.9l5.174 5.171a1.657 1.657 0 002.343 0l2.095-2.094a1.657 1.657 0 000-2.342zm-47.559-4.607a4.46 4.46 0 114.46 4.458 4.464 4.464 0 01-4.46-4.458zm12.234-9a12.208 12.208 0 1117.27 0 12.118 12.118 0 01-17.27-.003zm18.116.846q.34-.34.65-.7l3.916 3.914-1.348 1.347-3.915-3.914q.358-.31.7-.65zm16.362 14.256l-2.1 2.094a.471.471 0 01-.65 0l-9.926-9.92a.459.459 0 010-.649l2.1-2.094a.46.46 0 01.65 0l9.926 9.92a.459.459 0 010 .649z" class="cls-8" data-name="Path 9082" transform="translate(-50.35 -31.204)"/></g><path id="Path_9083" d="M84.969 340.985a3.4 3.4 0 00-3.975 2.779.6.6 0 101.2 0 .791.791 0 111.582 0 .6.6 0 101.2 0 1.981 1.981 0 010-2.779zm-1.988-.791a.791.791 0 11-.791.791.792.792 0 01.791-.792z" class="cls-1" data-name="Path 9083" transform="translate(-77.327 -302.169)"/></g></g><path id="Path_9084" d="M419.846 147.87h-.359v-.359a.6.6 0 10-1.2 0v.359h-.359a.6.6 0 100 1.2h.359v.359a.6.6 0 101.2 0v-.359h.359a.6.6 0 000-1.2z" class="cls-2" data-name="Path 9084" transform="translate(-372.076 -133.068)"/><path id="Path_9085" d="M49.846 244.462h-.359v-.362a.6.6 0 00-1.2 0v.359h-.359a.6.6 0 100 1.2h.359v.359a.6.6 0 001.2 0v-.359h.359a.6.6 0 100-1.2z" class="cls-4" data-name="Path 9085" transform="translate(-46.376 -218.103)"/><path id="Path_9086" d="M400.627 195.01a.6.6 0 01-.423-.175l-.534-.534-.534.534a.6.6 0 11-.846-.846l.957-.957a.6.6 0 01.846 0l.957.957a.6.6 0 01-.423 1.021z" class="cls-7" data-name="Path 9086" transform="translate(-355.157 -173.514)"/><path id="Path_9087" d="M41.846 287.652a.6.6 0 01-.423-.175l-.534-.534-.534.534a.6.6 0 11-.846-.846l.957-.957a.6.6 0 01.846 0l.957.957a.6.6 0 01-.423 1.021z" class="cls-2" data-name="Path 9087" transform="translate(-39.333 -255.072)"/><path id="Path_9088" d="M441.846 354.572a.6.6 0 01-.423-.175l-.534-.534-.534.534a.6.6 0 01-.846-.846l.957-.957a.6.6 0 01.846 0l.957.957a.6.6 0 01-.423 1.021z" class="cls-4" data-name="Path 9088" transform="translate(-391.444 -313.985)"/></g></g></svg>