<svg xmlns="http://www.w3.org/2000/svg" width="68" height="65"><defs><style>.cls-1{fill:#3bffd3}.cls-4{fill:#ffc76a}.cls-5{fill:#ffb53b}.cls-7{fill:#4c97ff}</style></defs><g id="graphic-designer" transform="translate(-42.144 -40.024)"><path id="Path_3902" d="M112.752 128.606l-9.812-2.96H48.734a1.594 1.594 0 00-1.59 1.6v4.782a1.594 1.594 0 001.59 1.6h54.206l9.851-2.971a1.065 1.065 0 00.744-1.164 1.1 1.1 0 00-.783-.887z" class="cls-1" data-name="Path 3902" transform="translate(-4.2 -72.138)"/><path id="Path_3903" fill="#23e5b9" d="M52.981 125.646h-4.239a1.6 1.6 0 00-1.6 1.6v4.782a1.6 1.6 0 001.6 1.6h4.238z" data-name="Path 3903" transform="translate(-4.199 -72.138)"/><path id="Path_3904" fill="#d7fef5" d="M389.742 133.628l9.912-2.971a1.064 1.064 0 000-2.038l-9.912-2.971a5.148 5.148 0 00-1.6 3.991 5.029 5.029 0 001.6 3.989z" data-name="Path 3904" transform="translate(-291.069 -72.139)"/><path id="Path_3905" d="M434.517 137.368l-4.354-1.305a4.074 4.074 0 00-.52 2.324 4.116 4.116 0 00.52 2.324l4.354-1.305a1.064 1.064 0 000-2.038z" class="cls-1" data-name="Path 3905" transform="translate(-325.932 -80.901)"/><path id="Path_3906" d="M183.785 154.44l-1.469 20.945a3.9 3.9 0 01-1.076 2.693l-1.453 3.149v20H155.74V154.44z" class="cls-4" data-name="Path 3906" transform="translate(-95.611 -97.005)"/><path id="Path_3908" d="M172.473 187.461a5.665 5.665 0 01-5.666 5.666h-11.071V184.5h13.772a2.961 2.961 0 012.965 2.965z" class="cls-5" data-name="Path 3908" transform="translate(-95.568 -121.724)"/><path id="Path_3909" d="M234.859 154.445v8.907a6.92 6.92 0 01-7.061-.583 7.164 7.164 0 01-11.261-5.882v-2.442h18.322z" class="cls-5" data-name="Path 3909" transform="translate(-146.728 -96.409)"/><path id="Path_3910" fill="#2a73d8" d="M155.736 394.556h24.047v7.117h-24.047z" data-name="Path 3910" transform="translate(-95.591 -298.716)"/><g id="Group_1785" data-name="Group 1785" transform="translate(52.264 48.969)"><path id="Path_3911" d="M131.472 111.922a4.323 4.323 0 01-4.323-4.323v-7.324a4.323 4.323 0 018.647 0v7.325a4.323 4.323 0 01-4.324 4.322z" class="cls-4" data-name="Path 3911" transform="translate(-123.673 -95.952)"/><path id="Path_3912" d="M185.534 111.922a4.323 4.323 0 01-4.323-4.323v-7.324a4.323 4.323 0 018.647 0v7.325a4.323 4.323 0 01-4.324 4.322z" class="cls-4" data-name="Path 3912" transform="translate(-169.089 -95.952)"/><path id="Path_3913" d="M239.445 115a4.172 4.172 0 01-4.172-4.172v-7.039a4.172 4.172 0 118.345 0v7.039a4.172 4.172 0 01-4.173 4.172z" class="cls-4" data-name="Path 3913" transform="translate(-214.504 -99.034)"/><path id="Path_3914" d="M291.383 119.85a3.935 3.935 0 01-3.935-3.935v-6.591a3.935 3.935 0 117.87 0v6.591a3.935 3.935 0 01-3.935 3.935z" class="cls-4" data-name="Path 3914" transform="translate(-258.334 -103.88)"/><path id="Path_3915" d="M128.846 183.784c0-14.077-12.129-13.556-12.129-13.556h7.82a5.666 5.666 0 005.666-5.666 2.966 2.966 0 00-2.966-2.966H110.66a3.91 3.91 0 00-3.882 3.438l-1.336 10.975a3.33 3.33 0 001 2.8l7.026 6.763z" class="cls-4" data-name="Path 3915" transform="translate(-105.418 -151.097)"/></g><path id="Path_3916" d="M172.938 381.9h-25.307a.832.832 0 01-.832-.832v-5.452a.832.832 0 01.832-.832h25.307a.833.833 0 01.832.832v5.452a.832.832 0 01-.832.832z" class="cls-7" data-name="Path 3916" transform="translate(-88.082 -282.106)"/><path id="Path_3917" d="M274.007 58.141a.8.8 0 01-.8-.8.961.961 0 00-.96-.96.8.8 0 010-1.6.961.961 0 00.96-.96.8.8 0 011.6 0 .961.961 0 00.96.96.8.8 0 010 1.6.961.961 0 00-.96.96.8.8 0 01-.8.8z" class="cls-1" data-name="Path 3917" transform="translate(-192.866 -10.92)"/><path id="Path_3918" d="M59.2 213.656a.8.8 0 01-.8-.8.961.961 0 00-.96-.96.8.8 0 010-1.6.961.961 0 00.96-.96.8.8 0 011.6 0 .961.961 0 00.96.96.8.8 0 110 1.6.961.961 0 00-.96.96.8.8 0 01-.8.8z" class="cls-7" data-name="Path 3918" transform="translate(-12.181 -141.956)"/><path id="Path_3919" d="M346.794 356.922a.8.8 0 01-.8-.8.961.961 0 00-.96-.96.8.8 0 010-1.6.961.961 0 00.96-.96.8.8 0 011.6 0 .961.961 0 00.96.96.8.8 0 010 1.6.961.961 0 00-.96.96.8.8 0 01-.8.8z" class="cls-5" data-name="Path 3919" transform="translate(-254.087 -262.643)"/><path id="Path_3920" d="M212.738 43.223a.8.8 0 01-.565-1.365l1.6-1.6a.8.8 0 011.131 1.131l-1.6 1.6a.8.8 0 01-.566.234z" class="cls-5" data-name="Path 3920" transform="translate(-142.808)"/><path id="Path_3921" d="M425.444 197.738a.8.8 0 01-.565-1.365l1.6-1.6a.8.8 0 111.131 1.131l-1.6 1.6a.8.8 0 01-.566.234z" class="cls-7" data-name="Path 3921" transform="translate(-321.732 -130.152)"/><path id="Path_3922" fill="#0f0720" d="M110.127 100.1a1.874 1.874 0 00-1.343-1.521l-9.814-2.914a.8.8 0 00-.228-.033H89.52a4.722 4.722 0 00-8.132-1.445A4.962 4.962 0 0073 93.549a5.112 5.112 0 00-8.747-.252 5.1 5.1 0 00-9.375 2.333H44.529a2.376 2.376 0 00-2.385 2.362v4.708a2.376 2.376 0 002.385 2.362h8.287c-.019.1-.037.2-.049.305l-1.328 10.806a4.064 4.064 0 001.228 3.421l6.741 6.427v4.467a.795.795 0 001.59 0v-4.8a.785.785 0 00-.244-.567l-6.984-6.661a2.49 2.49 0 01-.752-2.1l1.328-10.806a3.085 3.085 0 013.07-2.693h16.477A2.146 2.146 0 0176.046 105a4.82 4.82 0 01-4.838 4.792h-7.36c-.255-.006-.413 0-.447 0a.787.787 0 00.034 1.574h.307a11.754 11.754 0 017.533 2.953c2.27 2.163 3.422 5.395 3.422 9.607a.795.795 0 001.59 0c0-4.667-1.321-8.286-3.925-10.757a11.535 11.535 0 00-2.507-1.8h1.354a6.441 6.441 0 005.526-3.12c.087 0 .174.008.262.008a4.954 4.954 0 004.093-2.157 4.729 4.729 0 006.2 1.6v5.461l-3.973 17.091v4.616h-7.48v-3.5a.795.795 0 00-1.59 0v3.5H59.61a1.617 1.617 0 00-1.622 1.607v5.368a1.614 1.614 0 001.42 1.593v3.589a.795.795 0 001.59 0v-3.575h22.315v3.575a.795.795 0 001.59 0v-3.582a1.615 1.615 0 001.485-1.6v-5.373a1.614 1.614 0 00-1.485-1.6v-4.191l3.974-17.233V106.5a.788.788 0 00-.019-.169 4.607 4.607 0 00.9-2.743V97.2h8.864l9.7 2.881a.3.3 0 01.224.223.261.261 0 01-.185.287l-9.741 2.893h-4.312a.787.787 0 100 1.575h4.435a.806.806 0 00.228-.033l9.853-2.926a1.829 1.829 0 001.3-2.006zm-50.55 36.37a.033.033 0 01.033-.032h25.156a.032.032 0 01.032.032v5.368a.032.032 0 01-.032.032H59.61a.032.032 0 01-.033-.032zm8.974-43.942A3.49 3.49 0 0172.054 96v5.293h-7.006V96a3.49 3.49 0 013.503-3.472zM43.734 102.7v-4.709a.792.792 0 01.795-.787h3.418v6.284h-3.418a.792.792 0 01-.795-.788zm9.7.787h-3.9V97.2h5.327v4.838a4.681 4.681 0 00-1.428 1.445zm3.018-2.1V96a3.5 3.5 0 017.005 0v5.293h-6.043a4.714 4.714 0 00-.961.1zm20.962 5.259a6.294 6.294 0 00.22-1.651 3.73 3.73 0 00-3.743-3.708h-.249v-4.861a3.353 3.353 0 016.705 0v6.931a3.335 3.335 0 01-2.932 3.292zm7.64.029a3.106 3.106 0 01-3.117-3.087V97.1a3.117 3.117 0 016.233 0v6.49a3.106 3.106 0 01-3.115 3.088z" data-name="Path 3922" transform="translate(0 -42.783)"/></g></svg>