<svg xmlns="http://www.w3.org/2000/svg" width="44" height="52"><defs><style>.cls-1{fill:#fff}.cls-3{fill:#ffdda4}.cls-4{fill:#4c97ff}.cls-9{fill:#d2e0f2}.cls-10{fill:#ffb53b}.cls-12{fill:#3bffd3}.cls-13{fill:#0f0720}</style></defs><g id="diagram_1_" data-name="diagram (1)" transform="translate(-66.5 -41.545)"><path id="Path_8971" d="M100.921 105.937v40.513a1.766 1.766 0 01-1.766 1.766H73.266a1.766 1.766 0 01-1.766-1.766v-40.513a1.765 1.765 0 011.766-1.764h25.89a1.765 1.765 0 011.765 1.764z" class="cls-1" data-name="Path 8971" transform="translate(-4.412 -55.259)"/><path id="Path_8972" fill="#e8e6ed" d="M282.943 326.545V337.2a5.329 5.329 0 010-10.653z" data-name="Path 8972" transform="translate(-186.81 -251.464)"/><path id="Path_8974" d="M103.832 440.042H97.17v-4.771a.353.353 0 01.353-.353h5.956a.353.353 0 01.353.353z" class="cls-3" data-name="Path 8974" transform="translate(-27.061 -347.085)"/><path id="Path_8975" d="M174.868 440.042h-6.662v-4.771a.353.353 0 01.353-.353h5.956a.353.353 0 01.353.353z" class="cls-3" data-name="Path 8975" transform="translate(-89.927 -347.085)"/><path id="Path_8976" d="M245.9 440.042h-6.662v-4.771a.353.353 0 01.353-.353h5.956a.353.353 0 01.353.353z" class="cls-3" data-name="Path 8976" transform="translate(-152.735 -347.085)"/><path id="Path_8977" d="M100.921 109.838v-3.9a1.765 1.765 0 00-1.765-1.765H73.265a1.765 1.765 0 00-1.765 1.765v3.9z" class="cls-4" data-name="Path 8977" transform="translate(-4.412 -55.255)"/><path id="Path_8978" fill="#d8e8ff" d="M218.25 257h1.883a.353.353 0 00.353-.353v-7.167a.353.353 0 00-.353-.353h-1.883a.353.353 0 00-.353.353v7.163a.353.353 0 00.353.357z" data-name="Path 8978" transform="translate(-133.835 -183.156)"/><path id="Path_8979" fill="#e9f2ff" d="M250.966 277.476h1.883a.353.353 0 00.353-.353v-4.432a.353.353 0 00-.353-.353h-1.883a.353.353 0 00-.353.353v4.432a.353.353 0 00.353.353z" data-name="Path 8979" transform="translate(-162.756 -203.636)"/><path id="Path_8980" fill="#a1c8ff" d="M185.533 241.575h1.883a.353.353 0 00.353-.353V232a.353.353 0 00-.353-.353h-1.883a.353.353 0 00-.353.353v9.219a.353.353 0 00.353.356z" data-name="Path 8980" transform="translate(-104.913 -167.736)"/><path id="Path_8981" fill="#8abbff" d="M152.817 225.229h1.883a.353.353 0 00.353-.353v-11.4a.353.353 0 00-.353-.353h-1.883a.353.353 0 00-.353.353v11.4a.353.353 0 00.353.353z" data-name="Path 8981" transform="translate(-75.992 -151.389)"/><path id="Path_8982" d="M120.1 209.808h1.883a.353.353 0 00.353-.353V196a.353.353 0 00-.353-.353H120.1a.353.353 0 00-.353.353v13.456a.353.353 0 00.353.352z" class="cls-4" data-name="Path 8982" transform="translate(-46.981 -135.968)"/><path id="Path_8983" d="M103.242 374.579h-5.484a.589.589 0 110-1.179h5.484a.589.589 0 110 1.179z" class="cls-9" data-name="Path 8983" transform="translate(-27.06 -292.806)"/><path id="Path_8984" d="M103.242 347.786h-5.484a.589.589 0 110-1.179h5.484a.589.589 0 110 1.179z" class="cls-10" data-name="Path 8984" transform="translate(-27.06 -269.166)"/><path id="Path_8985" d="M103.242 392.37h-5.484a.589.589 0 110-1.179h5.484a.589.589 0 110 1.179z" class="cls-9" data-name="Path 8985" transform="translate(-27.06 -308.503)"/><path id="Path_8986" d="M103.242 410.161h-5.484a.589.589 0 010-1.179h5.484a.589.589 0 010 1.179z" class="cls-9" data-name="Path 8986" transform="translate(-27.06 -324.201)"/><path id="Path_8987" d="M173.945 374.579h-5.484a.589.589 0 110-1.179h5.484a.589.589 0 110 1.179z" class="cls-9" data-name="Path 8987" transform="translate(-89.631 -292.806)"/><path id="Path_8988" fill="#ffd48e" d="M173.945 347.786h-5.484a.589.589 0 110-1.179h5.484a.589.589 0 110 1.179z" data-name="Path 8988" transform="translate(-89.631 -269.166)"/><path id="Path_8989" d="M173.945 392.37h-5.484a.589.589 0 110-1.179h5.484a.589.589 0 110 1.179z" class="cls-9" data-name="Path 8989" transform="translate(-89.631 -308.503)"/><path id="Path_8990" d="M173.945 410.161h-5.484a.589.589 0 110-1.179h5.484a.589.589 0 010 1.179z" class="cls-9" data-name="Path 8990" transform="translate(-89.631 -324.201)"/><path id="Path_8991" d="M244.647 374.579h-5.484a.589.589 0 110-1.179h5.484a.589.589 0 110 1.179z" class="cls-9" data-name="Path 8991" transform="translate(-152.145 -292.806)"/><path id="Path_8992" d="M244.647 347.786h-5.484a.589.589 0 110-1.179h5.484a.589.589 0 110 1.179z" class="cls-3" data-name="Path 8992" transform="translate(-152.145 -269.166)"/><path id="Path_8993" d="M244.647 392.37h-5.484a.589.589 0 110-1.179h5.484a.589.589 0 110 1.179z" class="cls-9" data-name="Path 8993" transform="translate(-152.145 -308.503)"/><path id="Path_8994" d="M244.647 410.161h-5.484a.589.589 0 110-1.179h5.484a.589.589 0 010 1.179z" class="cls-9" data-name="Path 8994" transform="translate(-152.145 -324.201)"/><circle id="Ellipse_239" cx="10.616" cy="10.616" r="10.616" class="cls-3" data-name="Ellipse 239" transform="translate(85.012 45.8)"/><path id="Path_8996" d="M333.02 60.829H319.5a.382.382 0 01-.382-.382V46.928a.384.384 0 01.4-.382A14.289 14.289 0 01333.4 60.432a.384.384 0 01-.38.397z" class="cls-10" data-name="Path 8996" transform="translate(-223.491 -4.413)"/><path id="Path_8997" d="M343.192 112.382h-.628a1.391 1.391 0 01-1.389-1.389v-1.937a1.391 1.391 0 011.389-1.389h.628a1.391 1.391 0 011.389 1.389v1.937a1.391 1.391 0 01-1.389 1.389zm-.628-3.538a.213.213 0 00-.212.212v1.937a.213.213 0 00.212.212h.628a.213.213 0 00.212-.212v-1.937a.213.213 0 00-.212-.212z" class="cls-1" data-name="Path 8997" transform="translate(-242.822 -58.342)"/><path id="Path_8998" d="M377.922 112.383a.588.588 0 01-.588-.588v-2.95h-.052a.588.588 0 010-1.177h.641a.588.588 0 01.588.588v3.538a.588.588 0 01-.589.589z" class="cls-1" data-name="Path 8998" transform="translate(-274.29 -58.343)"/><path id="Path_8999" d="M287.141 192.314h-.628a1.391 1.391 0 01-1.389-1.389v-1.937a1.391 1.391 0 011.389-1.389h.628a1.391 1.391 0 011.389 1.389v1.937a1.391 1.391 0 01-1.389 1.389zm-.628-3.539a.213.213 0 00-.212.212v1.937a.213.213 0 00.212.212h.628a.213.213 0 00.212-.212v-1.937a.213.213 0 00-.212-.212z" class="cls-10" data-name="Path 8999" transform="translate(-193.271 -128.868)"/><path id="Path_9000" d="M323.362 192.264h-2.132a.588.588 0 01-.368-1.047 7.352 7.352 0 001.7-1.793.531.531 0 00-.029-.492.345.345 0 00-.3-.155.406.406 0 00-.405.405.588.588 0 11-1.177 0 1.584 1.584 0 011.582-1.582 1.517 1.517 0 011.283.678 1.7 1.7 0 01.138 1.6 4.413 4.413 0 01-.894 1.214h.611a.588.588 0 010 1.177z" class="cls-10" data-name="Path 9000" transform="translate(-224.669 -128.869)"/><circle id="Ellipse_240" cx="5.33" cy="5.33" r="5.33" class="cls-12" data-name="Ellipse 240" transform="translate(90.927 73.743)"/><g id="Group_3983" data-name="Group 3983" transform="translate(66.5 41.545)"><path id="Path_9001" d="M105.174 123.185a.588.588 0 00-.588.588v.017a.588.588 0 101.177 0v-.017a.588.588 0 00-.589-.588z" class="cls-13" data-name="Path 9001" transform="translate(-100.104 -113.578)"/><path id="Path_9002" d="M124.5 123.185a.588.588 0 00-.588.588v.017a.588.588 0 101.177 0v-.017a.588.588 0 00-.589-.588z" class="cls-13" data-name="Path 9002" transform="translate(-117.157 -113.578)"/><path id="Path_9003" d="M143.828 123.185a.588.588 0 00-.588.588v.017a.588.588 0 101.177 0v-.017a.588.588 0 00-.589-.588z" class="cls-13" data-name="Path 9003" transform="translate(-134.334 -113.578)"/><path id="Path_9004" d="M96.235 41.545a.952.952 0 00-.7.276.968.968 0 00-.289.694v2.715a10.909 10.909 0 00-7.069 3.1c-.018 0-.036-.006-.055-.006h-19.3a2.341 2.341 0 00-2.322 2.355v3.9a.584.584 0 00.58.588h17.763a11.509 11.509 0 00-.07 1.245 11.148 11.148 0 0010.754 11.2v5.591a5.927 5.927 0 000 11.732v6.252a1.17 1.17 0 01-1.161 1.177H68.822a1.17 1.17 0 01-1.161-1.177V57.824a.581.581 0 10-1.161 0v33.367a2.341 2.341 0 002.322 2.354h25.544a2.341 2.341 0 002.322-2.354v-6.215a5.922 5.922 0 000-11.806v-5.583A11.152 11.152 0 00106.867 57h2.675a.942.942 0 00.685-.293.99.99 0 00.273-.707 14.773 14.773 0 00-14.265-14.455zM67.661 53.994v-3.315a1.17 1.17 0 011.161-1.179H87.13a11.172 11.172 0 00-2.1 4.492zm33.306 25.079a4.678 4.678 0 11-4.678-4.741 4.715 4.715 0 014.678 4.741zm5.333-23.245a.584.584 0 00-.58.588 9.894 9.894 0 11-16.983-6.994 9.776 9.776 0 016.509-3.014v9.626A.965.965 0 0096.2 57h6.9a.588.588 0 000-1.177h-6.692v-13.1a13.6 13.6 0 0112.924 13.1z" class="cls-13" data-name="Path 9004" transform="translate(-66.5 -41.545)"/></g><path id="Path_9005" d="M310.4 337.6a3.339 3.339 0 00-3.908 2.731.588.588 0 001.177 0 .777.777 0 011.554 0 .588.588 0 001.177 0 1.947 1.947 0 010-2.731zm-1.954-.777a.777.777 0 11-.777.777.778.778 0 01.776-.78z" class="cls-1" data-name="Path 9005" transform="translate(-212.166 -259.492)"/><path id="Path_9006" d="M399.256 250.283a.586.586 0 01-.416-.172l-1.292-1.292a.588.588 0 010-.832l1.292-1.292a.588.588 0 01.832 0l1.292 1.292a.588.588 0 010 .832l-1.292 1.292a.586.586 0 01-.416.172zm-.46-1.881l.46.46.46-.46-.46-.46z" class="cls-12" data-name="Path 9006" transform="translate(-292.538 -180.857)"/><path id="Path_9007" d="M230.913 48.181a.586.586 0 01-.416-.172l-1.297-1.293a.588.588 0 010-.832l1.292-1.293a.588.588 0 01.832 0l1.292 1.293a.588.588 0 010 .832l-1.292 1.292a.586.586 0 01-.416.172zm-.46-1.881l.46.46.46-.46-.46-.461z" class="cls-10" data-name="Path 9007" transform="translate(-143.687 -2.536)"/><path id="Path_9008" d="M370.558 290.493a.588.588 0 01-.588-.588.709.709 0 00-.708-.708.588.588 0 110-1.177.709.709 0 00.708-.708.588.588 0 011.177 0 .709.709 0 00.708.708.588.588 0 110 1.177.709.709 0 00-.708.708.588.588 0 01-.589.588z" class="cls-4" data-name="Path 9008" transform="translate(-267.213 -216.328)"/><path id="Path_9009" d="M350.094 422.668a.588.588 0 01-.588-.588.709.709 0 00-.708-.708.588.588 0 010-1.177.709.709 0 00.708-.708.588.588 0 011.177 0 .709.709 0 00.708.708.588.588 0 110 1.177.709.709 0 00-.708.708.588.588 0 01-.589.588z" class="cls-10" data-name="Path 9009" transform="translate(-249.045 -332.95)"/></g></svg>