<svg xmlns="http://www.w3.org/2000/svg" width="66" height="74"><defs><style>.cls-5{fill:#4c97ff}.cls-2{fill:#fff}.cls-4{fill:#3bffd3}.cls-6{fill:#d2e0f2}.cls-9{fill:#ffb53b}.cls-11{fill:#ffc4df}</style></defs><g id="target" transform="translate(-28.654)"><path id="Path_8767" fill="#4c97ff" d="M158.3.062c-13.9 1.25-15.241 27.812-21.234 41.421-2.97 6.744-9.973 13.7-8.739 21.648C129.724 72.1 138.9 74.7 145.978 73.846c17.508-2.122 25.074-20.387 26.22-37.694.702-10.67 2.944-37.606-13.898-36.09z" data-name="Path 8767" opacity=".1" transform="translate(-85.039)"/><path id="Path_8769" d="M120.9 36.824v58.132a3.039 3.039 0 01-3.045 3.034H88.027a3.039 3.039 0 01-3.045-3.034V36.824a3.039 3.039 0 013.045-3.034h29.823a3.039 3.039 0 013.05 3.034z" class="cls-2" data-name="Path 8769" transform="translate(-48.159 -28.889)"/><path id="Path_8771" fill="#6583fe" d="M120.9 41.649v-4.817a3.045 3.045 0 00-3.045-3.045H88.028a3.045 3.045 0 00-3.045 3.045v4.817z" data-name="Path 8771" transform="translate(-48.16 -28.887)"/><g id="Group_3977" data-name="Group 3977" transform="translate(41.05 8.178)"><circle id="Ellipse_223" cx=".811" cy=".811" r=".811" class="cls-2" data-name="Ellipse 223"/><circle id="Ellipse_224" cx=".811" cy=".811" r=".811" class="cls-2" data-name="Ellipse 224" transform="translate(2.887)"/><circle id="Ellipse_225" cx=".811" cy=".811" r=".811" class="cls-2" data-name="Ellipse 225" transform="translate(5.775)"/></g><path id="Path_8774" d="M134.882 372.65h-22.316a.725.725 0 01-.725-.725v-6.581a.725.725 0 01.725-.725h22.316a.725.725 0 01.725.725v6.581a.725.725 0 01-.725.725z" class="cls-4" data-name="Path 8774" transform="translate(-71.106 -311.941)"/><path id="Path_8775" d="M368.713 178.094h-12.885l6.537-6.451a1.45 1.45 0 011.019-.418h8.756a1.45 1.45 0 011.019 2.483z" class="cls-5" data-name="Path 8775" transform="translate(-279.667 -146.486)"/><path id="Path_8776" d="M385.6 191.2a.725.725 0 01-.509-1.241l3.409-3.359a.725.725 0 011.018 1.032l-3.408 3.363a.722.722 0 01-.51.205z" class="cls-6" data-name="Path 8776" transform="translate(-304.504 -159.455)"/><path id="Path_8777" d="M412.8 191.2a.725.725 0 01-.509-1.241l3.409-3.359a.725.725 0 011.018 1.032l-3.408 3.363a.722.722 0 01-.51.205z" class="cls-6" data-name="Path 8777" transform="translate(-327.758 -159.455)"/><path id="Path_8778" d="M372.136 240.968h-8.755a1.449 1.449 0 01-1.02-.418l-4.544-4.483-1.994-1.968h12.885l1.994 1.968 2.452 2.419a1.45 1.45 0 01-1.02 2.481z" class="cls-5" data-name="Path 8778" transform="translate(-279.664 -200.277)"/><path id="Path_8780" d="M389.01 237.927a.722.722 0 01-.509-.209l-3.408-3.363a.725.725 0 111.018-1.032l3.408 3.363a.725.725 0 01-.509 1.241z" class="cls-6" data-name="Path 8780" transform="translate(-304.504 -199.43)"/><path id="Path_8781" d="M416.209 237.927a.722.722 0 01-.509-.209l-3.408-3.363a.725.725 0 011.018-1.032l3.408 3.363a.725.725 0 01-.509 1.241z" class="cls-6" data-name="Path 8781" transform="translate(-327.758 -199.43)"/><ellipse id="Ellipse_226" cx="14.08" cy="14.662" fill="#ffdda4" data-name="Ellipse 226" rx="14.08" ry="14.662" transform="translate(41.037 18.062)"/><ellipse id="Ellipse_227" cx="8.532" cy="9.441" fill="#ffedce" data-name="Ellipse 227" rx="8.532" ry="9.441" transform="translate(46.588 23.278)"/><path id="Path_8784" d="M193.405 205.685c-1.409 0-2.984-1.8-2.984-4.22s1.576-4.22 2.984-4.22 2.984 1.8 2.984 4.22-1.575 4.22-2.984 4.22z" class="cls-9" data-name="Path 8784" transform="translate(-138.284 -168.748)"/><path id="Path_8786" d="M245.389 218.711H211v-3.119h34.389a1.559 1.559 0 010 3.119z" class="cls-5" data-name="Path 8786" transform="translate(-155.842 -184.437)"/><path id="Path_8787" d="M140.421 381.364h-14.578a.725.725 0 110-1.45h14.578a.725.725 0 110 1.45z" class="cls-2" data-name="Path 8787" transform="translate(-82.458 -325.008)"/><path id="Path_8788" d="M140.421 399.154h-14.578a.725.725 0 110-1.45h14.578a.725.725 0 110 1.45z" class="cls-2" data-name="Path 8788" transform="translate(-82.458 -340.227)"/><path id="Path_8790" d="M255.294 355.416h-.727a1.655 1.655 0 01-1.653-1.653v-2.245a1.655 1.655 0 011.653-1.653h.727a1.655 1.655 0 011.653 1.653v2.245a1.655 1.655 0 01-1.653 1.653zm-.727-4.1a.2.2 0 00-.2.2v2.245a.2.2 0 00.2.2h.727a.2.2 0 00.2-.2v-2.245a.2.2 0 00-.2-.2z" class="cls-5" data-name="Path 8790" transform="translate(-191.705 -299.311)"/><path id="Path_8791" d="M287.787 355.416a.725.725 0 01-.725-.725v-3.377h-.018a.725.725 0 110-1.45h.743a.725.725 0 01.725.725v4.1a.725.725 0 01-.725.727z" class="cls-5" data-name="Path 8791" transform="translate(-220.263 -299.311)"/><path id="Path_8792" fill="#0f0720" d="M134.724 59.2a2.266 2.266 0 000-3.743l3.161-3.1a2.166 2.166 0 00-1.529-3.71h-8.765a2.17 2.17 0 00-1.53.625l-5.891 5.785h-2.787V32.543a3.77 3.77 0 00-3.774-3.756H83.757a3.77 3.77 0 00-3.774 3.756V78.99a.726.726 0 001.452 0V38.064h34.5v16.988h-16.2v-1.928a.726.726 0 00-1.452 0v8.408a.726.726 0 001.452 0V56.5h33.7a.831.831 0 110 1.662h-30.4a.722.722 0 100 1.445h12.907v31.074a2.32 2.32 0 01-2.323 2.311H83.757a2.32 2.32 0 01-2.323-2.311v-7.632a.726.726 0 00-1.452 0v7.632a3.77 3.77 0 003.774 3.756h29.854a3.77 3.77 0 003.774-3.756V59.6h2.787l5.891 5.785a2.171 2.171 0 001.53.625h8.765a2.166 2.166 0 001.529-3.71zM81.435 36.619v-4.076a2.32 2.32 0 012.323-2.312h29.852a2.32 2.32 0 012.323 2.312v4.076zM127.081 50.3a.723.723 0 01.51-.208h8.765a.722.722 0 01.51 1.237l-3.8 3.728h-10.828zm9.946 13.825a.711.711 0 01-.671.448h-8.765a.724.724 0 01-.51-.208l-4.844-4.765h10.832l3.8 3.728a.705.705 0 01.158.792z" data-name="Path 8792" transform="translate(-43.885 -24.612)"/><path id="Path_8793" d="M206.725 122.651a.725.725 0 01-.725-.725v-8.008a.725.725 0 111.45 0v8.008a.725.725 0 01-.725.725z" class="cls-11" data-name="Path 8793" transform="translate(-151.603 -96.841)"/><path id="Path_8794" d="M206.725 283.734a.725.725 0 01-.725-.725V275a.725.725 0 111.45 0v8.008a.725.725 0 01-.725.726z" class="cls-11" data-name="Path 8794" transform="translate(-151.603 -234.654)"/><path id="Path_8795" d="M274.968 182.41a.725.725 0 01-.725-.725v-.508a.725.725 0 011.45 0v.508a.725.725 0 01-.725.725z" class="cls-5" data-name="Path 8795" transform="translate(-209.94 -154.373)"/><path id="Path_8796" d="M253.116 155.325a.725.725 0 01-.725-.725v-.508a.725.725 0 111.45 0v.508a.725.725 0 01-.725.725z" class="cls-9" data-name="Path 8796" transform="translate(-191.26 -131.203)"/><path id="Path_8797" d="M274.968 260.327a.725.725 0 01-.725-.725v-.508a.725.725 0 011.45 0v.508a.725.725 0 01-.725.725z" class="cls-5" data-name="Path 8797" transform="translate(-209.94 -221.03)"/><path id="Path_8798" d="M253.116 287.411a.725.725 0 01-.725-.725v-.508a.725.725 0 011.45 0v.508a.725.725 0 01-.725.725z" class="cls-9" data-name="Path 8798" transform="translate(-191.26 -244.2)"/><path id="Path_8799" d="M138.485 182.41a.725.725 0 01-.725-.725v-.508a.725.725 0 011.45 0v.508a.725.725 0 01-.725.725z" class="cls-5" data-name="Path 8799" transform="translate(-93.269 -154.373)"/><path id="Path_8800" d="M160.337 155.325a.725.725 0 01-.725-.725v-.508a.725.725 0 011.45 0v.508a.725.725 0 01-.725.725z" class="cls-9" data-name="Path 8800" transform="translate(-111.949 -131.203)"/><path id="Path_8801" d="M138.485 260.327a.725.725 0 01-.725-.725v-.508a.725.725 0 011.45 0v.508a.725.725 0 01-.725.725z" class="cls-5" data-name="Path 8801" transform="translate(-93.269 -221.03)"/><path id="Path_8802" d="M160.337 287.411a.725.725 0 01-.725-.725v-.508a.725.725 0 011.45 0v.508a.725.725 0 01-.725.725z" class="cls-9" data-name="Path 8802" transform="translate(-111.949 -244.2)"/><path id="Path_8803" d="M425.7 361.264h-.471v-.471a.725.725 0 10-1.45 0v.471h-.471a.725.725 0 000 1.45h.471v.471a.725.725 0 101.45 0v-.471h.471a.725.725 0 000-1.45z" class="cls-4" data-name="Path 8803" transform="translate(-336.744 -308.036)"/><path id="Path_8804" d="M350.023 27.409h-.471v-.471a.725.725 0 00-1.45 0v.471h-.471a.725.725 0 000 1.45h.471v.471a.725.725 0 001.45 0v-.47h.471a.725.725 0 000-1.45z" class="cls-9" data-name="Path 8804" transform="translate(-272.053 -22.411)"/><path id="Path_8805" d="M31.772 410.819H31.3v-.471a.725.725 0 00-1.45 0v.471h-.471a.725.725 0 000 1.45h.471v.471a.725.725 0 101.45 0v-.471h.471a.725.725 0 100-1.45z" class="cls-9" data-name="Path 8805" transform="translate(0 -350.47)"/><path id="Path_8806" d="M378.666 328.49a2.118 2.118 0 11.626-4.141 2.118 2.118 0 01-.626 4.141zm0-2.786a.669.669 0 10.2.03.669.669 0 00-.202-.034z" class="cls-5" data-name="Path 8806" transform="translate(-297.39 -277.399)"/><path id="Path_8807" d="M37.662 371.621a2.118 2.118 0 112.023-1.489 2.111 2.111 0 01-2.023 1.489zm0-2.785a.667.667 0 10.2.03.669.669 0 00-.198-.031zm1.329 1.081z" class="cls-5" data-name="Path 8807" transform="translate(-5.891 -314.296)"/></g></svg>