<svg xmlns="http://www.w3.org/2000/svg" width="89.865" height="73.889"><defs><style>.cls-2{fill:#4c97ff}.cls-7{fill:#ffdda4}.cls-8{fill:#ffb53b}.cls-11{fill:#3bffd3}.cls-12{fill:#0f0720}</style></defs><g id="mass-rapid-transit" transform="translate(0 -45.512)"><path id="Path_8639" fill="#4c97ff" d="M84.77 117.938a18.111 18.111 0 00-22.788-2.611 8.941 8.941 0 01-6.8 1.216 23.5 23.5 0 00-16.272 2.289 9.97 9.97 0 01-10.457-.672 18.1 18.1 0 10-6.431 32.54 9.984 9.984 0 019.885 3.471 23.443 23.443 0 0037.818-1.957l.022-.034a8.834 8.834 0 015.638-3.882 18.107 18.107 0 009.385-30.36z" data-name="Path 8639" opacity=".1" transform="translate(0 -55.188)"/><path id="Path_8641" d="M219.2 387.37h-19.911l3.981-15.78h11.945z" class="cls-2" data-name="Path 8641" transform="translate(-164.31 -268.846)"/><path id="Path_8643" fill="#fff" d="M126.207 107.174V151.8a2.634 2.634 0 01-2.633 2.633H58.633A2.634 2.634 0 0156 151.8v-44.626a2.634 2.634 0 012.633-2.633h64.942a2.634 2.634 0 012.632 2.633z" data-name="Path 8643" transform="translate(-46.171 -48.668)"/><path id="Path_8645" fill="#448ef5" d="M224.863 312.726a5.465 5.465 0 0110.93 0z" data-name="Path 8645" transform="translate(-185.396 -215.807)"/><path id="Path_8646" d="M126.207 113v-5.822a2.633 2.633 0 00-2.633-2.633H58.633A2.633 2.633 0 0056 107.174V113z" class="cls-2" data-name="Path 8646" transform="translate(-46.171 -48.668)"/><path id="Path_8647" fill="#d2e0f2" d="M56 338.4v6.212a2.633 2.633 0 002.633 2.633h64.942a2.633 2.633 0 002.633-2.633V338.4z" data-name="Path 8647" transform="translate(-46.171 -241.479)"/><path id="Path_8648" fill="#ff9f00" d="M174.918 242.5a14.811 14.811 0 00-29.622 0h-5.6a20.414 20.414 0 0140.828 0z" data-name="Path 8648" transform="translate(-115.174 -145.586)"/><path id="Path_8649" d="M160.107 227.694A14.811 14.811 0 00145.3 242.5h-5.6a20.414 20.414 0 0120.414-20.414z" class="cls-7" data-name="Path 8649" transform="translate(-115.174 -145.586)"/><path id="Path_8650" d="M271.245 228.93l-3.97 3.97A14.77 14.77 0 00256 227.691v-5.6a20.353 20.353 0 0115.245 6.839z" class="cls-8" data-name="Path 8650" transform="translate(-211.067 -145.584)"/><path id="Path_8651" fill="#ffc76a" d="M184.385 222.088v5.6a14.77 14.77 0 00-11.275 5.212l-3.97-3.97a20.353 20.353 0 0115.245-6.842z" data-name="Path 8651" transform="translate(-139.453 -145.584)"/><path id="Path_8652" fill="#98c3ff" d="M257.037 280.382l-.024-.017.281-.412a.878.878 0 10-1.451-.988l-.281.412-.024-.016a.878.878 0 00-.988 1.451l.024.016-3.422 5.026a.878.878 0 101.451.988l3.422-5.026.024.017a.878.878 0 00.988-1.451z" data-name="Path 8652" transform="translate(-206.945 -192.162)"/><path id="Path_8653" d="M101.837 174.349H90.15a.9.9 0 110-1.8h11.687a.9.9 0 010 1.8z" class="cls-2" data-name="Path 8653" transform="translate(-73.586 -104.741)"/><path id="Path_8654" d="M113.519 193.349h-5.369a.9.9 0 110-1.8h5.368a.9.9 0 110 1.8z" class="cls-11" data-name="Path 8654" transform="translate(-88.427 -120.407)"/><path id="Path_8655" d="M358.5 174.349h-11.684a.9.9 0 110-1.8H358.5a.9.9 0 010 1.8z" class="cls-2" data-name="Path 8655" transform="translate(-285.202 -104.741)"/><path id="Path_8656" d="M370.185 193.349h-5.368a.9.9 0 010-1.8h5.368a.9.9 0 010 1.8z" class="cls-11" data-name="Path 8656" transform="translate(-300.043 -120.407)"/><path id="Path_8657" d="M120.75 226.651h-2.4a.527.527 0 01-.527-.527v-4.3a.527.527 0 01.527-.527h2.4a.527.527 0 01.527.527v4.3a.527.527 0 01-.527.527z" class="cls-7" data-name="Path 8657" transform="translate(-97.14 -144.932)"/><path id="Path_8658" d="M377.417 226.651h-2.4a.527.527 0 01-.527-.527v-4.3a.527.527 0 01.527-.527h2.4a.527.527 0 01.527.527v4.3a.527.527 0 01-.527.527z" class="cls-7" data-name="Path 8658" transform="translate(-308.758 -144.932)"/><circle id="Ellipse_216" cx=".981" cy=".981" r=".981" class="cls-11" data-name="Ellipse 216" transform="translate(46.919 71.062)"/><circle id="Ellipse_217" cx=".981" cy=".981" r=".981" class="cls-11" data-name="Ellipse 217" transform="translate(43.951 71.062)"/><circle id="Ellipse_218" cx=".981" cy=".981" r=".981" class="cls-11" data-name="Ellipse 218" transform="translate(40.983 71.062)"/><path id="Path_8659" d="M111.218 427.9a.875.875 0 01-.621-.257l-1.934-1.934a.878.878 0 010-1.241l1.934-1.934a.878.878 0 011.241 0l1.934 1.934a.878.878 0 010 1.241l-1.934 1.934a.875.875 0 01-.62.257zm-.693-2.811l.693.693.693-.693-.693-.693z" class="cls-2" data-name="Path 8659" transform="translate(-89.38 -310.637)"/><path id="Path_8660" d="M331.93 63.106a.878.878 0 01-.878-.878A1.058 1.058 0 00330 61.172a.878.878 0 110-1.755 1.058 1.058 0 001.056-1.056.878.878 0 111.755 0 1.058 1.058 0 001.056 1.056.878.878 0 110 1.755 1.058 1.058 0 00-1.056 1.056.878.878 0 01-.881.878z" class="cls-11" data-name="Path 8660" transform="translate(-271.353 -9.87)"/><path id="Path_8661" d="M348.793 412.082a.878.878 0 01-.878-.878 1.058 1.058 0 00-1.056-1.056.878.878 0 010-1.755 1.058 1.058 0 001.056-1.056.878.878 0 011.755 0 1.058 1.058 0 001.056 1.056.878.878 0 110 1.755 1.058 1.058 0 00-1.056 1.056.878.878 0 01-.877.878z" class="cls-8" data-name="Path 8661" transform="translate(-285.256 -297.594)"/><path id="Path_8662" d="M389.27 51.135a.875.875 0 01-.621-.257l-1.934-1.934a.877.877 0 010-1.241l1.934-1.934a.878.878 0 011.241 0l1.934 1.934a.877.877 0 010 1.241l-1.934 1.934a.875.875 0 01-.62.257zm-.693-2.811l.693.693.693-.693-.693-.693z" class="cls-2" data-name="Path 8662" transform="translate(-318.628)"/><g id="Group_3975" data-name="Group 3975" transform="translate(8.951 54.995)"><path id="Path_8663" d="M89.96 123.554a.878.878 0 00-.878.878v.026a.878.878 0 001.755 0v-.026a.878.878 0 00-.877-.878z" class="cls-12" data-name="Path 8663" transform="translate(-82.398 -119.339)"/><path id="Path_8664" d="M109.285 123.554a.878.878 0 00-.878.878v.026a.878.878 0 001.755 0v-.026a.878.878 0 00-.877-.878z" class="cls-12" data-name="Path 8664" transform="translate(-98.331 -119.339)"/><path id="Path_8665" d="M128.609 123.554a.878.878 0 00-.878.878v.026a.878.878 0 001.755 0v-.026a.877.877 0 00-.877-.878z" class="cls-12" data-name="Path 8665" transform="translate(-114.263 -119.339)"/><path id="Path_8666" d="M119.452 99.54H54.51a3.514 3.514 0 00-3.51 3.51v44.625a3.514 3.514 0 003.51 3.51h24.61l-2.777 11.005h-2.69a.878.878 0 000 1.755h26.656a.878.878 0 000-1.755h-2.691l-2.776-11.005h24.61a3.514 3.514 0 003.51-3.51v-6.212a.878.878 0 00-.878-.878H52.755V109.75h68.452v26.88a.878.878 0 101.755 0v-33.58a3.514 3.514 0 00-3.51-3.51zm-23.644 62.651H78.154l2.777-11.005h12.1zm25.4-19.849v5.334a1.757 1.757 0 01-1.755 1.755H54.51a1.757 1.757 0 01-1.755-1.755v-5.334zM52.755 108v-4.95a1.757 1.757 0 011.755-1.75h64.942a1.757 1.757 0 011.755 1.755V108H52.755z" class="cls-12" data-name="Path 8666" transform="translate(-51 -99.54)"/></g></g></svg>