<svg xmlns="http://www.w3.org/2000/svg" xmlns:xlink="http://www.w3.org/1999/xlink" width="14.083" height="14.083" viewBox="0 0 14.083 14.083">
  <defs>
    <clipPath id="clip-path">
      <path id="Контур_9335" data-name="Контур 9335" d="M0,0H14.083V14.083H0Z" fill="none"/>
    </clipPath>
  </defs>
  <g id="US" clip-path="url(#clip-path)">
    <path id="Контур_9329" data-name="Контур 9329" d="M7.042,14.083A7.042,7.042,0,1,0,0,7.042,7.042,7.042,0,0,0,7.042,14.083Z" fill="#f0f0f0"/>
    <g id="Сгруппировать_4186" data-name="Сгруппировать 4186" transform="translate(0.243 1.53)">
      <path id="Контур_9330" data-name="Контур 9330" d="M17.218,15.141h7.348a7.048,7.048,0,0,0-.243-1.837H17.218Z" transform="translate(-10.725 -9.63)" fill="#d80027"/>
      <path id="Контур_9331" data-name="Контур 9331" d="M17.218,5.749h6.314a7.078,7.078,0,0,0-1.625-1.837H17.218Z" transform="translate(-10.725 -3.912)" fill="#d80027"/>
      <path id="Контур_9332" data-name="Контур 9332" d="M11.178,33.617a7.011,7.011,0,0,0,4.383-1.531H6.8A7.011,7.011,0,0,0,11.178,33.617Z" transform="translate(-4.379 -21.065)" fill="#d80027"/>
      <path id="Контур_9333" data-name="Контур 9333" d="M1.411,24.531H13.427a7,7,0,0,0,.791-1.837H.62A7,7,0,0,0,1.411,24.531Z" transform="translate(-0.62 -15.347)" fill="#d80027"/>
    </g>
    <path id="Контур_9334" data-name="Контур 9334" d="M3.262,1.1H3.9l-.6.434.228.7-.6-.434-.6.434.2-.606A7.08,7.08,0,0,0,1.172,3.151h.206L1,3.427q-.089.148-.17.3l.181.558L.67,4.04q-.126.267-.23.547l.2.615h.738l-.6.434.228.7L.412,5.9l-.358.26A7.109,7.109,0,0,0,0,7.042H7.042V0A7.008,7.008,0,0,0,3.262,1.1Zm.273,5.238-.6-.434-.6.434.228-.7-.6-.434H2.71l.228-.7.228.7H3.9l-.6.434ZM3.307,3.584l.228.7-.6-.434-.6.434.228-.7-.6-.434H2.71l.228-.7.228.7H3.9ZM6.06,6.337l-.6-.434-.6.434.228-.7L4.5,5.2h.738l.228-.7.228.7h.738l-.6.434ZM5.832,3.584l.228.7-.6-.434-.6.434.228-.7-.6-.434h.738l.228-.7.228.7h.738Zm0-2.051.228.7-.6-.434-.6.434.228-.7L4.5,1.1h.738L5.463.4l.228.7h.738Z" transform="translate(0)" fill="#0052b4"/>
  </g>
</svg>
