<svg xmlns="http://www.w3.org/2000/svg" width="14.867" height="14.866" viewBox="0 0 14.867 14.866">
  <g id="Europe" transform="translate(-15902.871 -11691.567)">
    <circle id="Эллипс_297" data-name="Эллипс 297" cx="7.433" cy="7.433" r="7.433" transform="translate(15902.871 11691.566)" fill="#448ef5"/>
    <circle id="Эллипс_298" data-name="Эллипс 298" cx="7.433" cy="7.433" r="7.433" transform="translate(15902.871 11691.566)" fill="#448ef5"/>
    <circle id="Эллипс_299" data-name="Эллипс 299" cx="7.433" cy="7.433" r="7.433" transform="translate(15902.871 11691.566)" fill="#448ef5"/>
    <circle id="Эллипс_300" data-name="Эллипс 300" cx="7.433" cy="7.433" r="7.433" transform="translate(15902.871 11691.566)" fill="#448ef5"/>
    <path id="Контур_9396" data-name="Контур 9396" d="M49.5,15.371a.91.91,0,1,0-1.351.8,4.333,4.333,0,0,0,.44.972,4.331,4.331,0,0,0,.441-.972A.91.91,0,0,0,49.5,15.371Z" transform="translate(15860.677 11678.624)" fill="#6c54ff"/>
    <path id="Контур_9397" data-name="Контур 9397" d="M53.026,20.756h-.231a.209.209,0,0,1,0-.418h.231a.209.209,0,0,1,0,.418Z" transform="translate(15856.355 11673.448)" fill="#fee55a"/>
    <path id="Контур_9398" data-name="Контур 9398" d="M22.584,18.889l-.908-.811,2.254-.62A7.43,7.43,0,0,0,20.661,6.224l-.573.487-.1,1-1.489.4-.733-.067c0,.023,0,.046,0,.07a.91.91,0,0,1-.469.8,4.331,4.331,0,0,1-.441.972,4.333,4.333,0,0,1-.44-.972.913.913,0,0,1-.355-.358l-1.449,1.449H13.8l.941.941-.641.642H12.422l-.779,1.446,1.035,1.035h1.01l1.459-.394V12.654l.56-.56h.95l.316-.316,1.681,1.88.372-1.195-.839-.839.6-.6,1.331,1.331v.676l1.258,1.257v-1.2h.839l.667.941h.056l.627,2.155L21.1,17.319l-4.455-.491-1.361-1.362-2.247.885L11.888,17.5a7.43,7.43,0,0,0,10.7,1.39Z" transform="translate(15892.409 11685.877)" fill="#3bffd3"/>
  </g>
</svg>
