<svg xmlns="http://www.w3.org/2000/svg" width="14.222" height="14.222" viewBox="0 0 14.222 14.222">
  <g id="CA" transform="translate(-0.002)">
    <circle id="Эллипс_296" data-name="Эллипс 296" cx="7.11" cy="7.11" r="7.11" transform="translate(0.003 0.001)" fill="#fff"/>
    <path id="Контур_9372" data-name="Контур 9372" d="M0,36.057a7.107,7.107,0,0,0,3.655,6.214V29.842A7.108,7.108,0,0,0,0,36.057Z" transform="translate(0 -28.946)" fill="#d32027"/>
    <path id="Контур_9373" data-name="Контур 9373" d="M229.057,473.543c-.082,0-.161,0-.241,0Q228.936,473.543,229.057,473.543Z" transform="translate(-221.944 -459.322)" fill="#fff"/>
    <path id="Контур_9374" data-name="Контур 9374" d="M236.63,0h0c3.927,0,3.927,14.221,0,14.221a7.077,7.077,0,0,0,3.45-.893V.893A7.077,7.077,0,0,0,236.63,0Z" transform="translate(-229.518 0)" fill="#e7e7e7"/>
    <path id="Контур_9375" data-name="Контур 9375" d="M351.734,29.737V42.172a7.11,7.11,0,0,0,0-12.435Z" transform="translate(-341.172 -28.844)" fill="#b52025"/>
    <path id="Контур_9376" data-name="Контур 9376" d="M125.2,0H125.2a7.078,7.078,0,0,0-3.449.9V13.325a7.071,7.071,0,0,0,3.214.892c.08,0,.159,0,.241,0C129.13,14.221,129.13,0,125.2,0Z" transform="translate(-118.091 0)" fill="#f3f1f2"/>
    <path id="Контур_9377" data-name="Контур 9377" d="M150.1,133.97c-.1-.093-.3-.083-.334-.238a1.45,1.45,0,0,1,.239-.858c-.56.131-1,.347-1-.286-.322.393-.667.787-.81.715-.2-.119.195-1.131.238-1.669-.2.09-.572.286-.572.286s-.342-.668-.523-1v0c-.181.33-.523,1-.523,1s-.376-.2-.572-.286c.043.537.441,1.549.238,1.669-.143.072-.489-.322-.81-.715,0,.633-.441.417-1,.286a1.448,1.448,0,0,1,.238.858c-.035.155-.236.145-.334.238.65.65,1.776,1.132,1.24,1.669l1.447-.135a7.6,7.6,0,0,0,.027,1.422h.1a7.394,7.394,0,0,0,.028-1.422l1.446.135C148.325,135.1,149.452,134.619,150.1,133.97Z" transform="translate(-140.23 -126.987)" fill="#d32027"/>
  </g>
</svg>
