<svg xmlns="http://www.w3.org/2000/svg" width="14.189" height="14.186" viewBox="0 0 14.189 14.186">
  <g id="worldwide" transform="translate(0 -0.066)">
    <g id="Сгруппировать_4200" data-name="Сгруппировать 4200" transform="translate(0.552 0.58)">
      <path id="Контур_9391" data-name="Контур 9391" d="M286.869,28.361l-.734.489-1.223-.245-.734-.245-.979.245-.734-.245.489-.979h.979l.959-.48A7.007,7.007,0,0,1,286.869,28.361Z" transform="translate(-275.189 -26.673)" fill="#3bffd3"/>
      <path id="Контур_9392" data-name="Контур 9392" d="M25.969,19.314l-.245.734-.734.245-.734,1.223-1.223.734-1.713.245v.734l.489.489V24.7l-.734-.489-.734-.489-.426-1.28a7.091,7.091,0,0,1,3.89-3.834l.695.465Z" transform="translate(-19.916 -18.604)" fill="#3bffd3"/>
      <path id="Контур_9393" data-name="Контур 9393" d="M75.728,214.143l-.245,1.223-.979.979v.734l-.979.734v1.223l-.734-.245-.489-1.223v-2.447l-1.223-.245-.489-.979v-.734l.489-.489.734-.734.489.979h1.713l.734,1.223Z" transform="translate(-69.186 -206.583)" fill="#3bffd3"/>
      <path id="Контур_9394" data-name="Контур 9394" d="M279.34,115.278a7.088,7.088,0,0,1-.391,7.553l-.661-.661v-.979l-.489-.979-.489-.979v-.979l-.734-.489-.979.245-1.713-.734-.245-1.713.734-.734h1.468l.489.734,1.468.245,1.468-.489Z" transform="translate(-266.607 -112.163)" fill="#3bffd3"/>
    </g>
    <path id="Контур_9395" data-name="Контур 9395" d="M8.562,2.513l.979-.245.734.245,1.223.245.734-.489a6.987,6.987,0,0,1,1.052,1.426l-.073.042-1.468.489-1.468-.245-.489-.734H8.318l-.734.734.245,1.713,1.713.734.979-.245.734.489v.979l.489.979.489.979v.979l.661.661A7.1,7.1,0,0,1,.552,4.414l.426,1.28.734.489.734.489-.489.489V7.9l.489.979,1.223.245v2.447l.489,1.223.734.245V11.81l.979-.734v-.734l.979-.979L7.094,8.14H6.116L5.382,6.917H3.669L3.18,5.938l-.734.734V5.694L1.956,5.2V4.47l1.713-.245,1.223-.734.734-1.223.734-.245.245-.734L5.137,1.045,4.442.58a7.1,7.1,0,0,1,5.813.23L9.3,1.29H8.318l-.489.979Z" transform="translate(0 0)" fill="#448ef5"/>
  </g>
</svg>
