<svg xmlns="http://www.w3.org/2000/svg" width="14.237" height="14.335" viewBox="0 0 14.237 14.335">
  <g id="AU" transform="translate(0.075 0.173)">
    <g id="BULINE" transform="translate(-0.075 -0.075)">
      <circle id="Эллипс_293" data-name="Эллипс 293" cx="7" cy="7" r="7" transform="translate(0 -0.098)" fill="#27273d"/>
    </g>
    <g id="Icons" transform="translate(-0.071 -0.071)">
      <path id="Контур_9349" data-name="Контур 9349" d="M14.233,7.116A7.116,7.116,0,0,1,0,7.116q0-.269.02-.533.016-.214.044-.424A7.086,7.086,0,0,1,.282,5.126q.078-.27.177-.53t.222-.522a7.118,7.118,0,0,1,.953-1.5c.033-.041.068-.081.1-.12q.128-.147.263-.287.056-.058.114-.114l.076-.075.076-.073q.188-.175.389-.337h0A7.118,7.118,0,0,1,3.86.79q.192-.1.389-.187A7.009,7.009,0,0,1,5.126.284q.21-.062.425-.111.283-.064.575-.1C6.2.059,6.267.05,6.338.042S6.456.03,6.515.025c.2-.017.4-.025.6-.025A7.117,7.117,0,0,1,14.233,7.116Z" transform="translate(0 0)" fill="#1b35a5"/>
      <path id="Контур_9350" data-name="Контур 9350" d="M7.206.91v.672L5.847,2.942l-.522.521-.487.487-.9.9-.589.589-.389.389L1.319,7.468H.71q.016-.214.044-.424A7.086,7.086,0,0,1,.972,6.011L2.956,4.027l.078-.077.313-.313.174-.174L4.94,2.043l.877-.877q.209-.059.424-.109.283-.064.575-.1c.071-.01.141-.019.213-.026S7.146.915,7.206.91Z" transform="translate(-0.69 -0.885)" fill="#fff"/>
      <path id="Контур_9351" data-name="Контур 9351" d="M67.239,60.45V61.6h-.654l-1.612-1.612-1.906-1.906L62.58,57.6l-.12-.12q.128-.147.263-.287.056-.058.114-.114L62.913,57l.076-.073q.188-.175.389-.337l.591.591.9.9,1.008,1.008.522.522Z" transform="translate(-60.724 -55.017)" fill="#fff"/>
      <path id="Контур_9352" data-name="Контур 9352" d="M130.576,1.52l-2.129,2.129h-.657l.306-.306.389-.389,1.3-1.3q.283-.064.575-.1C130.434,1.536,130.5,1.528,130.576,1.52Z" transform="translate(-124.238 -1.478)" fill="#db1b1b"/>
      <path id="Контур_9353" data-name="Контур 9353" d="M178.1,170.412v.657l-1.609-1.609h.657Z" transform="translate(-171.584 -164.749)" fill="#db1b1b"/>
      <path id="Контур_9354" data-name="Контур 9354" d="M72.289,71.508H71.91q.056-.058.114-.114l.076-.075Z" transform="translate(-69.911 -69.337)" fill="#db1b1b"/>
      <g id="Сгруппировать_4194" data-name="Сгруппировать 4194" transform="translate(0.459 0.602)">
        <path id="Контур_9355" data-name="Контур 9355" d="M22.557,23.125v2.539H20.291v1.988H18.307V25.663H16.5q.1-.266.222-.522a7.118,7.118,0,0,1,.953-1.5c.033-.041.068-.081.1-.12q.128-.147.263-.287.056-.058.114-.114h.153v-.148q.188-.175.389-.337h0a7.118,7.118,0,0,1,1.2-.783q.192-.1.389-.187v1.455Z" transform="translate(-16.5 -21.67)" fill="#fff"/>
        <path id="Контур_9356" data-name="Контур 9356" d="M89.531,292.255l-1.076-.705.686-1.02-1.206.445-.39-1.225-.39,1.225-1.206-.445.687,1.02-1.076.705,1.28.093-.2,1.336.909-1,.909,1-.2-1.336Z" transform="translate(-83.64 -282.298)" fill="#fff"/>
        <path id="Контур_9357" data-name="Контур 9357" d="M337.8,59.945l-.513-.336.327-.487-.575.212-.186-.584-.186.584-.575-.212.327.487-.513.336.611.044-.1.637.434-.478.434.478-.1-.637Z" transform="translate(-327.031 -57.719)" fill="#fff"/>
        <path id="Контур_9358" data-name="Контур 9358" d="M257.894,191.5l-.513-.336.327-.487-.575.212-.186-.584-.186.584-.575-.212.327.487L256,191.5l.611.044-.1.637.434-.478.434.478-.1-.637Z" transform="translate(-249.342 -185.612)" fill="#fff"/>
        <path id="Контур_9359" data-name="Контур 9359" d="M415.894,142.615l-.513-.336.327-.487-.575.212-.186-.584-.186.584-.575-.212.327.487-.513.336.611.044-.1.637.434-.478.434.478-.1-.637Z" transform="translate(-402.95 -138.091)" fill="#fff"/>
        <path id="Контур_9360" data-name="Контур 9360" d="M337.8,387.445l-.513-.336.327-.487-.575.212-.186-.584-.186.584-.575-.212.327.487-.513.336.611.044-.1.637.434-.478.434.478-.1-.637Z" transform="translate(-327.031 -376.115)" fill="#fff"/>
        <path id="Контур_9361" data-name="Контур 9361" d="M397.325,276.03l.169.52h.546l-.442.321.169.52-.442-.321-.442.321.169-.52-.442-.321h.546Z" transform="translate(-386.043 -268.959)" fill="#fff"/>
      </g>
      <path id="Контур_9362" data-name="Контур 9362" d="M7.811,14.2q-.343.034-.695.034A7.117,7.117,0,0,1,0,7.116q0-.269.02-.533.016-.214.044-.424A7.086,7.086,0,0,1,.282,5.126q.078-.27.177-.53t.222-.522a7.118,7.118,0,0,1,.953-1.5c.033-.041.068-.081.1-.12q.128-.147.263-.287.056-.058.114-.114l.076-.075.076-.073q.188-.175.389-.337h0A7.118,7.118,0,0,1,3.86.79q.192-.1.389-.187A7.009,7.009,0,0,1,5.126.284q.21-.062.425-.111.283-.064.575-.1C6.2.059,6.267.05,6.338.042S6.456.03,6.515.025c.2-.017.4-.025.6-.025q.351,0,.695.034a7.067,7.067,0,0,0-1.3.249Q6.191.376,5.88.5a7.1,7.1,0,0,0-1.413.756l-.218.217V1.412q-.2.15-.389.314A7.113,7.113,0,0,0,2.071,4.074q-.121.255-.222.522c-.014.038-.028.076-.042.115q-.094.261-.167.531-.059.215-.1.436A7.124,7.124,0,0,0,7.811,14.2Z" transform="translate(0 0)" fill="#1a358e"/>
      <path id="Контур_9363" data-name="Контур 9363" d="M7.206.91v.257q-.324.094-.635.218a7.1,7.1,0,0,0-1.413.756l-.218.217V2.3q-.2.15-.389.314A7.113,7.113,0,0,0,2.761,4.958q-.121.255-.222.522c-.014.038-.028.076-.042.115q-.094.261-.167.531-.059.215-.1.436l-.907.906H.71q.016-.214.044-.424A7.086,7.086,0,0,1,.972,6.011l.53-.53.522-.522.931-.931.078-.077.313-.313.174-.174.415-.415.614-.614.389-.389.877-.877q.21-.061.425-.11.283-.064.575-.1c.071-.01.141-.019.213-.026S7.146.915,7.206.91Z" transform="translate(-0.69 -0.885)" fill="#dddbdb"/>
      <path id="Контур_9364" data-name="Контур 9364" d="M64.046,57.257a7.162,7.162,0,0,0-.793,1.012l-.186-.186L62.58,57.6l-.12-.12q.128-.147.263-.287.056-.058.114-.114L62.913,57l.076-.073q.188-.175.389-.337Z" transform="translate(-60.724 -55.017)" fill="#fff"/>
      <path id="Контур_9365" data-name="Контур 9365" d="M162.581,1.52l-.458.458a7.1,7.1,0,0,0-1.413.756l1.084-1.084q.283-.064.575-.1c.069-.009.14-.018.212-.025Z" transform="translate(-156.242 -1.478)" fill="#bf1b1b"/>
      <path id="Контур_9366" data-name="Контур 9366" d="M72.289,71.508H71.91q.056-.058.114-.114l.076-.075Z" transform="translate(-69.911 -69.337)" fill="#db1b1b"/>
      <path id="Контур_9367" data-name="Контур 9367" d="M20.291,21.63v.811q-.2.15-.389.314A7.113,7.113,0,0,0,18.112,25.1q-.121.255-.222.522H16.5q.1-.266.222-.522a7.118,7.118,0,0,1,.953-1.5c.033-.041.068-.081.1-.12q.128-.147.263-.287.056-.058.114-.114h.153v-.148q.188-.175.389-.337h0a7.118,7.118,0,0,1,1.2-.783q.191-.1.39-.188Z" transform="translate(-16.041 -21.029)" fill="#dddbdb"/>
      <path id="Контур_9368" data-name="Контур 9368" d="M30.373,30.13v1.5H27.717v2.51h-1.2v-2.51H24.54a7.118,7.118,0,0,1,.952-1.5h1.021V29.123a7.118,7.118,0,0,1,1.2-.783V30.13Z" transform="translate(-23.858 -27.552)" fill="#db1b1b"/>
      <path id="Контур_9369" data-name="Контур 9369" d="M27.678,28.34v.938a7.113,7.113,0,0,0-1.788,2.347H24.5a7.118,7.118,0,0,1,.953-1.5h1.021V29.123a7.118,7.118,0,0,1,1.2-.783Z" transform="translate(-23.819 -27.552)" fill="#bf1b1b"/>
      <path id="Контур_9370" data-name="Контур 9370" d="M2.859,169.46.987,171.333H.71q.016-.214.044-.424L2.2,169.46Z" transform="translate(-0.69 -164.749)" fill="#db1b1b"/>
      <path id="Контур_9371" data-name="Контур 9371" d="M2.5,169.46q-.094.261-.167.531L.987,171.333H.71q.016-.214.044-.424L2.2,169.46Z" transform="translate(-0.69 -164.749)" fill="#bf1b1b"/>
      <circle id="Эллипс_294" data-name="Эллипс 294" cx="0.453" cy="0.453" r="0.453" transform="translate(12.759 7.222)" fill="#2548b7"/>
      <circle id="Эллипс_295" data-name="Эллипс 295" cx="0.321" cy="0.321" r="0.321" transform="translate(12.891 6.411)" fill="#2548b7"/>
    </g>
  </g>
</svg>
