<svg id="UK" xmlns="http://www.w3.org/2000/svg" width="14.171" height="14.171" viewBox="0 0 14.171 14.171">
  <circle id="Эллипс_292" data-name="Эллипс 292" cx="6.894" cy="6.894" r="6.894" transform="translate(0.191 0.191)" fill="#f0f0f0"/>
  <g id="Сгруппировать_4189" data-name="Сгруппировать 4189" transform="translate(0.244 0.244)">
    <path id="Контур_9336" data-name="Контур 9336" d="M10.04,100.142a7.06,7.06,0,0,0-1.221,2.465h3.686Z" transform="translate(-8.819 -97.614)" fill="#0052b4"/>
    <path id="Контур_9337" data-name="Контур 9337" d="M373.691,102.608a7.06,7.06,0,0,0-1.221-2.465l-2.465,2.465Z" transform="translate(-360.008 -97.615)" fill="#0052b4"/>
    <path id="Контур_9338" data-name="Контур 9338" d="M8.819,322.784a7.06,7.06,0,0,0,1.221,2.465l2.465-2.465Z" transform="translate(-8.819 -314.094)" fill="#0052b4"/>
    <path id="Контур_9339" data-name="Контур 9339" d="M325.247,10.04a7.06,7.06,0,0,0-2.465-1.221v3.686Z" transform="translate(-314.092 -8.819)" fill="#0052b4"/>
    <path id="Контур_9340" data-name="Контур 9340" d="M100.142,372.47a7.06,7.06,0,0,0,2.465,1.221v-3.686Z" transform="translate(-97.614 -360.008)" fill="#0052b4"/>
    <path id="Контур_9341" data-name="Контур 9341" d="M102.607,8.819a7.06,7.06,0,0,0-2.465,1.221l2.465,2.465Z" transform="translate(-97.614 -8.819)" fill="#0052b4"/>
    <path id="Контур_9342" data-name="Контур 9342" d="M322.783,373.691a7.06,7.06,0,0,0,2.465-1.221l-2.465-2.465Z" transform="translate(-314.093 -360.008)" fill="#0052b4"/>
    <path id="Контур_9343" data-name="Контур 9343" d="M370.005,322.784l2.465,2.465a7.06,7.06,0,0,0,1.221-2.465Z" transform="translate(-360.008 -314.094)" fill="#0052b4"/>
  </g>
  <g id="Сгруппировать_4190" data-name="Сгруппировать 4190" transform="translate(0 0)">
    <path id="Контур_9344" data-name="Контур 9344" d="M14.111,6.161H8.01V.06a7.151,7.151,0,0,0-1.848,0v6.1H.06a7.151,7.151,0,0,0,0,1.848h6.1v6.1a7.151,7.151,0,0,0,1.848,0V8.01h6.1a7.151,7.151,0,0,0,0-1.848Z" transform="translate(0 0)" fill="#d80027"/>
    <path id="Контур_9345" data-name="Контур 9345" d="M322.783,322.783l3.162,3.162q.218-.218.417-.455l-2.707-2.707h-.871Z" transform="translate(-313.849 -313.849)" fill="#d80027"/>
    <path id="Контур_9346" data-name="Контур 9346" d="M78.142,322.784h0l-3.162,3.162q.218.218.455.417l2.707-2.707Z" transform="translate(-72.905 -313.85)" fill="#d80027"/>
    <path id="Контур_9347" data-name="Контур 9347" d="M63.511,78.142h0L60.349,74.98q-.218.218-.416.455l2.707,2.707h.871Z" transform="translate(-58.274 -72.905)" fill="#d80027"/>
    <path id="Контур_9348" data-name="Контур 9348" d="M322.783,63.512l3.162-3.162q-.218-.218-.455-.416l-2.707,2.707Z" transform="translate(-313.849 -58.275)" fill="#d80027"/>
  </g>
</svg>
