<svg xmlns="http://www.w3.org/2000/svg" width="86" height="74"><defs><style>.cls-3{fill:#4c97ff}.cls-4{fill:#ffdda4}.cls-5{fill:#d2e0f2}.cls-6{fill:#e1fff8}.cls-7{fill:#3bffd3}.cls-8{fill:#0f0720}.cls-9{fill:#ffb53b}</style></defs><g id="ui-design" transform="translate(0 -35.258)"><path id="Path_8610" fill="#4c97ff" d="M64.266 93.751h-.1A18.644 18.644 0 0150.154 87.4a28.485 28.485 0 10-9.2 44.386 9.571 9.571 0 019.9 1.03 21.809 21.809 0 1013.412-39.065z" data-name="Path 8610" opacity=".1" transform="translate(0 -35.203)"/><path id="Path_8612" fill="#fff" d="M123.046 103.416v47.459a2.51 2.51 0 01-2.514 2.5H58.514a2.51 2.51 0 01-2.514-2.5v-47.459a2.51 2.51 0 012.514-2.5h62.017a2.51 2.51 0 012.515 2.5z" data-name="Path 8612" transform="translate(-46.523 -54.543)"/><path id="Path_8614" d="M123.046 109.065v-5.614a2.527 2.527 0 00-2.514-2.539H58.514a2.527 2.527 0 00-2.514 2.54v5.614z" class="cls-3" data-name="Path 8614" transform="translate(-46.523 -54.544)"/><path id="Path_8615" d="M103.477 218.651H89.443a.63.63 0 01-.63-.63v-11.3a.63.63 0 01.63-.63h14.034a.63.63 0 01.63.63v11.3a.63.63 0 01-.63.63z" class="cls-4" data-name="Path 8615" transform="translate(-73.919 -142.253)"/><path id="Path_8616" d="M107.72 308.1H96.451a.867.867 0 110-1.734h11.269a.867.867 0 010 1.734z" class="cls-5" data-name="Path 8616" transform="translate(-79.55 -225.679)"/><path id="Path_8617" d="M225.477 218.651h-14.034a.63.63 0 01-.63-.63v-11.3a.63.63 0 01.63-.63h14.034a.63.63 0 01.63.63v11.3a.63.63 0 01-.63.63z" class="cls-5" data-name="Path 8617" transform="translate(-175.46 -142.253)"/><path id="Path_8618" d="M229.72 308.1h-11.269a.867.867 0 110-1.734h11.269a.867.867 0 110 1.734z" class="cls-5" data-name="Path 8618" transform="translate(-181.085 -225.679)"/><path id="Path_8619" d="M347.477 218.651h-14.034a.63.63 0 01-.63-.63v-11.3a.63.63 0 01.63-.63h14.034a.63.63 0 01.63.63v11.3a.63.63 0 01-.63.63z" class="cls-6" data-name="Path 8619" transform="translate(-277.001 -142.253)"/><path id="Path_8620" d="M351.72 308.1h-11.269a.867.867 0 010-1.734h11.269a.867.867 0 010 1.734z" class="cls-5" data-name="Path 8620" transform="translate(-282.621 -225.679)"/><path id="Path_8621" d="M343.323 201.088h-14.034a1.478 1.478 0 00-1.477 1.477v11.3a1.478 1.478 0 001.477 1.477h14.034a1.478 1.478 0 001.477-1.477v-11.3a1.478 1.478 0 00-1.477-1.477zm-.216 6.281h-8.381v-4.589h8.381zm-13.6-4.589h3.529v10.87H329.5zm5.222 10.87v-4.589h8.381v4.589z" class="cls-7" data-name="Path 8621" transform="translate(-272.851 -138.097)"/><path id="Path_8622" d="M363.627 325.37h-5.176a.867.867 0 000 1.734h5.176a.867.867 0 000-1.734z" class="cls-7" data-name="Path 8622" transform="translate(-297.56 -241.496)"/><path id="Path_8623" d="M116.292 362.8h-7.785a.508.508 0 01-.508-.508v-2.821a.508.508 0 01.508-.508h7.785a.508.508 0 01.508.508v2.821a.508.508 0 01-.508.508z" class="cls-4" data-name="Path 8623" transform="translate(-89.875 -269.476)"/><path id="Path_8624" d="M239.35 362.8h-7.785a.508.508 0 01-.508-.508v-2.821a.508.508 0 01.508-.508h7.785a.508.508 0 01.508.508v2.821a.508.508 0 01-.508.508z" class="cls-5" data-name="Path 8624" transform="translate(-192.28 -269.476)"/><path id="Path_8625" d="M362.407 362.8h-7.785a.508.508 0 01-.508-.508v-2.821a.508.508 0 01.508-.508h7.785a.508.508 0 01.508.508v2.821a.508.508 0 01-.508.508z" class="cls-6" data-name="Path 8625" transform="translate(-294.686 -269.476)"/><path id="Path_8626" d="M257.106 379.669l5.3 14.25a.751.751 0 001.359.106l3.01-5.369a.75.75 0 01.288-.288l5.369-3.01a.751.751 0 00-.106-1.359l-14.25-5.3a.751.751 0 00-.97.97z" class="cls-4" data-name="Path 8626" transform="translate(-213.952 -285.997)"/><g id="Group_3974" data-name="Group 3974" transform="translate(8.631 45.523)"><path id="Path_8627" d="M89.082 120.771v.025a.846.846 0 001.692 0v-.025a.846.846 0 10-1.692 0z" class="cls-8" data-name="Path 8627" transform="translate(-82.637 -115.861)"/><path id="Path_8628" d="M108.407 120.771v.025a.846.846 0 001.692 0v-.025a.846.846 0 10-1.692 0z" class="cls-8" data-name="Path 8628" transform="translate(-98.692 -115.861)"/><path id="Path_8629" d="M127.731 120.771v.025a.846.846 0 001.692 0v-.025a.846.846 0 00-1.692 0z" class="cls-8" data-name="Path 8629" transform="translate(-114.87 -115.861)"/><path id="Path_8630" d="M116.385 95.912H54.353A3.354 3.354 0 0051 99.259v5.551a.837.837 0 00.838.837h61.305a.837.837 0 100-1.674H52.677v-4.714a1.677 1.677 0 011.677-1.674h62.032a1.677 1.677 0 011.677 1.674v47.571a1.677 1.677 0 01-1.677 1.674h-14.564a1.563 1.563 0 00-.862-.772L86.843 142.5a1.581 1.581 0 00-2.034 2.03l1.481 3.97H54.353a1.677 1.677 0 01-1.677-1.674V109.42a.838.838 0 00-1.677 0v37.411a3.354 3.354 0 003.353 3.347h32.56l3.142 8.44a1.566 1.566 0 001.361 1.024h.127a1.565 1.565 0 001.375-.807l2.969-5.287 5.3-2.964a1.587 1.587 0 00.478-.412h14.724a3.354 3.354 0 003.353-3.347V99.259a3.354 3.354 0 00-3.356-3.347zm-21.342 56.195a1.58 1.58 0 00-.606.605l-2.882 5.132-5.1-13.708 13.732 5.094z" class="cls-8" data-name="Path 8630" transform="translate(-51 -95.912)"/></g><path id="Path_8631" d="M231.767 442.034a.846.846 0 01-.846-.846 1.019 1.019 0 00-1.018-1.018.846.846 0 110-1.692 1.019 1.019 0 001.018-1.018.846.846 0 111.692 0 1.019 1.019 0 001.018 1.018.846.846 0 110 1.692 1.019 1.019 0 00-1.018 1.018.846.846 0 01-.846.846z" class="cls-9" data-name="Path 8631" transform="translate(-190.602 -334.146)"/><path id="Path_8632" d="M99.323 201.088H85.289a1.478 1.478 0 00-1.477 1.477v11.3a1.478 1.478 0 001.477 1.477h14.034a1.478 1.478 0 001.477-1.477v-11.3a1.478 1.478 0 00-1.477-1.477zm-.216 1.692v2.813H85.5v-2.813zm-13.6 4.5h9.254v6.365H85.5zm10.947 6.365v-6.365h2.656v6.365z" class="cls-9" data-name="Path 8632" transform="translate(-69.76 -138.097)"/><path id="Path_8633" d="M119.627 325.37h-5.176a.867.867 0 000 1.734h5.176a.867.867 0 000-1.734z" class="cls-9" data-name="Path 8633" transform="translate(-94.518 -241.496)"/><path id="Path_8634" d="M220.229 54.653l-1.861-1.861a.846.846 0 00-1.2 0l-1.861 1.861a.846.846 0 000 1.2l1.861 1.861a.846.846 0 001.2 0l1.861-1.861a.846.846 0 000-1.2zm-2.459 1.262l-.664-.664.664-.664.664.664z" class="cls-9" data-name="Path 8634" transform="translate(-178.957 -14.361)"/><path id="Path_8635" d="M221.323 201.088h-14.034a1.478 1.478 0 00-1.477 1.477v11.3a1.478 1.478 0 001.477 1.477h14.034a1.478 1.478 0 001.477-1.477v-11.3a1.478 1.478 0 00-1.477-1.477zm-.216 6.536h-4.432v-4.844h4.432v4.843zm-6.124-4.843v4.843H207.5v-4.844zm-7.478 6.536h3.755v4.334h-3.76zm5.447 4.334v-4.334h8.155v4.334z" class="cls-3" data-name="Path 8635" transform="translate(-171.306 -138.097)"/><path id="Path_8636" d="M241.627 325.37h-5.176a.867.867 0 000 1.734h5.176a.867.867 0 000-1.734z" class="cls-3" data-name="Path 8636" transform="translate(-196.039 -241.496)"/><path id="Path_8637" d="M160.973 37.122a1.019 1.019 0 01-1.018-1.018.846.846 0 00-1.692 0 1.019 1.019 0 01-1.018 1.018.846.846 0 000 1.692 1.019 1.019 0 011.018 1.018.846.846 0 001.692 0 1.019 1.019 0 011.018-1.018.846.846 0 100-1.692z" class="cls-7" data-name="Path 8637" transform="translate(-130.141)"/><path id="Path_8638" d="M342.381 54.653l-1.861-1.861a.846.846 0 00-1.2 0l-1.861 1.861a.846.846 0 000 1.2l1.861 1.861a.846.846 0 001.2 0l1.861-1.861a.846.846 0 000-1.2zm-2.459 1.262l-.664-.664.664-.664.664.664z" class="cls-3" data-name="Path 8638" transform="translate(-280.602 -14.361)"/></g></svg>