<svg xmlns="http://www.w3.org/2000/svg" width="59" height="55"><defs><style>.cls-1{fill:#3bffd3}.cls-3{fill:#4c97ff}.cls-4{fill:#ffb53b}.cls-5{fill:#ffdda4}.cls-6{fill:#fff}</style></defs><g id="view" transform="translate(-47.574 -43.665)"><path id="Path_9091" d="M153.841 100.663v34.129a2.808 2.808 0 01-2.825 2.789h-34.571a2.808 2.808 0 01-2.825-2.789v-34.129a2.808 2.808 0 012.825-2.789h34.571a2.808 2.808 0 012.825 2.789z" class="cls-1" data-name="Path 9091" transform="translate(-56.656 -46.502)"/><path id="Path_9094" fill="#d2e0f2" d="M109.365 151.929a2.56 2.56 0 010 3.648 39.972 39.972 0 01-56.06 0 2.56 2.56 0 010-3.648 39.967 39.967 0 0156.061 0z" data-name="Path 9094" transform="translate(-4.26 -82.525)"/><circle id="Ellipse_253" cx="8.335" cy="8.335" r="8.335" class="cls-3" data-name="Ellipse 253" transform="translate(68.739 62.889)"/><path id="Path_9096" d="M340.457 334.623a6.9 6.9 0 000-13.8h-3.445v13.8z" class="cls-4" data-name="Path 9096" transform="translate(-248.552 -238.528)"/><circle id="Ellipse_254" cx="6.902" cy="6.902" r="6.902" class="cls-5" data-name="Ellipse 254" transform="translate(81.622 82.29)"/><path id="Path_9097" d="M321.007 73.045a8.677 8.677 0 10-15.894 4.214l-1.218 2.767a.684.684 0 00.9.9l2.767-1.218a8.675 8.675 0 0013.444-6.665z" class="cls-5" data-name="Path 9097" transform="translate(-219.952 -17.27)"/><circle id="Ellipse_255" cx=".975" cy=".975" r=".975" class="cls-4" data-name="Ellipse 255" transform="translate(88.181 53.976)"/><circle id="Ellipse_256" cx=".975" cy=".975" r=".975" class="cls-4" data-name="Ellipse 256" transform="translate(91.637 53.976)"/><circle id="Ellipse_257" cx=".975" cy=".975" r=".975" class="cls-4" data-name="Ellipse 257" transform="translate(95.05 53.976)"/><path id="Path_9098" d="M78.032 274.786H66.951a1.422 1.422 0 01-1.422-1.422v-11.08a1.422 1.422 0 011.422-1.422h11.081a1.422 1.422 0 011.422 1.422v11.081a1.422 1.422 0 01-1.422 1.421z" class="cls-4" data-name="Path 9098" transform="translate(-15.402 -186.892)"/><g id="Group_4005" data-name="Group 4005" transform="translate(59.24 65.235)"><path id="Path_9100" d="M157.581 202.059a.711.711 0 01-.5-1.213l2.512-2.512a.711.711 0 011.005 1.005l-2.512 2.512a.709.709 0 01-.505.208z" class="cls-6" data-name="Path 9100" transform="translate(-153.129 -198.126)"/><path id="Path_9101" d="M131.263 202.059a.711.711 0 01-.5-1.213l2.512-2.512a.711.711 0 011.005 1.005l-2.512 2.512a.709.709 0 01-.505.208z" class="cls-6" data-name="Path 9101" transform="translate(-130.552 -198.126)"/><path id="Path_9102" d="M354.49 258.65a.711.711 0 01-.5-1.213l2.512-2.512a.711.711 0 011.005 1.005l-2.512 2.512a.708.708 0 01-.505.208z" class="cls-6" data-name="Path 9102" transform="translate(-322.044 -246.672)"/><path id="Path_9103" d="M328.171 258.65a.711.711 0 01-.5-1.213l2.512-2.512a.711.711 0 011.005 1.005l-2.512 2.512a.708.708 0 01-.505.208z" class="cls-6" data-name="Path 9103" transform="translate(-299.467 -246.672)"/></g><circle id="Ellipse_258" cx="6.568" cy="6.568" r="6.568" fill="#9fbcfe" data-name="Ellipse 258" transform="translate(70.507 64.656)"/><path id="Path_9104" fill="#b7c5ff" d="M241.457 201.686a6.568 6.568 0 01-10.067 5.559 6.569 6.569 0 005.02-11.95 6.574 6.574 0 015.047 6.391z" data-name="Path 9104" transform="translate(-157.823 -130.464)"/><circle id="Ellipse_259" cx="2.019" cy="2.019" r="2.019" class="cls-3" data-name="Ellipse 259" transform="translate(74.374 69.468)"/><circle id="Ellipse_260" cx="1.514" cy="1.514" r="1.514" fill="#d2deff" data-name="Ellipse 260" transform="translate(77.042 68.637)"/><path id="Path_9105" d="M70.177 81.639a2.074 2.074 0 111.468-.607 2.07 2.07 0 01-1.468.607zm0-2.729a.654.654 0 10.463.191.652.652 0 00-.463-.191z" class="cls-3" data-name="Path 9105" transform="translate(-17.609 -29.015)"/><path id="Path_9106" d="M425.874 311.095a2.075 2.075 0 111.468-.607 2.069 2.069 0 01-1.468.607zm0-2.729a.654.654 0 10.463.191.652.652 0 00-.463-.191z" class="cls-1" data-name="Path 9106" transform="translate(-323 -226.413)"/><path id="Path_9107" d="M96.176 44.838h-.462v-.462a.711.711 0 00-1.422 0v.462h-.462a.711.711 0 000 1.422h.462v.462a.711.711 0 001.422 0v-.462h.462a.711.711 0 000-1.422z" class="cls-4" data-name="Path 9107" transform="translate(-39.07)"/><path id="Path_9108" d="M87.5 386.8h-.462v-.462a.711.711 0 10-1.422 0v.462h-.462a.711.711 0 000 1.422h.462v.462a.711.711 0 001.422 0v-.462h.462a.711.711 0 000-1.422z" class="cls-4" data-name="Path 9108" transform="translate(-31.631 -294.122)"/><path id="Path_9109" d="M128.352 410.673h-.462v-.462a.711.711 0 10-1.422 0v.462h-.462a.711.711 0 100 1.422h.462v.462a.711.711 0 001.422 0v-.462h.462a.711.711 0 100-1.422z" class="cls-3" data-name="Path 9109" transform="translate(-66.724 -314.602)"/><path id="Path_9110" d="M319.484 348.709h-2.7a1.784 1.784 0 00.116-.637v-.9h.913a.711.711 0 000-1.422h-.913v-.9a.76.76 0 111.52 0 .711.711 0 001.422 0 2.182 2.182 0 10-4.364 0v.9h-.137a.711.711 0 100 1.422h.137v.9a.362.362 0 01-.107.257 1.055 1.055 0 00.746 1.8h3.368a.711.711 0 100-1.422z" class="cls-4" data-name="Path 9110" transform="translate(-229.274 -257.272)"/><path id="Path_9111" fill="#0f0720" d="M105.625 81.817a39.089 39.089 0 00-7.673-6.3 9.17 9.17 0 001.116-14.008 9.373 9.373 0 00-15.919 5.734 9.24 9.24 0 00.18 2.786 39.883 39.883 0 00-6.253-.493 39.191 39.191 0 00-19.446 5.12v-7.583a2.114 2.114 0 012.123-2.1h21a.7.7 0 100-1.4h-21a3.524 3.524 0 00-3.538 3.5V75.5a38.911 38.911 0 00-7.692 6.315 3.494 3.494 0 000 4.788c.342.363.7.719 1.053 1.07a2.068 2.068 0 00-.169.821v4.249a.708.708 0 001.415 0V88.5a.7.7 0 01.708-.7h11.033a.7.7 0 01.708.7v10.911a.7.7 0 01-.708.7H51.531a.7.7 0 01-.708-.7V96.68a.708.708 0 00-1.415 0v2.731a2.114 2.114 0 002.123 2.1h4.688a3.526 3.526 0 003.534 3.336h21.662a7.588 7.588 0 007.125 4.942h3.43a7.548 7.548 0 007.58-7.5 7.41 7.41 0 00-1.616-4.621v-4.762a39.262 39.262 0 007.691-6.3 3.494 3.494 0 000-4.788zM84.559 67.36a7.918 7.918 0 017.377-7.143 8 8 0 016.131 2.283 7.82 7.82 0 012.306 6.066 7.949 7.949 0 01-12.287 6.024.714.714 0 00-.676-.057l-2.693 1.173 1.183-2.664a.694.694 0 00-.058-.669 7.73 7.73 0 01-1.286-5.013zm-24.806 36.087a2.115 2.115 0 01-2.115-1.936h4.924a2.114 2.114 0 002.123-2.1V96.9a39.359 39.359 0 0012.39 1.986 40 40 0 004.879-.3 7.413 7.413 0 00-.9 4.862zm22.623-1.157a6.165 6.165 0 116.164 6.1 6.139 6.139 0 01-6.164-6.1zm10.71 6a7.443 7.443 0 000-11.994 6.086 6.086 0 010 11.994zm3.432-11.992a7.591 7.591 0 00-2.511-1.227q1.277-.611 2.511-1.311zm8.072-10.648a37.931 37.931 0 01-13.39 9.123c-.012.005-.023.013-.035.018H88.54A7.6 7.6 0 0083.175 97a38.437 38.437 0 01-6.1.487 37.914 37.914 0 01-12.39-2.066V88.5a2.114 2.114 0 00-2.123-2.1H51.531a2.127 2.127 0 00-1 .247 35.07 35.07 0 01-.975-.993 2.1 2.1 0 010-2.878 37.7 37.7 0 0127.52-11.842 38.383 38.383 0 016.723.593 9.207 9.207 0 00.657 1.292L83.395 75.2a1.355 1.355 0 00.289 1.526 1.391 1.391 0 001.542.286l2.41-1.05a9.315 9.315 0 004.816 1.328q.409 0 .822-.035a9.262 9.262 0 003.325-.927 37.683 37.683 0 017.992 6.44 2.1 2.1 0 01-.001 2.882z" data-name="Path 9111" transform="translate(0 -12.984)"/><path id="Path_9112" d="M86.175 283.358a1.85 1.85 0 111.85-1.85 1.852 1.852 0 01-1.85 1.85zm0-2.278a.428.428 0 10.428.428.428.428 0 00-.428-.427z" class="cls-6" data-name="Path 9112" transform="translate(-31.526 -202.944)"/><path id="Path_9113" d="M120.5 317.688a1.85 1.85 0 111.85-1.85 1.852 1.852 0 01-1.85 1.85zm0-2.278a.428.428 0 10.428.428.429.429 0 00-.428-.428z" class="cls-6" data-name="Path 9113" transform="translate(-61.023 -232.465)"/><path id="Path_9114" d="M96.018 296.1a.711.711 0 01-.5-1.213l4.036-4.036a.711.711 0 011.005 1.005l-4.036 4.036a.709.709 0 01-.505.208z" class="cls-6" data-name="Path 9114" transform="translate(-40.947 -212.408)"/></g></svg>