<svg xmlns="http://www.w3.org/2000/svg" width="76" height="100"><defs><style>.cls-3{fill:#4c97ff}.cls-4{fill:#ffdda4}.cls-5{fill:#3bffd3}.cls-6{fill:#ffb53b}.cls-7{fill:#0f0720}</style></defs><g id="calendar" transform="translate(-67.445)"><path id="Path_8808" fill="#4c97ff" d="M175.313.083c-18.74 1.69-20.553 37.584-28.636 55.974-4.005 9.113-13.45 18.514-11.785 29.254 1.879 12.116 14.257 15.64 23.8 14.48 23.611-2.868 33.815-27.549 35.36-50.938C195 34.435 198.02-1.964 175.313.083z" data-name="Path 8808" opacity=".1" transform="translate(-54.396)"/><path id="Path_8810" fill="#fff" d="M142.594 173.8H76.342a3.9 3.9 0 01-3.9-3.912v-51.97a3.9 3.9 0 013.9-3.912h66.252a3.9 3.9 0 013.9 3.912v51.967a3.9 3.9 0 01-3.9 3.915z" data-name="Path 8810" transform="translate(-4.023 -91.784)"/><path id="Path_8812" d="M146.49 126.723v-8.8a3.9 3.9 0 00-3.9-3.912H76.342a3.9 3.9 0 00-3.9 3.912v8.8z" class="cls-3" data-name="Path 8812" transform="translate(-4.023 -91.744)"/><path id="Path_8818" d="M133.657 102.289h-2.314a1.956 1.956 0 01-1.956-1.956V94.24a1.956 1.956 0 011.956-1.956h2.314a1.956 1.956 0 011.956 1.956v6.094a1.956 1.956 0 01-1.956 1.955z" class="cls-4" data-name="Path 8818" transform="translate(-49.879 -74.262)"/><path id="Path_8820" d="M211.787 102.289h-2.314a1.956 1.956 0 01-1.956-1.956V94.24a1.956 1.956 0 011.956-1.956h2.314a1.956 1.956 0 011.956 1.956v6.094a1.956 1.956 0 01-1.956 1.955z" class="cls-4" data-name="Path 8820" transform="translate(-112.793 -74.262)"/><path id="Path_8822" d="M289.92 102.289h-2.314a1.956 1.956 0 01-1.956-1.956V94.24a1.956 1.956 0 011.956-1.956h2.314a1.956 1.956 0 011.956 1.956v6.094a1.956 1.956 0 01-1.956 1.955z" class="cls-4" data-name="Path 8822" transform="translate(-175.71 -74.262)"/><path id="Path_8824" d="M368.052 102.289h-2.314a1.956 1.956 0 01-1.956-1.956V94.24a1.956 1.956 0 011.956-1.956h2.314a1.956 1.956 0 011.956 1.956v6.094a1.956 1.956 0 01-1.956 1.955z" class="cls-4" data-name="Path 8824" transform="translate(-238.625 -74.262)"/><path id="Path_8826" d="M115.172 217.751h-5.444a1.956 1.956 0 01-1.956-1.956v-5.444a1.956 1.956 0 011.956-1.956h5.444a1.956 1.956 0 011.956 1.956v5.449a1.956 1.956 0 01-1.956 1.951z" class="cls-5" data-name="Path 8826" transform="translate(-32.44 -167.699)"/><path id="Path_8827" d="M180.576 217.751h-5.444a1.956 1.956 0 01-1.956-1.956v-5.444a1.956 1.956 0 011.956-1.956h5.444a1.956 1.956 0 011.956 1.956v5.449a1.956 1.956 0 01-1.956 1.951z" class="cls-5" data-name="Path 8827" transform="translate(-85.145 -167.699)"/><path id="Path_8828" d="M245.982 217.751h-5.444a1.956 1.956 0 01-1.956-1.956v-5.444a1.956 1.956 0 011.956-1.956h5.444a1.956 1.956 0 011.956 1.956v5.449a1.956 1.956 0 01-1.956 1.951z" class="cls-5" data-name="Path 8828" transform="translate(-137.816 -167.699)"/><path id="Path_8829" d="M311.389 217.751h-5.444a1.956 1.956 0 01-1.956-1.956v-5.444a1.956 1.956 0 011.956-1.956h5.444a1.956 1.956 0 011.956 1.956v5.449a1.956 1.956 0 01-1.956 1.951z" class="cls-5" data-name="Path 8829" transform="translate(-190.486 -167.699)"/><path id="Path_8830" d="M376.794 217.751h-5.444a1.956 1.956 0 01-1.956-1.956v-5.444a1.956 1.956 0 011.956-1.956h5.444a1.956 1.956 0 011.956 1.956v5.449a1.956 1.956 0 01-1.956 1.956z" class="cls-5" data-name="Path 8830" transform="translate(-243.191 -167.699)"/><g id="Group_3978" data-name="Group 3978" transform="translate(75.332 53.325)"><path id="Path_8831" d="M115.172 282.485h-5.444a1.956 1.956 0 01-1.956-1.956v-5.444a1.956 1.956 0 011.956-1.956h5.444a1.956 1.956 0 011.956 1.956v5.444a1.956 1.956 0 01-1.956 1.956z" class="cls-3" data-name="Path 8831" transform="translate(-107.772 -273.13)"/><path id="Path_8832" d="M180.576 282.485h-5.444a1.956 1.956 0 01-1.956-1.956v-5.444a1.956 1.956 0 011.956-1.956h5.444a1.956 1.956 0 011.956 1.956v5.444a1.956 1.956 0 01-1.956 1.956z" class="cls-3" data-name="Path 8832" transform="translate(-160.459 -273.13)"/><path id="Path_8833" d="M245.982 282.485h-5.444a1.956 1.956 0 01-1.956-1.956v-5.444a1.956 1.956 0 011.956-1.956h5.444a1.956 1.956 0 011.956 1.956v5.444a1.956 1.956 0 01-1.956 1.956z" class="cls-3" data-name="Path 8833" transform="translate(-213.148 -273.13)"/><path id="Path_8834" d="M311.389 282.485h-5.444a1.956 1.956 0 01-1.956-1.956v-5.444a1.956 1.956 0 011.956-1.956h5.444a1.956 1.956 0 011.956 1.956v5.444a1.956 1.956 0 01-1.956 1.956z" class="cls-3" data-name="Path 8834" transform="translate(-265.836 -273.13)"/><path id="Path_8835" d="M376.794 282.485h-5.444a1.956 1.956 0 01-1.956-1.956v-5.444a1.956 1.956 0 011.956-1.956h5.444a1.956 1.956 0 011.956 1.956v5.444a1.956 1.956 0 01-1.956 1.956z" class="cls-3" data-name="Path 8835" transform="translate(-318.523 -273.13)"/><path id="Path_8836" d="M115.172 347.22h-5.444a1.956 1.956 0 01-1.956-1.956v-5.444a1.956 1.956 0 011.956-1.956h5.444a1.956 1.956 0 011.956 1.956v5.444a1.956 1.956 0 01-1.956 1.956z" class="cls-3" data-name="Path 8836" transform="translate(-107.772 -325.204)"/><path id="Path_8837" d="M180.576 347.22h-5.444a1.956 1.956 0 01-1.956-1.956v-5.444a1.956 1.956 0 011.956-1.956h5.444a1.956 1.956 0 011.956 1.956v5.444a1.956 1.956 0 01-1.956 1.956z" class="cls-3" data-name="Path 8837" transform="translate(-160.459 -325.204)"/><path id="Path_8838" d="M245.982 347.22h-5.444a1.956 1.956 0 01-1.956-1.956v-5.444a1.956 1.956 0 011.956-1.956h5.444a1.956 1.956 0 011.956 1.956v5.444a1.956 1.956 0 01-1.956 1.956z" class="cls-3" data-name="Path 8838" transform="translate(-213.148 -325.204)"/><path id="Path_8839" d="M311.389 347.22h-5.444a1.956 1.956 0 01-1.956-1.956v-5.444a1.956 1.956 0 011.956-1.956h5.444a1.956 1.956 0 011.956 1.956v5.444a1.956 1.956 0 01-1.956 1.956z" class="cls-3" data-name="Path 8839" transform="translate(-265.836 -325.204)"/></g><path id="Path_8840" d="M367.956 471.882a2.855 2.855 0 112.02-.835 2.847 2.847 0 01-2.02.835zm0-3.754a.9.9 0 10.636.263.9.9 0 00-.636-.263z" class="cls-3" data-name="Path 8840" transform="translate(-239.686 -375.135)"/><path id="Path_8841" d="M197.653 47.5a2.856 2.856 0 112.019-.837 2.838 2.838 0 01-2.019.837zm0-3.756a.9.9 0 10.637.263.9.9 0 00-.637-.26z" class="cls-5" data-name="Path 8841" transform="translate(-102.55 -33.619)"/><path id="Path_8842" d="M241.45 20.85h-.636v-.636a.978.978 0 10-1.956 0v.636h-.636a.978.978 0 100 1.956h.636v.636a.978.978 0 101.956 0v-.636h.636a.978.978 0 100-1.956z" class="cls-6" data-name="Path 8842" transform="translate(-136.729 -15.474)"/><path id="Path_8843" d="M324.439 438.137h-.639v-.637a.978.978 0 10-1.956 0v.636h-.636a.978.978 0 000 1.956h.636v.636a.978.978 0 001.956 0v-.636h.636a.978.978 0 000-1.956z" class="cls-6" data-name="Path 8843" transform="translate(-203.555 -351.284)"/><path id="Path_8844" d="M105.579 438.137h-.636v-.637a.978.978 0 10-1.956 0v.636h-.636a.978.978 0 100 1.956h.636v.636a.978.978 0 001.956 0v-.636h.636a.978.978 0 100-1.956z" class="cls-6" data-name="Path 8844" transform="translate(-27.293 -351.284)"/><path id="Path_8845" d="M138.575 91.524h-6.222v-1.312a2.928 2.928 0 00-2.922-2.928h-2.305a2.928 2.928 0 00-2.922 2.928v1.312h-7.072v-1.312a2.928 2.928 0 00-2.922-2.928h-2.31a2.928 2.928 0 00-2.922 2.928v1.312h-7.072v-1.312a2.928 2.928 0 00-2.922-2.928h-2.302a2.928 2.928 0 00-2.922 2.928v1.312h-7.072v-1.312a2.928 2.928 0 00-2.922-2.928H81.46a2.928 2.928 0 00-2.922 2.928v1.312h-6.223a4.88 4.88 0 00-4.87 4.879v51.861a4.88 4.88 0 004.87 4.879h13.314a.976.976 0 000-1.952H72.316a2.928 2.928 0 01-2.922-2.928v-42.1h72.1V132.5a.974.974 0 101.948 0V96.4a4.88 4.88 0 00-4.87-4.879zm-12.425-1.312a.976.976 0 01.974-.976h2.305a.976.976 0 01.974.976v6.081a.976.976 0 01-.974.976h-2.305a.976.976 0 01-.974-.976zm-15.221 0a.976.976 0 01.974-.976h2.305a.976.976 0 01.974.976v6.081a.976.976 0 01-.974.976H111.9a.976.976 0 01-.974-.976zm-15.221 0a.976.976 0 01.974-.976h2.305a.976.976 0 01.974.976v6.081a.976.976 0 01-.974.976h-2.305a.976.976 0 01-.974-.976zm-15.221 0a.976.976 0 01.974-.976h2.305a.976.976 0 01.974.976v6.081a.976.976 0 01-.974.976H81.46a.976.976 0 01-.974-.976zm-11.093 14V96.4a2.928 2.928 0 012.922-2.928h6.222v2.818a2.928 2.928 0 002.922 2.93h2.305a2.928 2.928 0 002.922-2.928v-2.817h7.073v2.818a2.928 2.928 0 002.922 2.928h2.305a2.928 2.928 0 002.922-2.928v-2.818h7.072v2.818a2.928 2.928 0 002.919 2.927h2.305a2.928 2.928 0 002.922-2.928v-2.817h7.073v2.818a2.928 2.928 0 002.922 2.928h2.305a2.928 2.928 0 002.922-2.928v-2.818h6.222A2.928 2.928 0 01141.5 96.4v7.81z" class="cls-7" data-name="Path 8845" transform="translate(0 -70.213)"/><path id="Path_8846" d="M236.429 342.05a.978.978 0 00-.978.978v10.3a2.937 2.937 0 01-2.934 2.934h-47.656a.978.978 0 100 1.956h47.657a4.9 4.9 0 004.889-4.889v-10.3a.978.978 0 00-.978-.979z" class="cls-7" data-name="Path 8846" transform="translate(-93.962 -275.261)"/></g></svg>