<svg xmlns="http://www.w3.org/2000/svg" width="90" height="76"><defs><style>.cls-3{fill:#4c97ff}.cls-5{fill:#fff}.cls-6{fill:#3bffd3}.cls-8{fill:#ffb53b}</style></defs><g id="talk" transform="translate(0 -40.554)"><path id="Path_8539" fill="#4c97ff" d="M64.129 43.14c-12.146-4.768-28.966-2.957-38.261 5.56-6.563 6.012-1.483 7.725 2.991 18.726C32.1 75.385 0 74.29 0 88.676c0 16.632 23.247 13.48 31.874 15.383 13.19 2.911 24.7 13.8 38.789 12.365 12.269-1.25 16.946-10.91 18.652-21.984 3.178-20.632-4.628-43.229-25.186-51.3z" data-name="Path 8539" opacity=".1"/><path id="Path_8541" fill="#ffdda4" d="M171.121 86.653V122.1a3.545 3.545 0 01-3.545 3.545h-53.53a3.545 3.545 0 01-3.546-3.545V86.653a3.544 3.544 0 013.545-3.545h37.014l5.165-5.167a1.774 1.774 0 013.027 1.253v3.914h8.324a3.544 3.544 0 013.546 3.545z" data-name="Path 8541" transform="translate(-91.667 -30.33)"/><path id="Path_8544" d="M120.121 166.035v35.451a3.545 3.545 0 01-3.545 3.545H79.561L74.4 210.2a1.774 1.774 0 01-3.027-1.253v-3.912h-8.328a3.545 3.545 0 01-3.545-3.545v-35.455a3.544 3.544 0 013.545-3.545h53.53a3.544 3.544 0 013.546 3.545z" class="cls-3" data-name="Path 8544" transform="translate(-48.953 -100.699)"/><path id="Path_8546" fill="#d9d1bf" d="M161.327 166.035v29.607h-47.334a3.52 3.52 0 01-3.493-3.542v-29.61h47.334a3.518 3.518 0 013.493 3.545z" data-name="Path 8546" transform="translate(-90.914 -100.511)"/><g id="Group_3956" data-name="Group 3956" transform="translate(24.768 80.048)"><path id="Path_8548" d="M181.436 266.392h-38.692a.886.886 0 010-1.773h38.692a.886.886 0 110 1.773z" class="cls-5" data-name="Path 8548" transform="translate(-141.858 -264.619)"/><path id="Path_8549" d="M181.436 286.852h-38.692a.886.886 0 110-1.773h38.692a.886.886 0 110 1.773z" class="cls-5" data-name="Path 8549" transform="translate(-141.858 -281.452)"/><path id="Path_8550" d="M181.436 307.312h-38.692a.886.886 0 010-1.773h38.692a.886.886 0 110 1.773z" class="cls-5" data-name="Path 8550" transform="translate(-141.858 -298.286)"/></g><path id="Path_8551" d="M153.4 212.355h-10.383a1.159 1.159 0 01-1.159-1.159v-3.652a1.159 1.159 0 011.159-1.159H153.4a1.159 1.159 0 011.159 1.159v3.656a1.159 1.159 0 01-1.159 1.155z" class="cls-6" data-name="Path 8551" transform="translate(-116.956 -136.594)"/><path id="Path_8552" d="M231.678 212.355h-2.66a1.159 1.159 0 01-1.159-1.159v-3.652a1.159 1.159 0 011.159-1.159h2.66a1.159 1.159 0 011.159 1.159v3.656a1.159 1.159 0 01-1.159 1.155z" class="cls-5" data-name="Path 8552" transform="translate(-187.824 -136.594)"/><circle id="Ellipse_206" cx=".991" cy=".991" r=".991" class="cls-5" data-name="Ellipse 206" transform="translate(27.564 71.783)"/><circle id="Ellipse_207" cx=".991" cy=".991" r=".991" class="cls-5" data-name="Ellipse 207" transform="translate(30.536 71.783)"/><circle id="Ellipse_208" cx=".991" cy=".991" r=".991" class="cls-5" data-name="Ellipse 208" transform="translate(33.508 71.783)"/><path id="Path_8553" fill="#0f0720" d="M120.795 78.061h-7.359v-3.01a2.63 2.63 0 00-4.493-1.869l-4.854 4.879H89.206a.881.881 0 000 1.762h15.247a.875.875 0 00.62-.258l5.11-5.137a.877.877 0 011.5.623v3.891a.879.879 0 00.877.881h8.24a2.64 2.64 0 012.631 2.643v35.245a2.64 2.64 0 01-2.631 2.643H67.829a2.64 2.64 0 01-2.631-2.643V89.158h46.652a2.64 2.64 0 012.631 2.643v24.483a.877.877 0 101.754 0V91.8a4.4 4.4 0 00-4.385-4.406H65.2v-4.927a2.64 2.64 0 012.631-2.643h16.446a.881.881 0 000-1.762H67.829a4.4 4.4 0 00-4.385 4.406V87.4h-4.56a4.4 4.4 0 00-4.384 4.4v35.245a4.4 4.4 0 004.385 4.406h7.36v3.009a2.6 2.6 0 001.624 2.442 2.66 2.66 0 001.024.208 2.589 2.589 0 001.844-.781l4.855-4.878h36.26a4.4 4.4 0 004.385-4.406v-4.929h4.56a4.4 4.4 0 004.385-4.406V82.467a4.4 4.4 0 00-4.385-4.406zm-6.314 48.986a2.64 2.64 0 01-2.631 2.643H75.227a.876.876 0 00-.62.258l-5.107 5.136a.876.876 0 01-1.5-.623v-3.89a.879.879 0 00-.877-.881h-8.238a2.64 2.64 0 01-2.631-2.643V91.8a2.64 2.64 0 012.631-2.643h4.56v28.554a4.4 4.4 0 004.385 4.406h46.652z" data-name="Path 8553" transform="translate(-44.84 -26.202)"/><path id="Path_8554" d="M62.468 108.364a2.588 2.588 0 111.83-.758 2.571 2.571 0 01-1.83.758zm0-3.4a.816.816 0 10.577.239.811.811 0 00-.577-.243z" class="cls-3" data-name="Path 8554" transform="translate(-49.267 -51.531)"/><path id="Path_8555" d="M430.888 379.7a2.588 2.588 0 111.83-.758 2.571 2.571 0 01-1.83.758zm0-3.4a.816.816 0 10.577.239.811.811 0 00-.577-.245z" class="cls-3" data-name="Path 8555" transform="translate(-353.137 -275.084)"/><path id="Path_8556" d="M84.644 71.293h-.576v-.576a.886.886 0 10-1.773 0v.576h-.576a.886.886 0 100 1.773h.581v.576a.886.886 0 001.773 0v-.576h.576a.886.886 0 000-1.773z" class="cls-8" data-name="Path 8556" transform="translate(-66.631 -24.087)"/><path id="Path_8557" d="M464.894 349.732h-.576v-.576a.886.886 0 00-1.773 0v.576h-.576a.886.886 0 100 1.773h.576v.576a.886.886 0 001.773 0v-.581h.576a.886.886 0 000-1.773z" class="cls-8" data-name="Path 8557" transform="translate(-380.108 -253.459)"/><path id="Path_8558" d="M165.561 431.042h-.576v-.576a.886.886 0 10-1.773 0v.576h-.576a.886.886 0 000 1.773h.576v.576a.886.886 0 101.773 0v-.576h.576a.886.886 0 000-1.773z" class="cls-6" data-name="Path 8558" transform="translate(-133.33 -320.447)"/><path id="Path_8559" d="M328.806 194.045a3.587 3.587 0 10-4.706 0 3.576 3.576 0 00-1.234 2.7.886.886 0 001.773 0 1.814 1.814 0 013.628 0 .886.886 0 001.773 0 3.576 3.576 0 00-1.234-2.7zm-4.167-2.7a1.814 1.814 0 111.814 1.814 1.816 1.816 0 01-1.814-1.815z" class="cls-5" data-name="Path 8559" transform="translate(-266.154 -121.259)"/></g></svg>