<svg xmlns="http://www.w3.org/2000/svg" width="57" height="52"><defs><style>.cls-3{fill:#4c97ff}.cls-4{fill:#0f0720}.cls-5{fill:#3bffd3}.cls-7{fill:#ffb53b}</style></defs><g id="coupon" transform="translate(-39 -47.627)"><path id="Path_9012" fill="#fff" d="M80.168 52.713a7.641 7.641 0 01-5.492 0 1.3 1.3 0 00-1.386.3l-28.9 28.919a1.3 1.3 0 00-.3 1.387 7.653 7.653 0 010 5.495 1.3 1.3 0 00.3 1.387l12.71 12.725a1.3 1.3 0 001.386.3 7.641 7.641 0 015.492 0 1.3 1.3 0 001.386-.3l28.9-28.919a1.3 1.3 0 00.3-1.387 7.653 7.653 0 010-5.495 1.3 1.3 0 00-.3-1.387l-12.71-12.723a1.3 1.3 0 00-1.386-.302z" data-name="Path 9012" transform="translate(-4.344 -4.344)"/><path id="Path_9013" fill="#e9f3ff" d="M92.015 127.619a11.609 11.609 0 00-4.237 0 .651.651 0 01-.578-.183l-10.022-10.021a.651.651 0 01-.183-.578 11.609 11.609 0 000-4.237.651.651 0 01.183-.578L103.4 85.805a.651.651 0 01.578-.183 11.609 11.609 0 004.237 0 .651.651 0 01.578.183l10.022 10.022a.651.651 0 01.183.578 11.609 11.609 0 000 4.237.651.651 0 01-.183.578l-26.223 26.216a.651.651 0 01-.577.183z" data-name="Path 9013" transform="translate(-32.994 -32.994)"/><path id="Path_9014" d="M191.321 85.805l-13.108 13.109 15.414 15.414 13.108-13.108a.651.651 0 00.183-.578 11.61 11.61 0 010-4.237.651.651 0 00-.183-.578l-10.021-10.022a.651.651 0 00-.578-.183 11.609 11.609 0 01-4.237 0 .651.651 0 00-.578.183z" class="cls-3" data-name="Path 9014" transform="translate(-120.938 -32.994)"/><g id="Group_3984" data-name="Group 3984" transform="translate(39 47.627)"><path id="Path_9015" d="M226.4 119.527a.657.657 0 01-.465-1.122L251.7 92.646a.645.645 0 00.154-.686 8.276 8.276 0 010-5.968.645.645 0 00-.154-.686l-9.564-9.564a.657.657 0 01.929-.929l9.564 9.564a1.96 1.96 0 01.451 2.088 6.964 6.964 0 000 5.022 1.96 1.96 0 01-.451 2.088l-25.759 25.759a.655.655 0 01-.465.192z" class="cls-4" data-name="Path 9015" transform="translate(-201.237 -71.074)"/><path id="Path_9016" d="M60.092 99.627a1.924 1.924 0 01-.692-.127 6.952 6.952 0 00-5.018 0 1.958 1.958 0 01-2.087-.451L39.579 86.324a1.961 1.961 0 01-.451-2.088 6.969 6.969 0 000-5.022 1.961 1.961 0 01.451-2.088l28.9-28.919a1.957 1.957 0 012.087-.451 6.953 6.953 0 005.018 0 1.958 1.958 0 012.087.451.657.657 0 11-.928.929.644.644 0 00-.686-.154 8.264 8.264 0 01-5.963 0 .645.645 0 00-.686.154l-28.9 28.919a.646.646 0 00-.154.686 8.282 8.282 0 010 5.968.646.646 0 00.154.686l12.714 12.723a.644.644 0 00.686.154 8.265 8.265 0 015.963 0 .644.644 0 00.686-.154.657.657 0 11.928.929 1.971 1.971 0 01-1.393.58z" class="cls-4" data-name="Path 9016" transform="translate(-39 -47.627)"/><path id="Path_9017" d="M107.374 297.154h-2.045a.657.657 0 01-.657-.657v-2.045a.657.657 0 01.657-.657h2.045a.657.657 0 01.657.657v2.048a.657.657 0 01-.657.654zm-1.388-1.314h.731v-.731h-.731z" class="cls-4" data-name="Path 9017" transform="translate(-96.048 -261.448)"/><path id="Path_9018" d="M165.546 297.154H163.5a.657.657 0 01-.657-.657v-2.045a.657.657 0 01.657-.657h2.045a.657.657 0 01.657.657v2.048a.657.657 0 01-.656.654zm-1.388-1.314h.731v-.731h-.731z" class="cls-4" data-name="Path 9018" transform="translate(-146.58 -261.448)"/><path id="Path_9019" d="M142.2 278.087a.657.657 0 01-.657-.657v-8.842a.657.657 0 111.314 0v8.842a.657.657 0 01-.657.657z" class="cls-4" data-name="Path 9019" transform="translate(-128.074 -238.983)"/></g><path id="Path_9020" d="M162.023 338.431l3.951-3.951a.657.657 0 01.93.93l-3.951 3.951a.657.657 0 11-.93-.93" class="cls-5" data-name="Path 9020" transform="translate(-106.699 -248.993)"/><path id="Path_9021" d="M175.7 315.237l9.529-9.529a.657.657 0 01.93.93l-9.529 9.529a.657.657 0 01-.93-.93" class="cls-5" data-name="Path 9021" transform="translate(-118.583 -224.002)"/><circle id="Ellipse_241" cx="7.53" cy="7.53" r="7.53" fill="#ffdda4" data-name="Ellipse 241" transform="translate(65.639 57.91)"/><path id="Path_9022" d="M276.391 161.439a.657.657 0 01-.465-1.122l1.949-1.949a.67.67 0 00-.947-.947l-1.212 1.212a1.984 1.984 0 01-2.805-2.805l1.949-1.949a.657.657 0 01.929.929l-1.949 1.949a.67.67 0 00.947.947l1.213-1.212a1.984 1.984 0 112.805 2.805l-1.949 1.949a.655.655 0 01-.465.193z" class="cls-7" data-name="Path 9022" transform="translate(-202.69 -92.123)"/><path id="Path_9023" d="M280.383 165.06a.655.655 0 01-.465-.192l-5.149-5.149a.657.657 0 01.929-.929l5.149 5.149a.657.657 0 01-.465 1.122z" class="cls-7" data-name="Path 9023" transform="translate(-204.638 -96.388)"/><circle id="Ellipse_243" cx=".735" cy=".735" r=".735" class="cls-5" data-name="Ellipse 243" transform="translate(56.577 69.305)"/><circle id="Ellipse_244" cx=".735" cy=".735" r=".735" class="cls-5" data-name="Ellipse 244" transform="translate(58.148 70.877)"/><circle id="Ellipse_245" cx=".735" cy=".735" r=".735" class="cls-5" data-name="Ellipse 245" transform="translate(59.72 72.449)"/><path id="Path_9024" d="M152.484 100.783a.657.657 0 01-.465-1.122l1.315-1.315a.657.657 0 01.929.929l-1.315 1.315a.655.655 0 01-.464.193z" class="cls-7" data-name="Path 9024" transform="translate(-98.009 -43.888)"/><path id="Path_9025" d="M57.632 415.978a.657.657 0 01-.465-1.121l1.315-1.315a.657.657 0 01.929.929l-1.311 1.314a.655.655 0 01-.468.193z" class="cls-7" data-name="Path 9025" transform="translate(-15.613 -317.665)"/><path id="Path_9026" d="M453.65 162.356a.657.657 0 01-.465-1.122l1.315-1.315a.657.657 0 01.929.929l-1.315 1.315a.655.655 0 01-.464.193z" class="cls-5" data-name="Path 9026" transform="translate(-359.622 -97.37)"/><path id="Path_9027" d="M304.414 385.671a.657.657 0 01-.465-1.122l1.315-1.315a.657.657 0 11.929.929l-1.315 1.315a.655.655 0 01-.464.193z" class="cls-5" data-name="Path 9027" transform="translate(-229.986 -291.341)"/><path id="Path_9028" d="M373.561 346.57a.657.657 0 01-.465-1.121l1.315-1.315a.657.657 0 01.929 0l1.315 1.315a.657.657 0 01-.929.929l-.85-.85-.85.85a.655.655 0 01-.465.192z" class="cls-3" data-name="Path 9028" transform="translate(-290.052 -257.378)"/><path id="Path_9029" d="M94.114 125.52a.655.655 0 01-.465-.192l-.85-.85-.85.85a.657.657 0 11-.929-.929l1.315-1.315a.657.657 0 01.929 0l1.315 1.315a.657.657 0 01-.465 1.122z" class="cls-3" data-name="Path 9029" transform="translate(-45.017 -65.374)"/></g></svg>