<svg xmlns="http://www.w3.org/2000/svg" width="58" height="58"><defs><style>.cls-5{fill:#ffb53b}.cls-7{fill:#3bffd3}.cls-8{fill:#fff}.cls-10{fill:#4c97ff}</style></defs><g id="wallet" transform="translate(-60.865 -25.419)"><path id="Path_8909" fill="#6583fe" d="M198.839 107.559v21.374a6.858 6.858 0 01-6.858 6.86h-28.108a2.922 2.922 0 01-2.923-2.923v-29.249a2.922 2.922 0 012.923-2.923h28.109A6.821 6.821 0 01196 102a6.636 6.636 0 01.664.546q.188.177.363.367a6.835 6.835 0 011.815 4.649z" data-name="Path 8909" transform="translate(-86.029 -65.067)"/><path id="Path_8912" fill="#448ef5" d="M114.53 132.875a2.922 2.922 0 002.922 2.922h28.108a6.86 6.86 0 006.86-6.86v-21.374a6.86 6.86 0 00-6.86-6.86h-28.108a2.922 2.922 0 00-2.922 2.922z" data-name="Path 8912" transform="translate(-46.291 -65.072)"/><path id="Path_8915" fill="#8399fe" d="M336.265 194.054h-15.777a1.461 1.461 0 01-1.461-1.461V182.5a1.461 1.461 0 011.461-1.461h15.777a1.461 1.461 0 011.461 1.461v10.094a1.461 1.461 0 01-1.461 1.46z" data-name="Path 8915" transform="translate(-222.384 -134.377)"/><path id="Path_8917" fill="#d2e0f2" d="M330.872 194.054h-10.385a1.461 1.461 0 01-1.461-1.461V182.5a1.461 1.461 0 011.461-1.461h10.385a1.461 1.461 0 011.461 1.461v10.094a1.461 1.461 0 01-1.461 1.46z" data-name="Path 8917" transform="translate(-222.445 -134.377)"/><path id="Path_8919" d="M157.093 283.122a9 9 0 100-18H152.6v18z" class="cls-5" data-name="Path 8919" transform="translate(-79.043 -207.059)"/><circle id="Ellipse_234" cx="9.002" cy="9.002" r="9.002" fill="#ffdda4" data-name="Ellipse 234" transform="translate(64.468 58.059)"/><path id="Path_8920" d="M333.236 37.7a6.837 6.837 0 10-12.524 3.321l-.96 2.18a.539.539 0 00.711.711l2.18-.96a6.835 6.835 0 0010.593-5.252z" class="cls-7" data-name="Path 8920" transform="translate(-222.859 -4.311)"/><g id="Group_3981" data-name="Group 3981" transform="translate(100.103 32.094)"><circle id="Ellipse_235" cx=".768" cy=".768" r=".768" class="cls-8" data-name="Ellipse 235"/><circle id="Ellipse_236" cx=".768" cy=".768" r=".768" class="cls-8" data-name="Ellipse 236" transform="translate(2.736)"/><circle id="Ellipse_237" cx=".768" cy=".768" r=".768" class="cls-8" data-name="Ellipse 237" transform="translate(5.472)"/></g><path id="Path_8921" d="M160.034 159.125h-12.167a.9.9 0 01-.9-.9V155.4a.9.9 0 01.9-.9h12.168a.9.9 0 01.9.9v2.831a.9.9 0 01-.901.894z" class="cls-8" data-name="Path 8921" transform="translate(-74.189 -111.44)"/><path id="Path_8922" d="M154.1 205.8h-6.236a.9.9 0 01-.9-.9v-.674a.9.9 0 01.9-.9h6.236a.9.9 0 01.9.9v.674a.9.9 0 01-.9.9z" class="cls-8" data-name="Path 8922" transform="translate(-74.198 -153.594)"/><path id="Path_8923" d="M155.2 129.332h-7.249a.989.989 0 110-1.977h7.249a.989.989 0 010 1.977z" class="cls-8" data-name="Path 8923" transform="translate(-74.197 -88.003)"/><path id="Path_8925" d="M130.238 304.225h-3.907a2.076 2.076 0 00.294-1.07v-1.41h1.431a.687.687 0 100-1.374h-1.431v-1.418a1.231 1.231 0 012.463 0 .687.687 0 101.374 0 2.605 2.605 0 10-5.211 0v1.418h-.418a.687.687 0 100 1.374h.418v1.41a.71.71 0 01-.209.505 1.136 1.136 0 00.8 1.939h4.393a.687.687 0 000-1.374z" class="cls-5" data-name="Path 8925" transform="translate(-54.534 -233.925)"/><path id="Path_8926" fill="#0f0720" d="M132.176 46h-.384v-3.475a7.428 7.428 0 00-3.291-6.183 7.312 7.312 0 00.839-2.951 7.448 7.448 0 00-2.2-5.78 7.637 7.637 0 00-5.848-2.175 7.555 7.555 0 00-7.042 6.814 7.418 7.418 0 00.281 2.773H89.512a3.613 3.613 0 00-3.63 3.588V55.7a.691.691 0 001.382 0V38.609a2.237 2.237 0 012.248-2.222H115.1c.057.106.116.212.179.316l-.818 1.836a1.2 1.2 0 00.257 1.353 1.236 1.236 0 001.369.254l1.858-.809a7.546 7.546 0 003.842 1.04q.331 0 .666-.028a7.492 7.492 0 001.076-.171 6.019 6.019 0 01.47 2.345V46h-7.687a2.151 2.151 0 00-2.161 2.135v10.033a2.151 2.151 0 002.161 2.135h7.687v3.472a6.181 6.181 0 01-6.209 6.138h-12.1a9.5 9.5 0 00.42-2.8 9.7 9.7 0 00-9.746-9.633h-4.52a9.634 9.634 0 100 19.266h4.52a9.767 9.767 0 008.788-5.471H124.2a7.556 7.556 0 007.591-7.5v-.5a.691.691 0 00-1.382 0v.5a6.181 6.181 0 01-6.209 6.138h-2.057a7.474 7.474 0 003.232-6.138V60.3h6.8a2.151 2.151 0 002.161-2.135V48.132a2.151 2.151 0 00-2.16-2.132zm-48.7 21.12a8.364 8.364 0 118.363 8.267 8.325 8.325 0 01-8.368-8.27zm13.389 8.25a9.57 9.57 0 000-16.5 8.26 8.26 0 010 16.5zm25.466-36.38a6.2 6.2 0 01-3.953-.99.7.7 0 00-.66-.056l-1.843.8.811-1.821a.676.676 0 00-.056-.653 6.019 6.019 0 01-1-3.907 6.172 6.172 0 015.753-5.566 6.244 6.244 0 014.782 1.778 6.091 6.091 0 011.8 4.727 6.168 6.168 0 01-5.631 5.687zm2.5.754a7.634 7.634 0 002.917-2.254 6.075 6.075 0 012.659 5.035V46h-5.034v-3.475a7.355 7.355 0 00-.539-2.781zm-8.528 19.194a.775.775 0 01-.778-.769V48.132a.775.775 0 01.778-.769h10.446a.775.775 0 01.778.769v10.036a.775.775 0 01-.778.769zm16.648-.769a.775.775 0 01-.778.769h-3.41a2.1 2.1 0 00.147-.769V48.132a2.1 2.1 0 00-.147-.769h3.41a.775.775 0 01.778.769z" data-name="Path 8926" transform="translate(-18.308)"/><path id="Path_8927" d="M457.2 88.582h-.447v-.447a.687.687 0 10-1.374 0v.447h-.447a.687.687 0 100 1.374h.447v.444a.687.687 0 101.374 0v-.447h.447a.687.687 0 100-1.374z" class="cls-7" data-name="Path 8927" transform="translate(-339.026 -53.505)"/><path id="Path_8928" d="M246.516 424.313h-.447v-.447a.687.687 0 00-1.374 0v.447h-.447a.687.687 0 100 1.374h.447v.447a.687.687 0 101.374 0v-.447h.447a.687.687 0 100-1.374z" class="cls-5" data-name="Path 8928" transform="translate(-157.452 -343.401)"/><path id="Path_8929" d="M63.819 166.158h-.447v-.447a.687.687 0 10-1.374 0v.447h-.447a.687.687 0 100 1.374H62v.447a.687.687 0 001.374 0v-.447h.447a.687.687 0 100-1.374z" class="cls-10" data-name="Path 8929" transform="translate(0 -120.526)"/><path id="Path_8930" d="M281.8 388.55a2.007 2.007 0 112.007-2.007 2.009 2.009 0 01-2.007 2.007zm0-2.639a.632.632 0 10.632.633.633.633 0 00-.632-.633z" class="cls-5" data-name="Path 8930" transform="translate(-188.676 -310.069)"/><path id="Path_8931" d="M262.007 32.6a2.007 2.007 0 112.007-2.007 2.009 2.009 0 01-2.007 2.007zm0-2.639a.632.632 0 10.633.632.633.633 0 00-.633-.629z" class="cls-10" data-name="Path 8931" transform="translate(-171.617 -2.735)"/></g></svg>