<svg xmlns="http://www.w3.org/2000/svg" width="80" height="58"><defs><style>.cls-2{fill:#ebf3ff}.cls-4{fill:#0f0720}.cls-5{fill:#4c97ff}.cls-7{fill:#3bffd3}.cls-9{fill:none;stroke:#0f0720;stroke-width:1.5px}</style></defs><g id="security" transform="translate(3.281 -29.169)"><path id="Path_3845" fill="#fff" d="M119.783 100.99h-48.5a2.78 2.78 0 01-2.783-2.777v-51a2.78 2.78 0 012.783-2.776h48.5a2.78 2.78 0 012.783 2.776v51a2.78 2.78 0 01-2.783 2.777z" data-name="Path 3845" transform="translate(-57.265 -14.546)"/><path id="Path_3846" d="M128.454 146.763h-14.825a.725.725 0 01-.725-.725v-14.825a.725.725 0 01.725-.725h14.824a.725.725 0 01.725.725v14.824a.725.725 0 01-.724.726z" class="cls-2" data-name="Path 3846" transform="translate(-94.983 -88.027)"/><circle id="Ellipse_165" cx="9.143" cy="9.143" r="9.143" class="cls-2" data-name="Ellipse 165" transform="translate(42.13 55.55)"/><path id="Path_3847" fill="#ffc76a" d="M122.567 52.591V47.2a2.773 2.773 0 00-2.783-2.763h-48.5A2.773 2.773 0 0068.5 47.2v5.388z" data-name="Path 3847" transform="translate(-57.265 -14.546)"/><path id="Path_3848" d="M115.5 39.441H67.013a3.513 3.513 0 00-3.513 3.5v46.041a.73.73 0 001.461 0V42.945a2.052 2.052 0 012.052-2.045H115.5a2.052 2.052 0 012.052 2.047v4.684H70.221a.729.729 0 100 1.457h47.336v44.85a2.052 2.052 0 01-2.052 2.047H67.013a2.052 2.052 0 01-2.052-2.047.73.73 0 00-1.461 0 3.513 3.513 0 003.513 3.5H115.5a3.513 3.513 0 003.513-3.5V42.945a3.513 3.513 0 00-3.513-3.504z" class="cls-4" data-name="Path 3848" transform="translate(-52.991 -10.272)"/><path id="Path_3852" d="M175.414 153.555a24.452 24.452 0 01-15.957 22.262 24.452 24.452 0 01-15.957-22.262s.094-6.611.3-8.865a.72.72 0 01.718-.654c2.441 0 11.363-.186 14.5-2.588a.723.723 0 01.876 0c3.138 2.4 12.059 2.584 14.5 2.588a.72.72 0 01.718.654c.206 2.254.3 8.865.3 8.865z" class="cls-5" data-name="Path 3852" transform="translate(-121.093 -97.09)"/><path id="Path_3853" fill="#81b6ff" d="M269.457 153.555a24.452 24.452 0 01-15.957 22.262V141.3a.725.725 0 01.438.148c3.138 2.4 12.059 2.584 14.5 2.588a.72.72 0 01.718.654c.206 2.254.3 8.865.3 8.865z" data-name="Path 3853" transform="translate(-215.099 -97.09)"/><path id="Path_3854" d="M185.113 199.917a19.213 19.213 0 01-7.671-6.294 20.826 20.826 0 01-3.933-11.348c.025-1.717.069-3.612.121-5.2a60.476 60.476 0 004.437-.38 25.589 25.589 0 007.045-1.732 25.576 25.576 0 007.046 1.732c1.554.2 3.1.312 4.437.38.052 1.587.1 3.482.121 5.2a20.825 20.825 0 01-3.933 11.348 19.214 19.214 0 01-7.67 6.294z" class="cls-7" data-name="Path 3854" transform="translate(-146.746 -125.977)"/><path id="Path_3855" fill="#abffec" d="M253.5 174.963a25.577 25.577 0 007.046 1.732c1.554.2 3.1.312 4.437.38.052 1.587.1 3.482.121 5.2a20.825 20.825 0 01-3.933 11.348 19.214 19.214 0 01-7.671 6.294z" data-name="Path 3855" transform="translate(-215.109 -125.976)"/><circle id="Ellipse_166" cx="5.498" cy="5.498" r="5.498" class="cls-9" data-name="Ellipse 166" transform="translate(32.871 53.455)"/><path id="Path_3856" d="M240.459 227.859a2.213 2.213 0 112.213-2.213 2.215 2.215 0 01-2.213 2.213zm0-2.975a.762.762 0 10.762.762.763.763 0 00-.762-.762z" class="cls-4" data-name="Path 3856" transform="translate(-202.089 -167.441)"/><path id="Path_3857" d="M241.946 246.878a.725.725 0 01-.725-.725.762.762 0 00-1.524 0 .725.725 0 11-1.451 0 2.213 2.213 0 114.426 0 .725.725 0 01-.726.725z" class="cls-4" data-name="Path 3857" transform="translate(-202.089 -184.962)"/><g id="Group_1784" data-name="Group 1784" transform="translate(17.026 77.082)"><path id="Path_3858" d="M109.295 386.584h-1.813a.725.725 0 110-1.451h1.813a.725.725 0 110 1.451z" class="cls-2" data-name="Path 3858" transform="translate(-106.756 -382.634)"/><path id="Path_3859" d="M151 386.584h-10.519a.725.725 0 010-1.451H151a.725.725 0 110 1.451z" class="cls-4" data-name="Path 3859" transform="translate(-134.969 -382.634)"/><path id="Path_3860" d="M113.647 369.357h-6.165a.725.725 0 110-1.451h6.165a.725.725 0 010 1.451z" class="cls-2" data-name="Path 3860" transform="translate(-106.756 -367.906)"/></g><path id="Path_3861" d="M109.295 344.584h-1.813a.725.725 0 110-1.451h1.813a.725.725 0 110 1.451z" class="cls-4" data-name="Path 3861" transform="translate(-89.737 -269.702)"/><path id="Path_3862" d="M376.854 355.114a2.41 2.41 0 112.41-2.41 2.413 2.413 0 01-2.41 2.41zm0-3.369a.959.959 0 10.959.959.96.96 0 00-.959-.96z" class="cls-4" data-name="Path 3862" transform="translate(-318.464 -275.767)"/><path id="Path_3863" d="M378.539 376.655a.725.725 0 01-.725-.725.959.959 0 00-1.919 0 .725.725 0 01-1.451 0 2.41 2.41 0 014.82 0 .725.725 0 01-.725.725z" class="cls-4" data-name="Path 3863" transform="translate(-318.464 -295.624)"/><path id="Path_3864" d="M343.6 386.584h-1.813a.725.725 0 110-1.451h1.813a.725.725 0 110 1.451z" class="cls-2" data-name="Path 3864" transform="translate(-289.94 -305.552)"/><path id="Path_3865" d="M343.6 369.357h-1.813a.725.725 0 110-1.451h1.813a.725.725 0 010 1.451z" class="cls-2" data-name="Path 3865" transform="translate(-289.94 -290.824)"/><path id="Path_3866" d="M461.137 101.586a.722.722 0 01-.513-.213l-.938-.938-.938.938a.725.725 0 01-1.026-1.026l1.451-1.451a.725.725 0 011.026 0l1.451 1.451a.725.725 0 01-.513 1.238z" class="cls-5" data-name="Path 3866" transform="translate(-387.451 -45.922)"/><path id="Path_3867" d="M202.214 468.414a.722.722 0 01-.513-.212l-.938-.938-.938.938a.725.725 0 11-1.026-1.026l1.451-1.451a.725.725 0 011.026 0l1.451 1.451a.725.725 0 01-.513 1.238z" class="cls-5" data-name="Path 3867" transform="translate(-201.869 -401.315)"/><path id="Path_3868" fill="#ffb53b" d="M25.216 160.983a.725.725 0 01-.513-1.238l1.451-1.451a.725.725 0 011.026 1.026l-1.451 1.451a.722.722 0 01-.513.213z" data-name="Path 3868" transform="translate(-19.42 -111.62)"/><path id="Path_3869" d="M456.569 207.587a.725.725 0 01-.513-1.238l1.451-1.451a.725.725 0 011.026 1.026l-1.451 1.451a.723.723 0 01-.513.212z" class="cls-7" data-name="Path 3869" transform="translate(-382.026 -140.43)"/><path id="Path_3870" d="M30.216 396.249a.725.725 0 01-.513-1.238l1.451-1.451a.725.725 0 011.026 1.026l-1.451 1.451a.723.723 0 01-.513.212z" class="cls-7" data-name="Path 3870" transform="translate(-23.695 -312.575)"/><path id="Path_3871" d="M175.414 153.555a24.452 24.452 0 01-15.957 22.262 24.452 24.452 0 01-15.957-22.262s.094-6.611.3-8.865a.72.72 0 01.718-.654c2.441 0 11.363-.186 14.5-2.588a.723.723 0 01.876 0c3.138 2.4 12.059 2.584 14.5 2.588a.72.72 0 01.718.654c.206 2.254.3 8.865.3 8.865z" class="cls-9" data-name="Path 3871" transform="translate(-121.093 -97.09)"/></g></svg>