<svg xmlns="http://www.w3.org/2000/svg" width="44" height="52"><defs><style>.cls-1{fill:#d2e0f2}.cls-2{fill:#4c97ff}.cls-4{fill:#3bffd3}.cls-6{fill:#ffb53b}.cls-7{fill:#0f0720}</style></defs><g id="mental" transform="translate(-102.71 -33.216)"><path id="Path_9117" d="M180.688 197.116a4.058 4.058 0 00-4.779.876v-3.149a1.2 1.2 0 00-1.2-1.2h-16.427a1.2 1.2 0 00-1.169.92l-2.485 10.29a1.2 1.2 0 001.169 1.484H158l-.537 8.762a1.2 1.2 0 001.2 1.276h5.574v5.4a1.2 1.2 0 001.2 1.2h9.265a1.2 1.2 0 001.2-1.2v-16.433l.022.014c1.881 1.086 4.47.122 5.784-2.154s.861-5.002-1.02-6.086z" class="cls-1" data-name="Path 9117" transform="translate(-45.648 -141.14)"/><path id="Path_9119" d="M310.532 374.2v8.3a1.122 1.122 0 01-1.122 1.122H299.2a1.122 1.122 0 01-1.122-1.122v-8.3a1.122 1.122 0 011.122-1.122h10.207a1.122 1.122 0 011.125 1.122z" class="cls-2" data-name="Path 9119" transform="translate(-171.753 -299.003)"/><path id="Path_9120" fill="#dcfdee" d="M320.2 393.6h-2.008a.6.6 0 010-1.2h2.008a.6.6 0 010 1.2z" data-name="Path 9120" transform="translate(-188.933 -316)"/><path id="Path_9122" d="M310.532 400.484v6.127a1.122 1.122 0 01-1.122 1.122H299.2a1.122 1.122 0 01-1.122-1.122v-1.881h2.122a1.2 1.2 0 00.85-.352l1.6-1.6a1.207 1.207 0 01.851-.352h4.595a1.21 1.21 0 00.471-.1 1.185 1.185 0 00.379-.256z" class="cls-4" data-name="Path 9122" transform="translate(-171.753 -323.118)"/><path id="Path_9126" fill="#ffdda4" d="M187.358 38.219a8.592 8.592 0 00-6.614 13.815 15.68 15.68 0 013.2 9.058h7.245a16.284 16.284 0 013.277-9.16 8.593 8.593 0 00-7.108-13.712z" data-name="Path 9126" transform="translate(-67.034 -4.399)"/><path id="Path_9128" d="M220.473 230.561h-6.706a1.2 1.2 0 01-1.2-1.2v-3.928a1.2 1.2 0 011.2-1.2h6.706a1.2 1.2 0 011.2 1.2v3.928a1.2 1.2 0 01-1.2 1.2z" class="cls-1" data-name="Path 9128" transform="translate(-96.581 -168.051)"/><path id="Path_9129" d="M381.389 319.719a1.755 1.755 0 111.241-.513 1.75 1.75 0 01-1.241.513zm.816-.938zm-.816-1.37a.553.553 0 10.391.162.549.549 0 00-.391-.162z" class="cls-4" data-name="Path 9129" transform="translate(-243.488 -248.974)"/><path id="Path_9130" d="M411.85 215.245a1.755 1.755 0 111.241-.513 1.75 1.75 0 01-1.241.513zm.816-.938zm-.816-1.369a.553.553 0 10.391.162.551.551 0 00-.391-.163z" class="cls-6" data-name="Path 9130" transform="translate(-270.256 -157.059)"/><path id="Path_9131" d="M107.422 257.918h-.391v-.391a.6.6 0 10-1.2 0v.391h-.391a.6.6 0 100 1.2h.391v.391a.6.6 0 001.2 0v-.391h.391a.6.6 0 100-1.2z" class="cls-2" data-name="Path 9131" transform="translate(-1.871 -196.817)"/><path id="Path_9132" d="M443.335 236.308h-.391v-.391a.6.6 0 10-1.2 0v.391h-.391a.6.6 0 100 1.2h.391v.391a.6.6 0 101.2 0v-.391h.391a.6.6 0 000-1.2z" class="cls-2" data-name="Path 9132" transform="translate(-297.226 -177.805)"/><path id="Path_9133" d="M105.295 147.432h-.395v-.391a.6.6 0 10-1.2 0v.391h-.391a.6.6 0 000 1.2h.391v.391a.6.6 0 101.2 0v-.391h.391a.6.6 0 000-1.2z" class="cls-4" data-name="Path 9133" transform="translate(0 -99.613)"/><path id="Path_9141" d="M235.555 155.979a.6.6 0 00-.6.6v1.109a2.086 2.086 0 01-2.122 0v-1.108a.6.6 0 10-1.2 0v7.6a.6.6 0 101.2 0v-2.076a3.316 3.316 0 002.122 0v2.076a.6.6 0 001.2 0v-7.6a.6.6 0 00-.6-.6zm-.6 4.811a2.086 2.086 0 01-2.122 0v-1.783a3.316 3.316 0 002.122 0z" class="cls-6" data-name="Path 9141" transform="translate(-113.351 -108.005)"/><g id="Group_4006" data-name="Group 4006" transform="translate(106.154 33.216)"><path id="Path_9142" d="M178.775 73.47h-10.207a1.725 1.725 0 00-1.723 1.723v6.039h-5.8a.6.6 0 01-.6-.6v-4.8h2.435a1.791 1.791 0 001.275-.528l.406-.406a.6.6 0 00-.85-.85l-.406.406a.6.6 0 01-.425.176h-8.61a.6.6 0 01-.6-.638l.5-8.2h.625a1.807 1.807 0 001.641-1.055l.066-.144a.6.6 0 00-1.094-.5l-.066.144a.6.6 0 01-.547.352h-3.4a.6.6 0 01-.584-.742l2.484-10.29a.6.6 0 01.584-.46h3.067a15.391 15.391 0 01.491 2.734 1.8 1.8 0 00-.877 1.544v3.928a1.805 1.805 0 001.8 1.8h6.706a1.805 1.805 0 001.8-1.8V57.38a1.8 1.8 0 00-.866-1.543 15.1 15.1 0 01.514-2.735h3.794a.6.6 0 01.6.6v3.149a.6.6 0 001.014.436 3.471 3.471 0 014.065-.792c1.591.918 1.953 3.28.807 5.265a4.67 4.67 0 01-2.369 2.075 3.011 3.011 0 01-2.589-.138l-.022-.013a.6.6 0 00-.908.517v6.491a.6.6 0 101.2 0v-5.581a4.352 4.352 0 002.736-.148 5.872 5.872 0 002.99-2.6c1.477-2.559.918-5.657-1.247-6.907a4.41 4.41 0 00-4.479.19V53.7a1.805 1.805 0 00-1.8-1.8h-3.4a16.308 16.308 0 012.193-4.01 9.194 9.194 0 10-14.681.11 14.775 14.775 0 012.144 3.9h-2.682a1.8 1.8 0 00-1.753 1.38l-2.484 10.29a1.8 1.8 0 001.757 2.23h1.566l-.5 8.125a1.8 1.8 0 001.8 1.914h4.973v4.8a1.805 1.805 0 001.8 1.8h5.8v1.059a1.725 1.725 0 001.723 1.723h3.671a.6.6 0 100-1.2h-3.671a.521.521 0 01-.521-.521v-1.28h1.514a1.81 1.81 0 001.275-.528l1.6-1.6a.6.6 0 01.427-.177h4.594a1.8 1.8 0 00.707-.144 1.78 1.78 0 00.568-.384l.567-.567v4.676a.521.521 0 01-.521.521h-3.159a.6.6 0 000 1.2h3.158a1.725 1.725 0 001.723-1.723v-8.3a1.725 1.725 0 00-1.719-1.724zm-13.1-12.162a.6.6 0 01-.6.6h-6.706a.6.6 0 01-.6-.6V57.38a.6.6 0 01.6-.6h6.706a.6.6 0 01.6.6zm-11.945-19.03a7.992 7.992 0 1114.409 4.9 17 17 0 00-3.319 8.4h-6.194a16.169 16.169 0 00-3.25-8.309 7.907 7.907 0 01-1.646-4.991zm24.146 36.259a.581.581 0 01-.185.125.606.606 0 01-.237.049h-4.595a1.8 1.8 0 00-1.276.528l-1.6 1.6a.6.6 0 01-.424.175h-1.514v-5.821a.521.521 0 01.521-.521h10.207a.521.521 0 01.521.521v1.924z" class="cls-7" data-name="Path 9142" transform="translate(-147.404 -33.216)"/><path id="Path_9143" d="M345.922 103.723a.6.6 0 00.6.6h1.232a.6.6 0 000-1.2h-1.232a.6.6 0 00-.6.6z" class="cls-7" data-name="Path 9143" transform="translate(-320.129 -94.718)"/><path id="Path_9144" d="M340.8 75a.6.6 0 00.352-.114l1.227-.886a.6.6 0 10-.7-.974l-1.232.891A.6.6 0 00340.8 75z" class="cls-7" data-name="Path 9144" transform="translate(-315.089 -68.139)"/><path id="Path_9145" d="M341.148 126.04a.6.6 0 10-.7.974l1.232.891a.6.6 0 10.7-.974z" class="cls-7" data-name="Path 9145" transform="translate(-315.09 -114.781)"/><path id="Path_9146" d="M133.793 103.723a.6.6 0 00-.6-.6h-1.233a.6.6 0 100 1.2h1.232a.6.6 0 00.601-.6z" class="cls-7" data-name="Path 9146" transform="translate(-131.359 -94.718)"/><path id="Path_9147" d="M137.335 74l1.232.891a.6.6 0 10.7-.974l-1.232-.891a.6.6 0 00-.7.974z" class="cls-7" data-name="Path 9147" transform="translate(-136.398 -68.138)"/><path id="Path_9148" d="M139.407 126.174a.6.6 0 00-.839-.135l-1.232.891a.6.6 0 00.7.974l1.232-.891a.6.6 0 00.135-.839z" class="cls-7" data-name="Path 9148" transform="translate(-136.399 -114.781)"/></g><path id="Path_9149" d="M232.384 238.53h-4.27a.6.6 0 110-1.2h4.27a.6.6 0 110 1.2z" class="cls-2" data-name="Path 9149" transform="translate(-109.731 -179.575)"/><path id="Path_9150" d="M232.384 255.517h-4.27a.6.6 0 110-1.2h4.27a.6.6 0 110 1.2z" class="cls-2" data-name="Path 9150" transform="translate(-109.731 -194.52)"/></g></svg>