<svg xmlns="http://www.w3.org/2000/svg" width="65" height="69"><defs><style>.cls-2{fill:#4c97ff}.cls-3{fill:#0f0720}.cls-4{fill:#ffd63b}.cls-5{fill:#ffdda4}.cls-6{fill:#ffb53b}.cls-7{fill:#3bffd3}.cls-8{fill:#448ef5}</style></defs><g id="web-traffic" transform="translate(-51 -37.654)"><path id="Path_9032" fill="#fff" d="M119.407 102.029V146.8a2.371 2.371 0 01-2.378 2.363H58.378A2.371 2.371 0 0156 146.8v-44.77a2.371 2.371 0 012.378-2.363h58.651a2.371 2.371 0 012.378 2.363z" data-name="Path 9032" transform="translate(-4.204 -52.134)"/><path id="Path_9034" d="M119.407 107.339v-5.284a2.384 2.384 0 00-2.378-2.389H58.378A2.384 2.384 0 0056 102.055v5.284z" class="cls-2" data-name="Path 9034" transform="translate(-4.204 -52.134)"/><g id="Group_3985" data-name="Group 3985" transform="translate(51 46.736)"><path id="Path_9035" d="M89.082 119.475v.023a.8.8 0 001.593 0v-.023a.8.8 0 10-1.593 0z" class="cls-3" data-name="Path 9035" transform="translate(-83.016 -114.854)"/><path id="Path_9036" d="M108.407 119.475v.023a.8.8 0 001.593 0v-.023a.8.8 0 10-1.593 0z" class="cls-3" data-name="Path 9036" transform="translate(-99.262 -114.854)"/><path id="Path_9037" d="M127.731 119.475v.023a.8.8 0 101.593 0v-.023a.8.8 0 10-1.593 0z" class="cls-3" data-name="Path 9037" transform="translate(-115.568 -114.854)"/><path id="Path_9038" d="M115.207 99.492A.79.79 0 00116 98.7v-.887a3.165 3.165 0 00-3.171-3.151H54.171A3.165 3.165 0 0051 97.817v5.226a.79.79 0 00.793.788h62.622V142.6a1.582 1.582 0 01-1.585 1.576H54.171a1.582 1.582 0 01-1.585-1.576v-35.22a.793.793 0 00-1.585 0v35.22a3.165 3.165 0 003.171 3.151h58.659A3.165 3.165 0 00116 142.6v-39.556a.79.79 0 00-.793-.788H52.585v-4.439a1.582 1.582 0 011.585-1.576h58.659a1.582 1.582 0 011.585 1.576v.883a.79.79 0 00.793.788z" class="cls-3" data-name="Path 9038" transform="translate(-51 -94.666)"/></g><path id="Path_9039" d="M117.176 298.577h-2.549a.478.478 0 01-.478-.478v-14.474a.478.478 0 01.478-.478h2.549a.478.478 0 01.478.478V298.1a.478.478 0 01-.478.477z" class="cls-4" data-name="Path 9039" transform="translate(-53.14 -206.794)"/><path id="Path_9040" d="M84.464 343.31h-2.549a.478.478 0 01-.478-.478v-6a.478.478 0 01.478-.478h2.549a.478.478 0 01.478.478v6a.478.478 0 01-.478.478z" class="cls-4" data-name="Path 9040" transform="translate(-25.589 -251.548)"/><path id="Path_9041" d="M149.889 334.329h-2.549a.478.478 0 01-.478-.478v-7.7a.478.478 0 01.478-.478h2.549a.478.478 0 01.478.478v7.7a.478.478 0 01-.478.478z" class="cls-4" data-name="Path 9041" transform="translate(-80.668 -242.563)"/><path id="Path_9042" d="M182.6 293.533h-2.549a.478.478 0 01-.478-.478v-15.43a.478.478 0 01.478-.478h2.549a.478.478 0 01.478.478v15.43a.478.478 0 01-.478.478z" class="cls-5" data-name="Path 9042" transform="translate(-108.197 -201.747)"/><path id="Path_9043" d="M215.314 304.064h-2.549a.478.478 0 01-.478-.478v-13.435a.478.478 0 01.478-.478h2.549a.478.478 0 01.478.478v13.435a.478.478 0 01-.478.478z" class="cls-5" data-name="Path 9043" transform="translate(-135.724 -212.283)"/><path id="Path_9044" d="M248.027 273.356h-2.549a.478.478 0 01-.478-.478v-19.253a.478.478 0 01.478-.478h2.549a.478.478 0 01.478.478v19.253a.478.478 0 01-.478.478z" class="cls-6" data-name="Path 9044" transform="translate(-163.252 -181.558)"/><path id="Path_9045" d="M280.74 309.108h-2.549a.478.478 0 01-.478-.478v-12.479a.478.478 0 01.478-.478h2.549a.478.478 0 01.478.478v12.479a.478.478 0 01-.478.478z" class="cls-6" data-name="Path 9045" transform="translate(-190.78 -217.33)"/><path id="Path_9046" d="M313.452 268.312H310.9a.478.478 0 01-.478-.478v-20.209a.478.478 0 01.478-.478h2.549a.478.478 0 01.478.478v20.209a.478.478 0 01-.475.478z" class="cls-7" data-name="Path 9046" transform="translate(-218.308 -176.51)"/><path id="Path_9047" d="M346.165 278.843h-2.549a.478.478 0 01-.478-.478v-18.214a.478.478 0 01.478-.478h2.549a.478.478 0 01.478.478v18.214a.478.478 0 01-.478.478z" class="cls-7" data-name="Path 9047" transform="translate(-245.836 -187.048)"/><path id="Path_9048" d="M378.878 258.666h-2.549a.478.478 0 01-.478-.478v-22.037a.478.478 0 01.478-.478h2.549a.478.478 0 01.478.478v22.037a.478.478 0 01-.478.478z" class="cls-2" data-name="Path 9048" transform="translate(-273.364 -166.857)"/><path id="Path_9049" d="M411.59 217.87h-2.549a.478.478 0 01-.478-.478v-29.767a.478.478 0 01.478-.478h2.549a.478.478 0 01.478.478v29.767a.478.478 0 01-.478.478z" class="cls-2" data-name="Path 9049" transform="translate(-300.916 -126.025)"/><path id="Path_9050" d="M121.412 180.4a2.646 2.646 0 10-4.535 1.85 2.636 2.636 0 00-.757 1.85.8.8 0 101.593 0 1.053 1.053 0 012.106 0 .8.8 0 101.593 0 2.636 2.636 0 00-.757-1.85 2.636 2.636 0 00.757-1.85zm-2.646-1.053a1.053 1.053 0 11-1.053 1.053 1.054 1.054 0 011.053-1.051z" class="cls-2" data-name="Path 9050" transform="translate(-54.8 -117.986)"/><circle id="Ellipse_246" cx=".89" cy=".89" r=".89" class="cls-5" data-name="Ellipse 246" transform="translate(61.513 69.123)"/><circle id="Ellipse_247" cx=".89" cy=".89" r=".89" class="cls-5" data-name="Ellipse 247" transform="translate(64.143 69.123)"/><circle id="Ellipse_248" cx=".89" cy=".89" r=".89" class="cls-5" data-name="Ellipse 248" transform="translate(66.823 69.123)"/><path id="Path_9054" d="M367.386 56.38a.8.8 0 01-.8-.8.959.959 0 00-.958-.958.8.8 0 010-1.593.959.959 0 00.958-.958.8.8 0 111.593 0 .959.959 0 00.958.958.8.8 0 010 1.593.959.959 0 00-.958.958.8.8 0 01-.793.8z" class="cls-8" data-name="Path 9054" transform="translate(-264.101 -11.453)"/><path id="Path_9055" d="M172.417 42.757a.8.8 0 01-.8-.8.959.959 0 00-.958-.958.8.8 0 010-1.593.959.959 0 00.958-.958.8.8 0 111.593 0 .959.959 0 00.958.958.8.8 0 010 1.593.959.959 0 00-.958.958.8.8 0 01-.793.8z" class="cls-7" data-name="Path 9055" transform="translate(-100.029)"/><path id="Path_9056" d="M275.265 437.319a.8.8 0 01-.563-.233l-1.751-1.751a.8.8 0 010-1.126l1.751-1.751a.8.8 0 011.127 0l1.751 1.751a.8.8 0 010 1.126l-1.751 1.751a.8.8 0 01-.564.233zm-.625-2.548l.625.625.625-.625-.625-.625z" class="cls-6" data-name="Path 9056" transform="translate(-186.581 -332.279)"/><path id="Path_9057" d="M226.84 447.453a.794.794 0 01-.563-.233l-1.751-1.751a.8.8 0 010-1.126l1.751-1.751a.8.8 0 011.127 0l1.751 1.751a.8.8 0 010 1.126l-1.755 1.751a.8.8 0 01-.563.233zm-.625-2.548l.625.625.625-.625-.625-.625z" class="cls-8" data-name="Path 9057" transform="translate(-145.83 -340.799)"/><text id="SEO" fill="#4c97ff" font-family="Poppins-Bold, Poppins" font-size="7" font-weight="700" transform="translate(71 65.654)"><tspan x="0" y="0">SEO</tspan></text></g></svg>