<svg xmlns="http://www.w3.org/2000/svg" width="83" height="70"><defs><style>.cls-3{fill:#4c97ff}.cls-2{fill:#ffb53b}.cls-5{fill:#fff}.cls-7{fill:#0f0720}</style></defs><g id="web-development" transform="translate(0 -42.499)"><path id="Path_8707" fill="#4c97ff" d="M62.024 93.448h-.094a17.868 17.868 0 01-13.53-6.233 27.393 27.393 0 00-20.932-9.581C12.313 77.7-.194 90.593 0 105.935A27.762 27.762 0 0027.6 133.5a27.2 27.2 0 0011.923-2.736 9.113 9.113 0 019.559 1.011 20.844 20.844 0 0012.782 4.391 21.362 21.362 0 00.163-42.719z" data-name="Path 8707" opacity=".1" transform="translate(0 -29.401)"/><path id="Path_8709" d="M365.915 439.768a.816.816 0 01-.816-.816.982.982 0 00-.98-.981.816.816 0 110-1.632.981.981 0 00.98-.981.816.816 0 011.632 0 .982.982 0 00.981.981.816.816 0 010 1.632.982.982 0 00-.981.981.816.816 0 01-.816.816z" class="cls-2" data-name="Path 8709" transform="translate(-304.434 -327.748)"/><path id="Path_8710" d="M110.645 47.726a.816.816 0 01-.816-.816.983.983 0 00-.982-.982.816.816 0 010-1.632.983.983 0 00.982-.982.816.816 0 111.632 0 .983.983 0 00.982.982.816.816 0 010 1.632.983.983 0 00-.982.982.816.816 0 01-.816.816z" class="cls-3" data-name="Path 8710" transform="translate(-90.527)"/><path id="Path_8711" d="M89.35 124.184a.815.815 0 01-.577-.239l-1.8-1.8a.816.816 0 010-1.154l1.8-1.8a.816.816 0 011.154 0l1.8 1.8a.816.816 0 010 1.154l-1.8 1.8a.815.815 0 01-.577.239zm-.644-2.613l.644.644.644-.644-.644-.643z" class="cls-2" data-name="Path 8711" transform="translate(-72.682 -63.919)"/><path id="Path_8712" fill="#3bffd3" d="M143.706 107.875a.816.816 0 01-.816-.816.983.983 0 00-.982-.982.816.816 0 010-1.632.983.983 0 00.982-.982.816.816 0 111.632 0 .983.983 0 00.982.982.816.816 0 010 1.632.983.983 0 00-.982.982.816.816 0 01-.816.816z" data-name="Path 8712" transform="translate(-118.231 -50.334)"/><path id="Path_8713" d="M230.353 72.978v51.542a2.454 2.454 0 01-2.446 2.46h-35.88a2.454 2.454 0 01-2.446-2.46V72.978a2.454 2.454 0 012.446-2.46h35.88a2.454 2.454 0 012.446 2.46z" class="cls-5" data-name="Path 8713" transform="translate(-159.192 -23.447)"/><path id="Path_8717" d="M230.353 78.374v-5.41a2.446 2.446 0 00-2.446-2.446h-35.88a2.446 2.446 0 00-2.446 2.446v5.41h40.773z" class="cls-3" data-name="Path 8717" transform="translate(-159.192 -23.447)"/><path id="Path_8722" d="M305.357 273.174h-6a.841.841 0 00-.849.737.817.817 0 00.813.9h6.031a.817.817 0 000-1.635z" class="cls-3" data-name="Path 8722" transform="translate(-250.151 -192.855)"/><path id="Path_8723" d="M361.983 273.174H359.3a.817.817 0 100 1.634h2.714a.817.817 0 00.813-.9.841.841 0 00-.849-.737z" class="cls-2" data-name="Path 8723" transform="translate(-300.394 -192.855)"/><path id="Path_8724" d="M354.324 294.144H344.3a.817.817 0 100 1.634h10.059a.818.818 0 00.813-.9.841.841 0 00-.848-.734z" class="cls-2" data-name="Path 8724" transform="translate(-287.861 -210.387)"/><path id="Path_8725" d="M302.909 294.144h-3.547a.841.841 0 00-.849.737.817.817 0 00.813.9h3.582a.817.817 0 000-1.635z" class="cls-3" data-name="Path 8725" transform="translate(-250.14 -210.387)"/><path id="Path_8728" d="M272.085 331.975h-2.731a.841.841 0 00-.849.737.817.817 0 00.813.9h2.766a.817.817 0 100-1.635z" class="cls-3" data-name="Path 8728" transform="translate(-224.991 -242.016)"/><path id="Path_8729" d="M321.245 331.975h-10.622a.817.817 0 100 1.635h10.657a.817.817 0 00.813-.9.841.841 0 00-.848-.735z" class="cls-3" data-name="Path 8729" transform="translate(-259.641 -242.016)"/><path id="Path_8730" fill="#ffdda4" d="M121.67 181.713h-17.69a1.228 1.228 0 01-1.228-1.228V168.97a1.228 1.228 0 011.228-1.228h17.69a1.228 1.228 0 011.228 1.228v11.515a1.228 1.228 0 01-1.228 1.228z" data-name="Path 8730" transform="translate(-86.13 -104.688)"/><path id="Path_8731" d="M126.828 199.071a.814.814 0 01-.577-.239l-1.965-1.965a.816.816 0 010-1.154l1.965-1.965a.816.816 0 011.149 1.152l-1.387 1.388 1.387 1.388a.816.816 0 01-.577 1.394z" class="cls-2" data-name="Path 8731" transform="translate(-103.943 -126.244)"/><path id="Path_8732" d="M183.687 193.509a.814.814 0 01.577.239l1.965 1.965a.816.816 0 010 1.154l-1.965 1.965a.816.816 0 01-1.154-1.154l1.388-1.388-1.388-1.39a.816.816 0 01.577-1.394z" class="cls-2" data-name="Path 8732" transform="translate(-153.234 -126.244)"/><path id="Path_8733" d="M153.5 199.071a.816.816 0 01-.71-1.218l2.219-3.93a.816.816 0 111.421.8l-2.219 3.93a.816.816 0 01-.711.418z" class="cls-2" data-name="Path 8733" transform="translate(-127.937 -126.244)"/><path id="Path_8734" d="M117.557 390.333H77.279a1.632 1.632 0 01-1.632-1.632V377.5a1.632 1.632 0 011.632-1.632h40.277a1.632 1.632 0 011.632 1.632v11.2a1.632 1.632 0 01-1.631 1.633z" class="cls-5" data-name="Path 8734" transform="translate(-63.303 -278.65)"/><g id="Group_3976" data-name="Group 3976" transform="translate(11.528 46.255)"><path id="Path_8735" d="M223.457 89.518a.816.816 0 00-.816.816v.024a.816.816 0 101.632 0v-.024a.816.816 0 00-.816-.816z" class="cls-7" data-name="Path 8735" transform="translate(-198.068 -85.602)"/><path id="Path_8736" d="M242.772 89.518a.816.816 0 00-.816.816v.024a.816.816 0 101.632 0v-.024a.816.816 0 00-.816-.816z" class="cls-7" data-name="Path 8736" transform="translate(-214.26 -85.602)"/><path id="Path_8737" d="M262.086 89.518a.816.816 0 00-.816.816v.024a.816.816 0 101.632 0v-.024a.816.816 0 00-.816-.816z" class="cls-7" data-name="Path 8737" transform="translate(-230.451 -85.602)"/><path id="Path_8738" d="M127.862 65.517H92.3a3.26 3.26 0 00-3.228 3.283v8.97a.809.809 0 101.617 0v-2.719h38.79v45.242a1.629 1.629 0 01-1.616 1.638h-12.448v-3.884a2.446 2.446 0 00-2.426-2.46H94.335a.82.82 0 000 1.64h18.654a.816.816 0 01.809.82V129.3a.816.816 0 01-.809.82H73.073a.816.816 0 01-.809-.82v-11.252a.816.816 0 01.809-.82H89.88a.814.814 0 00.809-.82V97.139h3.9a2.042 2.042 0 002.025-2.054V83.514a2.042 2.042 0 00-2.025-2.054H77.056a2.042 2.042 0 00-2.025 2.054v4.966h-.825a3.588 3.588 0 00-3.559 3.608v5.342a3.588 3.588 0 003.559 3.608h6.463a1.978 1.978 0 010 3.956h-6.463a3.609 3.609 0 000 7.217h6.168a1.957 1.957 0 011.941 1.968v1.409h-9.242a2.446 2.446 0 00-2.426 2.46V129.3a2.446 2.446 0 002.426 2.46h39.916a2.446 2.446 0 002.426-2.46v-5.729h12.447a3.26 3.26 0 003.233-3.278V68.8a3.26 3.26 0 00-3.233-3.283zm-51.215 18a.412.412 0 01.408-.414h17.532a.412.412 0 01.408.414v11.568a.411.411 0 01-.408.414H77.056a.412.412 0 01-.408-.414zm3.726 27.058h-6.167a1.969 1.969 0 010-3.937h6.463a3.618 3.618 0 000-7.236h-6.463a1.957 1.957 0 01-1.941-1.969v-5.345a1.957 1.957 0 011.941-1.968h.825v4.966a2.042 2.042 0 002.025 2.054h12.016v18.449h-5.14v-1.409a3.588 3.588 0 00-3.559-3.609zm10.316-37.163V68.8a1.629 1.629 0 011.611-1.643h35.558a1.629 1.629 0 011.616 1.638v4.616z" class="cls-7" data-name="Path 8738" transform="translate(-70.647 -65.517)"/><path id="Path_8739" d="M216.462 287.744a.816.816 0 10-1.632 0v.024a.816.816 0 101.632 0z" class="cls-2" data-name="Path 8739" transform="translate(-191.519 -250.617)"/><path id="Path_8740" d="M215.646 332.273a.816.816 0 00-.816.816v.024a.816.816 0 001.632 0v-.024a.816.816 0 00-.816-.816z" class="cls-2" data-name="Path 8740" transform="translate(-191.519 -288.526)"/><path id="Path_8741" d="M95.417 396.642a.816.816 0 00-1.632 0v.019a.816.816 0 001.632 0z" class="cls-7" data-name="Path 8741" transform="translate(-90.009 -341.604)"/><path id="Path_8742" d="M119.923 396.642a.816.816 0 00-1.632 0v.019a.816.816 0 001.632 0z" class="cls-7" data-name="Path 8742" transform="translate(-110.516 -341.604)"/><path id="Path_8743" d="M143.614 397.477a.816.816 0 00.816-.816v-.019a.816.816 0 10-1.632 0v.019a.816.816 0 00.816.816z" class="cls-7" data-name="Path 8743" transform="translate(-131.133 -341.604)"/><path id="Path_8744" d="M168.937 396.661v-.019a.816.816 0 10-1.632 0v.019a.816.816 0 001.632 0z" class="cls-7" data-name="Path 8744" transform="translate(-151.678 -341.604)"/><path id="Path_8745" d="M193.443 396.661v-.019a.816.816 0 10-1.632 0v.019a.816.816 0 001.632 0z" class="cls-7" data-name="Path 8745" transform="translate(-172.222 -341.604)"/><path id="Path_8746" d="M217.95 396.661v-.019a.816.816 0 10-1.632 0v.019a.816.816 0 001.632 0z" class="cls-7" data-name="Path 8746" transform="translate(-192.767 -341.604)"/><path id="Path_8747" d="M242.457 396.661v-.019a.816.816 0 10-1.632 0v.019a.816.816 0 001.632 0z" class="cls-7" data-name="Path 8747" transform="translate(-213.312 -341.604)"/><path id="Path_8748" d="M266.147 397.477a.816.816 0 00.816-.816v-.019a.816.816 0 10-1.632 0v.019a.816.816 0 00.816.816z" class="cls-7" data-name="Path 8748" transform="translate(-233.856 -341.604)"/><path id="Path_8749" d="M290.654 397.477a.816.816 0 00.816-.816v-.019a.816.816 0 10-1.632 0v.019a.816.816 0 00.816.816z" class="cls-7" data-name="Path 8749" transform="translate(-254.401 -341.604)"/><path id="Path_8750" d="M315.161 397.477a.816.816 0 00.816-.816v-.019a.816.816 0 10-1.632 0v.019a.816.816 0 00.816.816z" class="cls-7" data-name="Path 8750" transform="translate(-274.946 -341.604)"/><path id="Path_8751" d="M106.038 415.944v.019a.816.816 0 101.632 0v-.019a.816.816 0 00-1.632 0z" class="cls-7" data-name="Path 8751" transform="translate(-100.263 -357.756)"/><path id="Path_8752" d="M130.545 415.944v.019a.816.816 0 101.632 0v-.019a.816.816 0 00-1.632 0z" class="cls-7" data-name="Path 8752" transform="translate(-120.771 -357.756)"/><path id="Path_8753" d="M156.684 415.963v-.019a.816.816 0 10-1.632 0v.019a.816.816 0 101.632 0z" class="cls-7" data-name="Path 8753" transform="translate(-141.406 -357.756)"/><path id="Path_8754" d="M181.19 415.963v-.019a.816.816 0 10-1.632 0v.019a.816.816 0 101.632 0z" class="cls-7" data-name="Path 8754" transform="translate(-161.95 -357.756)"/><path id="Path_8755" d="M204.881 415.128a.816.816 0 00-.816.816v.019a.816.816 0 101.632 0v-.019a.816.816 0 00-.816-.816z" class="cls-7" data-name="Path 8755" transform="translate(-182.495 -357.756)"/><path id="Path_8756" d="M230.2 415.963v-.019a.816.816 0 10-1.632 0v.019a.816.816 0 101.632 0z" class="cls-7" data-name="Path 8756" transform="translate(-203.04 -357.756)"/><path id="Path_8757" d="M254.71 415.963v-.019a.816.816 0 10-1.632 0v.019a.816.816 0 101.632 0z" class="cls-7" data-name="Path 8757" transform="translate(-223.584 -357.756)"/><path id="Path_8758" d="M279.217 415.963v-.019a.816.816 0 10-1.632 0v.019a.816.816 0 101.632 0z" class="cls-7" data-name="Path 8758" transform="translate(-244.129 -357.756)"/><path id="Path_8759" d="M303.724 415.963v-.019a.816.816 0 10-1.632 0v.019a.816.816 0 101.632 0z" class="cls-7" data-name="Path 8759" transform="translate(-264.673 -357.756)"/><path id="Path_8760" d="M94.6 434.429a.816.816 0 00-.816.816v.019a.816.816 0 001.632 0v-.019a.816.816 0 00-.816-.816z" class="cls-7" data-name="Path 8760" transform="translate(-90.009 -373.908)"/><path id="Path_8761" d="M119.107 434.429a.816.816 0 00-.816.816v.019a.816.816 0 001.632 0v-.019a.816.816 0 00-.816-.816z" class="cls-7" data-name="Path 8761" transform="translate(-110.516 -373.908)"/><path id="Path_8762" d="M142.8 435.36a.816.816 0 00.816.816h16a.816.816 0 000-1.632h-16a.816.816 0 00-.816.816z" class="cls-7" data-name="Path 8762" transform="translate(-131.173 -374.004)"/><path id="Path_8763" d="M265.331 435.264a.816.816 0 001.632 0v-.019a.816.816 0 10-1.632 0z" class="cls-7" data-name="Path 8763" transform="translate(-233.856 -373.908)"/><path id="Path_8764" d="M289.838 435.264a.816.816 0 001.632 0v-.019a.816.816 0 00-1.632 0z" class="cls-7" data-name="Path 8764" transform="translate(-254.401 -373.908)"/><path id="Path_8765" d="M314.345 435.264a.816.816 0 001.632 0v-.019a.816.816 0 10-1.632 0z" class="cls-7" data-name="Path 8765" transform="translate(-274.946 -373.908)"/></g><path id="Path_8766" d="M4.69-4.949V0h-1.2v-2.065H1.61V0H.413v-4.949h1.2v1.918h1.873v-1.918zm4.382 0V-4H7.728v4h-1.2v-4H5.194v-.952zm4.06 0V-4h-1.344v4h-1.2v-4H9.254v-.952zm1.7 3.213V0h-1.2v-4.949h1.939a1.883 1.883 0 011.344.438 1.547 1.547 0 01.462 1.18 1.625 1.625 0 01-.207.822 1.432 1.432 0 01-.612.567 2.158 2.158 0 01-.987.206zm.609-.959q.721 0 .721-.637t-.721-.651h-.609V-2.7zm6.083 1.3a1.364 1.364 0 01-.2.721 1.407 1.407 0 01-.588.525 2.072 2.072 0 01-.941.2 2.217 2.217 0 01-1.372-.406 1.471 1.471 0 01-.588-1.134h1.275a.672.672 0 00.2.441.614.614 0 00.438.161.508.508 0 00.364-.126.441.441 0 00.133-.336.434.434 0 00-.122-.315.96.96 0 00-.3-.207q-.182-.081-.5-.192a6.188 6.188 0 01-.767-.312 1.412 1.412 0 01-.511-.448 1.3 1.3 0 01-.213-.773 1.3 1.3 0 01.224-.763 1.424 1.424 0 01.62-.494 2.26 2.26 0 01.906-.172 2.032 2.032 0 011.313.392 1.5 1.5 0 01.549 1.078h-1.3a.664.664 0 00-.179-.389.525.525 0 00-.388-.143.5.5 0 00-.34.112.411.411 0 00-.129.329.418.418 0 00.115.3.88.88 0 00.29.2q.175.077.5.2a5.54 5.54 0 01.777.319 1.486 1.486 0 01.518.458 1.31 1.31 0 01.217.776zm-17.556 10a1.364 1.364 0 01-.2.721 1.407 1.407 0 01-.588.525 2.072 2.072 0 01-.941.2 2.217 2.217 0 01-1.371-.408A1.471 1.471 0 01.28 8.509h1.274a.672.672 0 00.2.441.614.614 0 00.438.161.508.508 0 00.364-.126.441.441 0 00.133-.336.434.434 0 00-.122-.315.96.96 0 00-.3-.207q-.182-.08-.5-.192a6.188 6.188 0 01-.766-.312 1.412 1.412 0 01-.521-.448A1.3 1.3 0 01.266 6.4a1.3 1.3 0 01.224-.761 1.424 1.424 0 01.62-.494 2.26 2.26 0 01.906-.172 2.032 2.032 0 011.313.392 1.5 1.5 0 01.55 1.078h-1.3a.664.664 0 00-.179-.388.525.525 0 00-.388-.143.5.5 0 00-.339.112.411.411 0 00-.129.329.418.418 0 00.115.3.88.88 0 00.29.2q.175.077.5.2a5.54 5.54 0 01.777.319 1.486 1.486 0 01.518.458 1.31 1.31 0 01.225.777zm3.018-3.631a2.518 2.518 0 011.271.326 2.371 2.371 0 01.9.9 2.59 2.59 0 01.329 1.306 2.588 2.588 0 01-.333 1.309 2.39 2.39 0 01-.9.907 2.615 2.615 0 01-2.527 0 2.389 2.389 0 01-.9-.907 2.588 2.588 0 01-.332-1.309A2.569 2.569 0 014.819 6.2a2.4 2.4 0 01.9-.9 2.5 2.5 0 011.267-.326zm0 1.113a1.2 1.2 0 00-.934.381 1.488 1.488 0 00-.346 1.04 1.491 1.491 0 00.346 1.036 1.2 1.2 0 00.934.385 1.2 1.2 0 00.931-.385 1.481 1.481 0 00.35-1.036 1.491 1.491 0 00-.346-1.036 1.2 1.2 0 00-.935-.385zM12.418 5a2.421 2.421 0 011.564.5 2.274 2.274 0 01.8 1.344h-1.265a1.162 1.162 0 00-.431-.539 1.2 1.2 0 00-.689-.2 1.05 1.05 0 00-.847.385 1.552 1.552 0 00-.322 1.029 1.538 1.538 0 00.322 1.025 1.054 1.054 0 00.847.382 1.2 1.2 0 00.689-.2 1.168 1.168 0 00.431-.532h1.267a2.286 2.286 0 01-.8 1.34 2.41 2.41 0 01-1.564.5 2.468 2.468 0 01-1.267-.318 2.162 2.162 0 01-.844-.892 2.8 2.8 0 01-.3-1.309 2.8 2.8 0 01.3-1.309 2.162 2.162 0 01.844-.892A2.468 2.468 0 0112.418 5zm5.369 2.471l2 2.527h-1.454l-1.68-2.219V10h-1.2V5.051h1.2v2.177l1.694-2.177h1.435zm6.055 1.134a1.364 1.364 0 01-.2.721 1.407 1.407 0 01-.588.525 2.072 2.072 0 01-.941.2 2.217 2.217 0 01-1.372-.406 1.471 1.471 0 01-.588-1.134h1.274a.672.672 0 00.2.441.614.614 0 00.438.161.508.508 0 00.364-.126.441.441 0 00.133-.336.434.434 0 00-.122-.315.96.96 0 00-.3-.207q-.182-.08-.5-.192a6.188 6.188 0 01-.767-.312 1.412 1.412 0 01-.511-.448 1.3 1.3 0 01-.213-.773 1.3 1.3 0 01.224-.763 1.424 1.424 0 01.62-.494 2.26 2.26 0 01.906-.172 2.032 2.032 0 011.313.392 1.5 1.5 0 01.549 1.078h-1.3a.664.664 0 00-.179-.389.525.525 0 00-.388-.143.5.5 0 00-.34.112.411.411 0 00-.129.329.418.418 0 00.115.3.88.88 0 00.29.2q.175.077.5.2a5.54 5.54 0 01.777.319 1.486 1.486 0 01.518.458 1.31 1.31 0 01.217.776zm4.2-2.625h-2.226v1a.965.965 0 01.41-.262 1.672 1.672 0 01.57-.095 1.487 1.487 0 01.833.22 1.322 1.322 0 01.5.591 2.036 2.036 0 01.161.819 1.774 1.774 0 01-.455 1.285 1.7 1.7 0 01-1.281.472 2.215 2.215 0 01-.973-.2 1.5 1.5 0 01-.637-.556 1.615 1.615 0 01-.238-.826h1.169a.667.667 0 00.193.392.589.589 0 00.431.154.561.561 0 00.472-.2.856.856 0 00.157-.539.689.689 0 00-.168-.5.619.619 0 00-.469-.175.685.685 0 00-.385.1.511.511 0 00-.21.263h-1.165v-3h3.311z" class="cls-7" data-name="Path 8766" transform="translate(39 65.499)"/></g></svg>