<svg xmlns="http://www.w3.org/2000/svg" width="70" height="58"><defs><style>.cls-1{fill:#ffb53b}.cls-4{fill:#3bffd3}.cls-6{fill:#4c97ff}.cls-7{fill:#0f0720}</style></defs><g id="partnership" transform="translate(-28.624 -71.765)"><path id="Path_2407" d="M393.9 147.909a6.717 6.717 0 100-13.433h-3.353v13.433z" class="cls-1" data-name="Path 2407" transform="translate(-307.071 -52.89)"/><circle id="Ellipse_159" cx="6.717" cy="6.717" r="6.717" fill="#ffc76a" data-name="Ellipse 159" transform="translate(76.756 81.586)"/><path id="Path_2408" fill="#25e6bb" d="M110.378 97.075a10.154 10.154 0 000-20.309h-5.069v20.309z" data-name="Path 2408" transform="translate(-66.123 -4.199)"/><circle id="Ellipse_160" cx="10.154" cy="10.154" r="10.154" class="cls-4" data-name="Ellipse 160" transform="translate(29.427 72.567)"/><path id="Path_2409" fill="#3985ee" d="M168.867 352.387a7.916 7.916 0 100-15.833h-3.951v15.833h3.951z" data-name="Path 2409" transform="translate(-116.437 -223.424)"/><circle id="Ellipse_161" cx="7.916" cy="7.916" r="7.916" class="cls-6" data-name="Ellipse 161" transform="translate(40.775 113.13)"/><path id="Path_2410" d="M252.583 257.167a.8.8 0 01-.567-1.369l18.362-18.361a.8.8 0 111.134 1.135l-18.362 18.36a.8.8 0 01-.567.235z" class="cls-1" data-name="Path 2410" transform="translate(-189.957 -139.632)"/><path id="Path_2411" d="M232.949 106.544a.807.807 0 01-.167-.018l-20-4.241a.8.8 0 01.333-1.569l20 4.241a.8.8 0 01-.166 1.587z" class="cls-4" data-name="Path 2411" transform="translate(-156.493 -24.292)"/><path id="Path_2412" d="M102.036 239.66a.8.8 0 01-.784-.636l-3.334-15.716a.8.8 0 111.57-.333l3.334 15.716a.8.8 0 01-.618.951.822.822 0 01-.168.018z" class="cls-6" data-name="Path 2412" transform="translate(-59.753 -127.047)"/><path id="Path_2413" d="M377.482 155.03a2.876 2.876 0 10-3.975 0 2.866 2.866 0 00-.889 2.074.8.8 0 101.6 0 1.272 1.272 0 012.543 0 .8.8 0 101.6 0 2.866 2.866 0 00-.879-2.074zm-3.259-2.074a1.272 1.272 0 111.272 1.272 1.273 1.273 0 01-1.273-1.272z" class="cls-7" data-name="Path 2413" transform="translate(-291.68 -66.019)"/><path id="Path_2414" d="M87.083 109.987a3.938 3.938 0 10-4.757 0 3.933 3.933 0 00-1.559 3.135.8.8 0 001.6 0 2.333 2.333 0 014.666 0 .8.8 0 001.6 0 3.933 3.933 0 00-1.55-3.135zm-4.711-3.135a2.333 2.333 0 112.333 2.333 2.336 2.336 0 01-2.333-2.333z" class="cls-7" data-name="Path 2414" transform="translate(-45.124 -26.151)"/><path id="Path_2415" d="M95.429 80.849h-3.26a7.3 7.3 0 00-6.357 3.742l-22.935-4.907A10.686 10.686 0 0052.6 71.765h-4.927a10.75 10.75 0 000 21.5H49.7l4.2 19.979a8.564 8.564 0 003.074 16.523h3.842a8.554 8.554 0 000-17.107h-3.844a8.412 8.412 0 00-1.57.15l-4.108-19.546H52.6a10.714 10.714 0 0010.654-10.75 10.883 10.883 0 00-.062-1.154l21.987 4.7a7.414 7.414 0 002.273 7.789l-18.559 18.733a.792.792 0 000 1.113.775.775 0 001.1 0l18.776-18.943a7.212 7.212 0 003.4.85h3.26a7.271 7.271 0 003.459-.877.79.79 0 00.317-1.066.776.776 0 00-1.056-.32 5.676 5.676 0 01-1.233.49 7.4 7.4 0 000-11.208 5.825 5.825 0 013.827 7.83.79.79 0 00.421 1.029.77.77 0 00.3.06.78.78 0 00.721-.485 7.389 7.389 0 00-6.752-10.205zm-45.374 40.363a6.917 6.917 0 116.917 6.979 6.956 6.956 0 01-6.917-6.979zm17.676 0a6.972 6.972 0 01-5.719 6.872 8.59 8.59 0 000-13.745 6.972 6.972 0 015.718 6.873zM38.58 82.514a9.093 9.093 0 119.093 9.175 9.145 9.145 0 01-9.093-9.175zm14.678 9.149a10.791 10.791 0 000-18.3 9.179 9.179 0 010 18.3zm44.662-3.437a5.751 5.751 0 11-5.75-5.8 5.783 5.783 0 015.75 5.8z" class="cls-7" data-name="Path 2415" transform="translate(-8.396)"/><path id="Path_2416" d="M150.058 361.531a3.246 3.246 0 10-4.259 0 3.237 3.237 0 00-1.117 2.444.8.8 0 101.6 0 1.642 1.642 0 113.284 0 .8.8 0 101.6 0 3.237 3.237 0 00-1.108-2.444zm-3.772-2.444a1.642 1.642 0 111.642 1.642 1.644 1.644 0 01-1.642-1.643z" class="cls-7" data-name="Path 2416" transform="translate(-99.304 -239.616)"/><path id="Path_2417" d="M156.344 233.207a2.343 2.343 0 111.657-.686 2.327 2.327 0 01-1.657.686zm0-3.082a.739.739 0 10.522.217.734.734 0 00-.522-.217z" class="cls-6" data-name="Path 2417" transform="translate(-107.156 -132.113)"/><path id="Path_2418" d="M458.129 106.98a2.342 2.342 0 111.657-.685 2.336 2.336 0 01-1.657.685zm0-3.08a.738.738 0 10.522.216.737.737 0 00-.522-.216z" class="cls-6" data-name="Path 2418" transform="translate(-361.847 -25.633)"/><path id="Path_2419" d="M265.568 379.382h-.521v-.521a.8.8 0 00-1.6 0v.521h-.521a.8.8 0 100 1.6h.521v.521a.8.8 0 001.6 0v-.521h.521a.8.8 0 100-1.6z" class="cls-4" data-name="Path 2419" transform="translate(-198.394 -258.269)"/><path id="Path_2420" d="M358.114 95.966h-.521v-.521a.8.8 0 10-1.6 0v.521h-.521a.8.8 0 000 1.6h.521v.521a.8.8 0 101.6 0v-.517h.521a.8.8 0 000-1.6z" class="cls-1" data-name="Path 2420" transform="translate(-276.495 -19.206)"/><path id="Path_2421" d="M83.509 328.178h-.521v-.521a.8.8 0 00-1.6 0v.521h-.521a.8.8 0 100 1.6h.521v.521a.8.8 0 001.6 0v-.521h.521a.8.8 0 100-1.6z" class="cls-1" data-name="Path 2421" transform="translate(-44.529 -214.981)"/></g></svg>