<svg xmlns="http://www.w3.org/2000/svg" width="70" height="74"><defs><style>.cls-3{fill:#4c97ff}.cls-2{fill:#d2e0f2}.cls-4{fill:#3bffd3}.cls-5{fill:#fff}.cls-7{fill:#ffedcf}.cls-8{fill:#ffb53b}.cls-9{fill:#0f0720}.cls-10{fill:none;stroke:#0f0720;stroke-linecap:round;stroke-width:1.5px}</style></defs><g id="rocket" transform="translate(-13.599)"><path id="Path_8667" fill="#4c97ff" d="M17.143 19.47C20.027 11.129 25.454-3.34 37.027.7c4.506 1.571 5.92 7.539 10.449 8.283 4.278.7 7.9-3.506 11.968-4.3 5.056-.991 10.406.335 12.326 5.272 2.3 5.908-4.476 12.536-2.838 17.931 2.7 8.9 12.686-5.849 14.472 8.51 2.5 20.093-19.753 55.864-34.743 26.449-7.6-14.915-15.567-4.455-27.416-11.875-11.245-7.052-7.767-20.901-4.102-31.5z" data-name="Path 8667" opacity=".1"/><path id="Path_8669" d="M186.774 443.541h-2.257a1.456 1.456 0 01-1.456-1.456v-4.507h5.168v4.507a1.456 1.456 0 01-1.455 1.456z" class="cls-2" data-name="Path 8669" transform="translate(-145.011 -374.414)"/><path id="Path_8671" d="M297.15 443.541h-2.257a1.456 1.456 0 01-1.456-1.456v-4.507h5.168v4.507a1.456 1.456 0 01-1.455 1.456z" class="cls-2" data-name="Path 8671" transform="translate(-239.46 -374.414)"/><path id="Path_8673" d="M183.877 406.033h-26.112a1.456 1.456 0 01-1.288-2.134l1.724-3.271 1.52-2.884h22.2l1.52 2.884 1.724 3.271a1.456 1.456 0 01-1.288 2.134z" class="cls-2" data-name="Path 8673" transform="translate(-122.222 -340.378)"/><path id="Path_8675" d="M364.341 282.17H349.43v-16.357a16.452 16.452 0 0116.361 14.765 1.452 1.452 0 01-1.45 1.592z" class="cls-2" data-name="Path 8675" transform="translate(-287.519 -227.474)"/><path id="Path_8677" d="M50.145 280.579a16.449 16.449 0 0116.362-14.765v16.357H51.6a1.453 1.453 0 01-1.455-1.592z" class="cls-2" data-name="Path 8677" transform="translate(-31.219 -227.475)"/><path id="Path_8678" d="M143.238 44.9c-5.189 6.344-15.549 22.228-16.288 48.609a2.893 2.893 0 002.866 3h31.26a2.893 2.893 0 002.866-3c-.739-26.381-11.1-42.265-16.288-48.609a2.841 2.841 0 00-4.417 0z" class="cls-3" data-name="Path 8678" transform="translate(-96.848 -37.461)"/><path id="Path_8679" d="M230.865 48.747a7.9 7.9 0 01-10.325 0 56.403 56.403 0 012.919-3.851 2.915 2.915 0 014.487 0 55.757 55.757 0 012.919 3.851z" class="cls-4" data-name="Path 8679" transform="translate(-177.104 -37.46)"/><path id="Path_8683" d="M358.646 198.819H347.3a1.456 1.456 0 01-1.456-1.456v-11.347a1.456 1.456 0 011.456-1.456h11.348a1.456 1.456 0 011.456 1.456v11.348a1.456 1.456 0 01-1.458 1.455z" class="cls-4" data-name="Path 8683" transform="translate(-284.455 -157.932)"/><path id="Path_8685" d="M134.742 34.825v10.053a1.359 1.359 0 01-1.358 1.358h-12.362a1.359 1.359 0 01-1.358-1.358V34.825a1.359 1.359 0 011.358-1.358h12.362a1.359 1.359 0 011.358 1.358z" class="cls-3" data-name="Path 8685" transform="translate(-90.785 -28.595)"/><path id="Path_8686" d="M142.328 54.242H139.9a.728.728 0 110-1.456h2.432a.728.728 0 010 1.456z" class="cls-5" data-name="Path 8686" transform="translate(-107.447 -45.101)"/><path id="Path_8688" d="M134.742 60.877V68.3a1.359 1.359 0 01-1.358 1.358h-12.362a1.359 1.359 0 01-1.358-1.358v-2.281h2.562a1.452 1.452 0 001.029-.427l1.933-1.933a1.462 1.462 0 011.031-.427h5.564a1.465 1.465 0 00.571-.116 1.435 1.435 0 00.459-.31z" class="cls-4" data-name="Path 8688" transform="translate(-90.785 -52.014)"/><circle id="Ellipse_222" cx="6.573" cy="6.573" r="6.573" fill="#ffdda4" data-name="Ellipse 222" transform="translate(42.026 19.525)"/><path id="Path_8691" d="M229.413 146.584a6.573 6.573 0 01-12.223 3.359 6.575 6.575 0 008.8-9.13 6.574 6.574 0 013.423 5.771z" class="cls-7" data-name="Path 8691" transform="translate(-174.246 -120.491)"/><path id="Path_8692" d="M121.589 148.421a2.125 2.125 0 111.5-.622 2.119 2.119 0 01-1.5.622zm0-2.8a.67.67 0 10.474.2.666.666 0 00-.474-.2z" class="cls-3" data-name="Path 8692" transform="translate(-90.587 -123.342)"/><path id="Path_8693" d="M333.372 52.441a2.126 2.126 0 111.5-.623 2.112 2.112 0 01-1.5.623zm0-2.8a.67.67 0 10.474 1.144.67.67 0 00-.474-1.144z" class="cls-8" data-name="Path 8693" transform="translate(-271.808 -41.175)"/><path id="Path_8694" d="M410.409 146.54h-.473v-.473a.728.728 0 10-1.456 0v.473h-.473a.728.728 0 100 1.456h.473v.473a.728.728 0 101.456 0V148h.473a.728.728 0 100-1.456z" class="cls-4" data-name="Path 8694" transform="translate(-336.946 -124.342)"/><path id="Path_8695" d="M96.235 178h-.473v-.473a.728.728 0 10-1.456 0V178h-.473a.728.728 0 100 1.456h.473v.473a.728.728 0 101.456 0v-.473h.473a.728.728 0 000-1.456z" class="cls-8" data-name="Path 8695" transform="translate(-68.032 -151.258)"/><path id="Path_8696" d="M116.829 418.986h-.473v-.473a.728.728 0 10-1.456 0v.473h-.473a.728.728 0 100 1.456h.473v.473a.728.728 0 101.456 0v-.473h.473a.728.728 0 000-1.456z" class="cls-4" data-name="Path 8696" transform="translate(-85.654 -357.502)"/><path id="Path_8697" d="M403.986 346.322h-4.2a.728.728 0 010-1.456h4.2a.728.728 0 110 1.456z" class="cls-5" data-name="Path 8697" transform="translate(-329.921 -295.03)"/><path id="Path_8698" d="M79.018 346.322h-4.2a.728.728 0 110-1.456h4.2a.728.728 0 110 1.456z" class="cls-5" data-name="Path 8698" transform="translate(-51.684 -295.03)"/><path id="Path_8702" d="M233.019 250.921h-.776a1.72 1.72 0 01-1.718-1.718v-2.4a1.72 1.72 0 011.718-1.718h.776a1.72 1.72 0 011.718 1.718v2.4a1.72 1.72 0 01-1.718 1.718zm-.776-4.377a.263.263 0 00-.263.262v2.4a.263.263 0 00.263.262h.776a.263.263 0 00.262-.262v-2.4a.263.263 0 00-.262-.262z" class="cls-5" data-name="Path 8702" transform="translate(-185.62 -209.688)"/><path id="Path_8703" d="M267.553 250.921a.728.728 0 01-.728-.728v-3.649h-.065a.728.728 0 010-1.456h.793a.728.728 0 01.728.728v4.377a.728.728 0 01-.728.728z" class="cls-5" data-name="Path 8703" transform="translate(-215.995 -209.688)"/><path id="Path_8704" d="M105.945 77.311A16.9 16.9 0 0099.8 65.872h1.385a2.167 2.167 0 002.163-2.166V52.451a2.167 2.167 0 00-2.163-2.166H89.946a2.143 2.143 0 00-.718.125 67.973 67.973 0 00-10.9-19.138 3.6 3.6 0 00-5.553 0q-.615.741-1.227 1.538v-2.274a2.07 2.07 0 00-2.067-2.069H57.232a2.07 2.07 0 00-2.067 2.069v9.968a2.07 2.07 0 002.067 2.069h8.142a78.376 78.376 0 00-5.861 14.973q-.673 2.407-1.21 4.892A17.031 17.031 0 0045.15 77.311a2.162 2.162 0 002.15 2.374h8.922c0 .08-.006.159-.009.239a3.61 3.61 0 003.6 3.715h2.941l-2.054 3.92a2.166 2.166 0 001.914 3.175h1.693v1.278a2.167 2.167 0 002.163 2.166h2.235a2.167 2.167 0 002.163-2.166v-1.278h9.356v1.278a2.167 2.167 0 002.163 2.166h2.235a2.167 2.167 0 002.163-2.166v-1.278h1.695a2.166 2.166 0 001.914-3.175l-2.062-3.92h2.941a3.61 3.61 0 003.6-3.715c0-.08-.005-.159-.008-.239h8.921a2.162 2.162 0 002.154-2.374zM73.88 32.194a2.164 2.164 0 013.335 0 54.595 54.595 0 012.465 3.212 7.1 7.1 0 01-8.137.089v-.265a54.57 54.57 0 012.336-3.036zm-3.78 8.313a.625.625 0 01-.624.625H57.232a.626.626 0 01-.625-.625v-1.538h1.817a2.17 2.17 0 001.529-.635l1.914-1.916a.722.722 0 01.512-.213h5.512a2.164 2.164 0 00.849-.174 2.128 2.128 0 00.681-.461l.68-.681v5.617zm-12.869-10.6h12.246a.626.626 0 01.625.625v2.311l-1.7 1.705a.693.693 0 01-.222.15.727.727 0 01-.285.058H62.38a2.155 2.155 0 00-1.531.635l-1.917 1.919a.721.721 0 01-.508.21h-1.816v-6.984a.626.626 0 01.624-.625zM47.3 78.241a.719.719 0 01-.539-.24.7.7 0 01-.18-.544 15.593 15.593 0 0111.396-13.448 95.312 95.312 0 00-1.7 14.232H47.3zm22.128 13.771a.722.722 0 01-.721.722h-2.236a.722.722 0 01-.721-.722v-1.278h3.677zm15.917 0a.722.722 0 01-.721.722h-2.236a.722.722 0 01-.721-.722v-1.278h3.677zm7.479-10.473a2.145 2.145 0 01-1.551.657H70.7a.722.722 0 000 1.444h16l2.417 4.593a.722.722 0 01-.638 1.059H62.615a.722.722 0 01-.638-1.059l2.417-4.593h2.254a.722.722 0 000-1.444h-6.826a2.167 2.167 0 01-2.163-2.23A91.562 91.562 0 0160.9 57.938 76.627 76.627 0 0167 42.576h2.472a2.07 2.07 0 002.067-2.07v-3.325a8.542 8.542 0 008.959-.589 70.587 70.587 0 017.557 14.8 2.153 2.153 0 00-.277 1.056v4.2a.721.721 0 101.442 0v-4.2a.722.722 0 01.721-.722h11.24a.722.722 0 01.721.722v11.258a.722.722 0 01-.721.722H89.945a.722.722 0 01-.721-.722v-3a.721.721 0 10-1.442 0v3a2.167 2.167 0 002.163 2.166H92a95.449 95.449 0 011.432 14.094 2.153 2.153 0 01-.612 1.574zM104.33 78a.719.719 0 01-.539.24h-8.976a96.327 96.327 0 00-1.346-12.37h3.87a15.493 15.493 0 017.171 11.585.7.7 0 01-.18.545z" class="cls-9" data-name="Path 8704" transform="translate(-26.948 -24.323)"/><path id="Path_8705" d="M213.155 130.306a7.3 7.3 0 107.3 7.3 7.309 7.309 0 00-7.3-7.3zm0 13.146a5.845 5.845 0 115.845-5.845 5.851 5.851 0 01-5.845 5.845z" class="cls-9" data-name="Path 8705" transform="translate(-164.556 -111.506)"/><path id="Path_8706" d="M223.808 158.228a.728.728 0 01-.728-.728 5.2 5.2 0 011.532-3.7.728.728 0 011.03 1.029 3.749 3.749 0 00-1.105 2.668.728.728 0 01-.729.731z" class="cls-7" data-name="Path 8706" transform="translate(-179.245 -131.402)"/><path id="Line_155" d="M0 0v5" class="cls-10" data-name="Line 155" transform="translate(68.599 30)"/><path id="Line_156" d="M3 0H0" class="cls-10" data-name="Line 156" transform="translate(68.599 35)"/></g></svg>