<svg xmlns="http://www.w3.org/2000/svg" width="28" height="32" viewBox="0 0 28 32">
  <g id="hand" transform="translate(-55.225 -3.251)">
    <g id="Group_4123" data-name="Group 4123" transform="translate(55.224 3.251)">
      <g id="Group_4122" data-name="Group 4122" transform="translate(0)">
        <g id="Group_4105" data-name="Group 4105" transform="translate(3.981 1.237)">
          <path id="Path_9213" data-name="Path 9213" d="M232.312,416.95h7.038v3.717h-7.038Z" transform="translate(-224.277 -390.275)" fill="#ffdda4"/>
          <g id="Group_4102" data-name="Group 4102" transform="translate(1.49)">
            <g id="Group_4101" data-name="Group 4101">
              <path id="Path_9214" data-name="Path 9214" d="M160.53,57.253V81.6a1.906,1.906,0,0,1-1.88,1.933h-12.6a1.907,1.907,0,0,1-1.88-1.933V57.253a1.907,1.907,0,0,1,1.88-1.933h12.6A1.906,1.906,0,0,1,160.53,57.253Z" transform="translate(-144.175 -55.32)" fill="#fff"/>
              <path id="Path_9218" data-name="Path 9218" d="M144.179,244.323v12.409a1.913,1.913,0,0,0,1.879,1.945h12.6a1.913,1.913,0,0,0,1.879-1.945V244.323Z" transform="translate(-144.179 -230.468)" fill="#d2e0f2"/>
              <path id="Path_9219" data-name="Path 9219" d="M210.521,56.807l.464-1.487h-8.136l.464,1.487a.648.648,0,0,0,.619.455h5.97A.648.648,0,0,0,210.521,56.807Z" transform="translate(-198.774 -55.32)" fill="#448ef5"/>
            </g>
          </g>
          <g id="Group_4104" data-name="Group 4104" transform="translate(0 15.489)">
            <path id="Path_9220" data-name="Path 9220" d="M124.111,291.633v-9.986a4.082,4.082,0,0,1,4.082-4.082h4.277a2.01,2.01,0,1,1,0,4.019h-3.458s5.727.454,5.727,10.049" transform="translate(-124.111 -276.73)" fill="#ffdda4"/>
            <g id="Group_4103" data-name="Group 4103" transform="translate(11.957)">
              <path id="Path_9221" data-name="Path 9221" d="M306.321,269.712h-3.372a1.7,1.7,0,0,1,0-3.39h3.372a1.288,1.288,0,0,1,1.279,1.3v.8A1.288,1.288,0,0,1,306.321,269.712Z" transform="translate(-300.499 -266.322)" fill="#ffdda4"/>
              <path id="Path_9222" data-name="Path 9222" d="M296.622,315.363h-4.145a1.7,1.7,0,0,1,0-3.39h4.145a1.289,1.289,0,0,1,1.281,1.3v.8a1.289,1.289,0,0,1-1.281,1.3Z" transform="translate(-290.802 -308.583)" fill="#ffdda4"/>
              <path id="Path_9223" data-name="Path 9223" d="M306.321,361.013h-3.372a1.7,1.7,0,0,1,0-3.39h3.372a1.288,1.288,0,0,1,1.279,1.3v.8a1.288,1.288,0,0,1-1.279,1.3Z" transform="translate(-300.499 -350.843)" fill="#ffdda4"/>
              <path id="Path_9224" data-name="Path 9224" d="M304.981,406.45h-3.027a1.588,1.588,0,0,1,0-3.177h3.027a1.287,1.287,0,0,1,1.278,1.3v.583A1.287,1.287,0,0,1,304.981,406.45Z" transform="translate(-299.676 -393.103)" fill="#ffdda4"/>
            </g>
          </g>
        </g>
        <g id="Group_4109" data-name="Group 4109" transform="translate(6.829 2.159)">
          <path id="Path_9225" data-name="Path 9225" d="M169.031,68.855h-1.188a.371.371,0,0,1-.371-.371v-.37a.371.371,0,0,1,.371-.371h1.188a.371.371,0,0,1,.371.371v.37A.371.371,0,0,1,169.031,68.855Z" transform="translate(-167.471 -67.743)" fill="#d2e0f2"/>
          <g id="Group_4108" data-name="Group 4108" transform="translate(11.61 0.055)">
            <g id="Group_4106" data-name="Group 4106">
              <path id="Path_9226" data-name="Path 9226" d="M324.175,69.485a.371.371,0,0,1-.371-.371v-.26a.371.371,0,0,1,.743,0v.26A.371.371,0,0,1,324.175,69.485Z" transform="translate(-323.804 -68.482)" fill="#d2e0f2"/>
            </g>
            <g id="Group_4107" data-name="Group 4107" transform="translate(1.133)">
              <path id="Path_9227" data-name="Path 9227" d="M339.425,69.485a.371.371,0,0,1-.371-.371v-.26a.371.371,0,0,1,.743,0v.26A.371.371,0,0,1,339.425,69.485Z" transform="translate(-339.054 -68.482)" fill="#d2e0f2"/>
            </g>
          </g>
        </g>
        <g id="Group_4111" data-name="Group 4111" transform="translate(1.692 5.591)">
          <path id="Path_9228" data-name="Path 9228" d="M99.185,121.134H94.036a.743.743,0,0,1-.743-.743v-5.149a.743.743,0,0,1,.743-.743h5.149a.743.743,0,0,1,.743.743v5.149A.743.743,0,0,1,99.185,121.134Z" transform="translate(-93.293 -114.5)" fill="#448ef5"/>
          <g id="Group_4110" data-name="Group 4110" transform="translate(2.059 1.609)">
            <path id="Path_9229" data-name="Path 9229" d="M121.012,141.192v-3.431a1.6,1.6,0,0,1,1.594-1.594h1.043a.557.557,0,0,1,0,1.114h-1.043a.48.48,0,0,0-.48.48v3.431Z" transform="translate(-121.012 -136.167)" fill="#fff"/>
          </g>
          <path id="Path_9230" data-name="Path 9230" d="M130.426,161.5h-1.247v1.114h1.247a.557.557,0,0,0,0-1.114Z" transform="translate(-126.514 -158.01)" fill="#fff"/>
        </g>
        <g id="Group_4112" data-name="Group 4112" transform="translate(18.412 5.591)">
          <path id="Path_9231" data-name="Path 9231" d="M334.957,121.134h-5.149a.743.743,0,0,1-.743-.743v-5.149a.743.743,0,0,1,.743-.743h5.149a.743.743,0,0,1,.743.743v5.149A.743.743,0,0,1,334.957,121.134Z" transform="translate(-329.065 -114.5)" fill="#ffd63b"/>
          <circle id="Ellipse_274" data-name="Ellipse 274" cx="0.487" cy="0.487" r="0.487" transform="translate(4.636 0.889)" fill="#fff"/>
          <path id="Path_9232" data-name="Path 9232" d="M329.065,167v1.993a.743.743,0,0,0,.743.743h5.149a.743.743,0,0,0,.743-.743V167Z" transform="translate(-329.065 -163.101)" fill="#448ef5"/>
          <circle id="Ellipse_275" data-name="Ellipse 275" cx="1.642" cy="1.642" r="1.642" transform="translate(1.675 1.675)" fill="#fff"/>
          <circle id="Ellipse_276" data-name="Ellipse 276" cx="0.681" cy="0.681" r="0.681" transform="translate(2.636 2.636)" fill="#3bffd3"/>
        </g>
        <g id="Group_4115" data-name="Group 4115" transform="translate(10.129 5.646)">
          <g id="Group_4114" data-name="Group 4114">
            <g id="Group_4113" data-name="Group 4113">
              <path id="Path_9233" data-name="Path 9233" d="M212.4,121.766h2.782a3.262,3.262,0,1,0-3.262-3.262v2.782A.481.481,0,0,0,212.4,121.766Z" transform="translate(-211.92 -115.242)" fill="#ffb53b"/>
            </g>
          </g>
          <path id="Path_9234" data-name="Path 9234" d="M234.921,140.768a.472.472,0,0,1-.335-.139l-.316-.316a.473.473,0,0,1,0-.669l1.947-1.947a.474.474,0,0,1,.669,0l.331.331a.473.473,0,0,1-.666.673l-1.278,1.278a.473.473,0,0,1-.353.788Z" transform="translate(-232.483 -135.902)" fill="#fff"/>
        </g>
        <g id="Group_4120" data-name="Group 4120" transform="translate(8.913 14.382)">
          <g id="Group_4117" data-name="Group 4117" transform="translate(7.786)">
            <g id="Group_4116" data-name="Group 4116">
              <path id="Path_9235" data-name="Path 9235" d="M301.524,234.294a.37.37,0,0,1-.109.263l-.433.433a.371.371,0,1,1-.525-.525l.171-.171-.171-.171a.371.371,0,1,1,.525-.525l.433.433A.37.37,0,0,1,301.524,234.294Z" transform="translate(-300.348 -233.489)" fill="#448ef5"/>
            </g>
          </g>
          <g id="Group_4119" data-name="Group 4119">
            <g id="Group_4118" data-name="Group 4118">
              <path id="Path_9236" data-name="Path 9236" d="M195.51,234.294a.37.37,0,0,0,.109.263l.433.433a.371.371,0,1,0,.525-.525l-.171-.171.171-.171a.371.371,0,1,0-.525-.525l-.433.433A.37.37,0,0,0,195.51,234.294Z" transform="translate(-195.51 -233.489)" fill="#448ef5"/>
            </g>
          </g>
        </g>
        <path id="Path_9237" data-name="Path 9237" d="M78.48,245.376a.371.371,0,0,1-.371-.371.446.446,0,0,0-.446-.446.371.371,0,1,1,0-.743.446.446,0,0,0,.446-.446.371.371,0,1,1,.743,0,.446.446,0,0,0,.446.446.371.371,0,1,1,0,.743.446.446,0,0,0-.446.446A.371.371,0,0,1,78.48,245.376Z" transform="translate(-76.788 -227.919)" fill="#3bffd3"/>
        <path id="Path_9238" data-name="Path 9238" d="M389.778,41.041a.371.371,0,0,1-.371-.371.446.446,0,0,0-.446-.446.371.371,0,0,1,0-.743.446.446,0,0,0,.446-.446.371.371,0,0,1,.743,0,.446.446,0,0,0,.446.446.371.371,0,1,1,0,.743.446.446,0,0,0-.446.446A.371.371,0,0,1,389.778,41.041Z" transform="translate(-365.758 -38.665)" fill="#ffb53b"/>
        <path id="Path_9239" data-name="Path 9239" d="M427.366,69.1a.37.37,0,0,1-.263-.109l-.817-.817a.371.371,0,0,1,0-.525l.817-.817a.371.371,0,0,1,.525,0l.817.817a.371.371,0,0,1,0,.525l-.817.817A.37.37,0,0,1,427.366,69.1Zm-.292-1.188.292.292.292-.292-.292-.292Z" transform="translate(-400.555 -64.64)" fill="#3bffd3"/>
        <g id="Group_4121" data-name="Group 4121" transform="translate(0 19.251)">
          <path id="Path_9240" data-name="Path 9240" d="M411.778,400.65a.37.37,0,0,1-.263-.109l-.817-.817a.371.371,0,0,1,0-.525l.817-.817a.371.371,0,0,1,.525,0l.817.817a.371.371,0,0,1,0,.525l-.817.817A.37.37,0,0,1,411.778,400.65Zm-.292-1.188.292.292.292-.292-.292-.292Z" transform="translate(-386.123 -391.001)" fill="#448ef5"/>
          <path id="Path_9241" data-name="Path 9241" d="M71.7,302.71a.37.37,0,0,1-.263-.109l-.817-.817a.371.371,0,0,1,0-.525l.817-.817a.371.371,0,0,1,.525,0l.817.817a.371.371,0,0,1,0,.525l-.817.817A.37.37,0,0,1,71.7,302.71Zm-.292-1.188.292.292.292-.292-.292-.292Z" transform="translate(-70.511 -300.334)" fill="#448ef5"/>
        </g>
      </g>
    </g>
    <g id="Group_4125" data-name="Group 4125" transform="translate(56.545 4.116)">
      <g id="Group_4124" data-name="Group 4124">
        <path id="Path_9242" data-name="Path 9242" d="M106.815,50.32H94.194a2.276,2.276,0,0,0-2.243,2.3V54.69H89.371A1.1,1.1,0,0,0,88.292,55.8v5.119a1.1,1.1,0,0,0,1.079,1.108h4.986a1.1,1.1,0,0,0,1.079-1.108V55.8a1.1,1.1,0,0,0-1.079-1.108H92.67V52.623a1.546,1.546,0,0,1,1.524-1.564h12.621a1.546,1.546,0,0,1,1.524,1.564V54.69h-2.014a1.1,1.1,0,0,0-1.079,1.108v5.119a1.1,1.1,0,0,0,1.079,1.108h2.014V65.9h-3.09a2.03,2.03,0,0,0-2,2.054,2.076,2.076,0,0,0,.572,1.437,2.073,2.073,0,0,0,0,3.868,2.087,2.087,0,0,0,.22,3.073,1.961,1.961,0,0,0-.857,1.628,1.99,1.99,0,0,0,.088.587h-1.9a10.287,10.287,0,0,0-2.739-6.306,6.29,6.29,0,0,0-1.01-.777h1.342a2.368,2.368,0,0,0,0-4.735.369.369,0,0,0,0,.738,1.63,1.63,0,0,1,0,3.258H94.128a.369.369,0,0,0,0,.738H95.6a4.832,4.832,0,0,1,2.584,1.355c1.714,1.641,2.62,4.5,2.62,8.266a.36.36,0,1,0,.719,0c0-.566-.021-1.173-.074-1.8h2.247a1.87,1.87,0,0,0,1.389.623h.405v1.178a.36.36,0,1,0,.719,0V79.908h1.85a1.639,1.639,0,0,0,1.615-1.658v-.58a1.677,1.677,0,0,0-.4-1.091,1.664,1.664,0,0,0,.9-1.488V74.3a1.673,1.673,0,0,0-.6-1.289,1.673,1.673,0,0,0,.6-1.289v-.792a1.673,1.673,0,0,0-.6-1.289,1.673,1.673,0,0,0,.6-1.289v-.792a1.657,1.657,0,0,0-1.115-1.576V62.024h2.252a1.1,1.1,0,0,0,1.079-1.108V55.8a1.1,1.1,0,0,0-1.079-1.108h-2.252V52.623A2.276,2.276,0,0,0,106.815,50.32ZM94.716,55.8v5.119a.365.365,0,0,1-.36.369H89.371a.365.365,0,0,1-.36-.369V55.8a.365.365,0,0,1,.36-.369h4.986A.365.365,0,0,1,94.716,55.8Zm14.236,22.452a.909.909,0,0,1-.9.92h-2.974a1.21,1.21,0,0,1,0-2.42h2.974a.909.909,0,0,1,.9.92v.58Zm.5-3.951v.792a.909.909,0,0,1-.9.92h-3.309a1.317,1.317,0,0,1,0-2.632h3.309A.909.909,0,0,1,109.454,74.3Zm0-3.371v.792a.909.909,0,0,1-.9.92H104.5a1.317,1.317,0,0,1,0-2.632h4.062a.909.909,0,0,1,.9.92Zm0-3.371v.792a.909.909,0,0,1-.9.92h-3.309a1.317,1.317,0,0,1,0-2.632h3.309A.909.909,0,0,1,109.454,67.557ZM111.67,55.8v5.119a.365.365,0,0,1-.36.369h-4.986a.365.365,0,0,1-.36-.369V55.8a.365.365,0,0,1,.36-.369h4.986A.365.365,0,0,1,111.67,55.8Z" transform="translate(-88.292 -50.32)" fill="#0f0720"/>
        <path id="Path_9243" data-name="Path 9243" d="M119.111,240.484v9.986a.371.371,0,0,0,.743,0v-9.986a3.715,3.715,0,0,1,3.711-3.711h1.778a.371.371,0,1,0,0-.743h-1.778a4.425,4.425,0,0,0-2.221.6v-3.155a.371.371,0,0,0-.743,0v3.656c0,.011,0,.022,0,.033A4.443,4.443,0,0,0,119.111,240.484Z" transform="translate(-116.822 -219.707)" fill="#0f0720"/>
      </g>
      <path id="Path_9244" data-name="Path 9244" d="M207.772,117.509h2.782a3.633,3.633,0,1,0-3.633-3.633v2.782A.853.853,0,0,0,207.772,117.509Zm-.109-3.633a2.891,2.891,0,1,1,2.891,2.891h-2.782a.109.109,0,0,1-.109-.109Z" transform="translate(-198.505 -105.792)" fill="#0f0720"/>
    </g>
  </g>
</svg>
