<svg xmlns="http://www.w3.org/2000/svg" width="70" height="82"><defs><style>.cls-3{fill:#4c97ff}.cls-2{fill:#3bffd3}.cls-6{fill:#0f0720}.cls-7{fill:#ffb53b}</style></defs><g id="help" transform="translate(-39.503)"><path id="Path_8847" fill="#4c97ff" d="M114.015 27.529a15.647 15.647 0 00-4.639-3.165 20.012 20.012 0 01-10.087-10.18 23.976 23.976 0 00-45.832 8.626A23.485 23.485 0 0057.8 37.378a20.318 20.318 0 012.75 17.888c-2.708 8.626-1.764 16.8 3.388 21.908 9.029 8.951 27.559 5.094 41.388-8.616s17.718-32.078 8.689-41.029z" data-name="Path 8847" opacity=".1" transform="translate(-11.661)"/><path id="Path_8856" d="M99.247 162.428l-6.037 6.037a8.923 8.923 0 01-12.617 0l-33.515-33.514a8.922 8.922 0 010-12.617l6.037-6.037 12 12-5.505 5.505 22.123 22.123 5.505-5.505z" class="cls-2" data-name="Path 8856" transform="translate(-4.152 -98.897)"/><path id="Path_8860" d="M91.62 90.4l-4.937 4.937a1.632 1.632 0 01-2.309 0L68.491 79.459a1.632 1.632 0 010-2.309l4.937-4.937a1.633 1.633 0 012.309 0L91.62 88.095a1.633 1.633 0 010 2.305z" class="cls-3" data-name="Path 8860" transform="translate(-23.856 -60.024)"/><path id="Path_8862" d="M300.669 299.452l-4.937 4.937a1.632 1.632 0 01-2.309 0l-15.883-15.881a1.632 1.632 0 010-2.309l4.937-4.937a1.633 1.633 0 012.309 0l15.882 15.882a1.633 1.633 0 01.001 2.308z" class="cls-3" data-name="Path 8862" transform="translate(-199.465 -236.167)"/><circle id="Ellipse_228" cx="14.178" cy="14.178" r="14.178" fill="#ffdda4" data-name="Ellipse 228" transform="translate(75.218 9.818)"/><circle id="Ellipse_229" cx="10.516" cy="10.516" r="10.516" fill="#fff" data-name="Ellipse 229" transform="translate(78.88 13.138)"/><path id="Path_8864" d="M236.139 58.9a28.979 28.979 0 016.989.854 14.98 14.98 0 00-1.758 18.563.816.816 0 101.367-.892 13.361 13.361 0 113.658 3.742.816.816 0 00-.922 1.347 14.98 14.98 0 0018.845-1.571 28.979 28.979 0 01.853 6.99.816.816 0 001.633 0 30.583 30.583 0 00-1.177-8.421 14.985 14.985 0 00-21.068-21.067 30.565 30.565 0 00-8.42-1.178.816.816 0 000 1.633z" class="cls-6" data-name="Path 8864" transform="translate(-164.54 -46.14)"/><path id="Path_8865" d="M86.077 100.715a2.447 2.447 0 00-3.426 0l-4.884 4.814a2.363 2.363 0 000 3.377l1.347 1.327-1.94 1.913L56.432 91.7l1.94-1.912 1.347 1.328a2.454 2.454 0 003.426 0l4.884-4.816a2.368 2.368 0 000-3.377l-15.71-15.485a2.447 2.447 0 00-3.427 0l-4.884 4.814a2.367 2.367 0 000 3.376l1.347 1.328-3.038 2.994a9.407 9.407 0 00-.452 12.95 29.835 29.835 0 00-.266 3.969 30.154 30.154 0 0030.334 29.9 31.152 31.152 0 004.026-.262 9.742 9.742 0 0013.134-.446l3.038-2.994 1.347 1.328a2.449 2.449 0 003.425 0l4.884-4.814a2.366 2.366 0 000-3.377zm-42.863-3.849c0-.831.042-1.663.115-2.49l31.129 30.686c-.839.073-1.683.114-2.526.114a28.549 28.549 0 01-28.719-28.31zm44.737 28.067a8.11 8.11 0 01-11.339 0L43.46 92.254a7.834 7.834 0 010-11.178l3.605-3.554a.788.788 0 000-1.125L45.15 74.5a.79.79 0 010-1.125l4.883-4.814a.816.816 0 011.143 0l15.71 15.488a.79.79 0 010 1.126L62 89.989a.82.82 0 01-1.144 0l-9.883-9.744a.816.816 0 00-1.142 0 .788.788 0 000 1.126l7.395 7.29-2.511 2.475a.788.788 0 000 1.125L76.6 113.835a.815.815 0 001.142 0l2.511-2.476 10.733 10.58zm12.694-6.481l-4.884 4.814a.817.817 0 01-1.142 0l-15.71-15.486a.788.788 0 010-1.126l4.884-4.814a.816.816 0 011.142 0l15.71 15.486a.789.789 0 010 1.126z" class="cls-6" data-name="Path 8865" transform="translate(0 -55.843)"/><path id="Path_8872" d="M310.464 132.3h-3.453a.816.816 0 01-.511-1.453 11.943 11.943 0 002.788-2.959.985.985 0 00-.06-.925.7.7 0 00-.607-.312.8.8 0 00-.794.794.816.816 0 11-1.633 0 2.429 2.429 0 012.426-2.426 2.323 2.323 0 011.964 1.037 2.612 2.612 0 01.212 2.456 7.763 7.763 0 01-1.653 2.155h1.321a.816.816 0 010 1.633z" class="cls-7" data-name="Path 8872" transform="translate(-223.611 -105.036)"/><path id="Path_8873" d="M348.228 129.224h-2.675a.816.816 0 01-.816-.816v-2.467a.816.816 0 111.633 0v1.651h1.858a.816.816 0 110 1.633z" class="cls-7" data-name="Path 8873" transform="translate(-255.92 -105.105)"/><path id="Path_8874" d="M363.8 132.373a.816.816 0 01-.816-.816v-5.615a.816.816 0 111.633 0v5.615a.816.816 0 01-.817.816z" class="cls-7" data-name="Path 8874" transform="translate(-271.201 -105.122)"/><path id="Path_8875" d="M383.3 120.241a.816.816 0 01-.816-.816v-1.271a.816.816 0 011.633 0v1.271a.816.816 0 01-.817.816z" class="cls-7" data-name="Path 8875" transform="translate(-287.543 -98.558)"/><path id="Path_8876" d="M168.129 31.694a.813.813 0 01-.577-.239L166.5 30.4l-1.055 1.055a.816.816 0 01-1.154-1.154l1.633-1.633a.816.816 0 011.154 0l1.633 1.633a.816.816 0 01-.577 1.393z" class="cls-7" data-name="Path 8876" transform="translate(-104.425 -23.788)"/><path id="Path_8877" d="M241.861 212.526a.813.813 0 01-.577-.239l-1.055-1.055-1.055 1.055a.816.816 0 01-1.154-1.154l1.633-1.633a.816.816 0 011.154 0l1.633 1.633a.816.816 0 01-.577 1.393z" class="cls-3" data-name="Path 8877" transform="translate(-166.246 -175.773)"/><path id="Path_8878" d="M218.158 466.836a.816.816 0 01-.577-1.393l1.633-1.633a.816.816 0 011.154 1.154l-1.633 1.633a.813.813 0 01-.577.239z" class="cls-3" data-name="Path 8878" transform="translate(-149.103 -389.478)"/><path id="Path_8879" d="M446.58 189.2a.813.813 0 01-.577-.239l-1.055-1.055-1.055 1.055a.816.816 0 11-1.154-1.154l1.633-1.633a.816.816 0 011.154 0l1.633 1.633a.816.816 0 01-.577 1.393z" class="cls-2" data-name="Path 8879" transform="translate(-337.893 -156.182)"/><path id="Path_8880" d="M40.963 353.627a.816.816 0 01-.577-1.393l1.633-1.633a.816.816 0 111.154 1.154l-1.633 1.633a.812.812 0 01-.577.239z" class="cls-7" data-name="Path 8880" transform="translate(-.539 -294.294)"/></g></svg>