<svg xmlns="http://www.w3.org/2000/svg" width="77" height="70"><defs><style>.cls-2{fill:#4c97ff}.cls-4{fill:#fff}.cls-5{fill:#ffb53b}.cls-7{fill:#3bffd3}</style></defs><g id="internet" transform="translate(0 -24.216)"><path id="Path_8597" fill="#4c97ff" d="M77 59.216c0-4.172-1.88-8.084-5.165-11.452a31.219 31.219 0 01-5.642-7.964c-4.645-9.4-12.566-15.584-21.556-15.584-6.389 0-12.237 3.125-16.754 8.306a28.821 28.821 0 01-10.977 7.757C6.7 44.392 0 51.339 0 59.216S6.7 74.04 16.906 78.153a28.823 28.823 0 0110.977 7.757c4.517 5.18 10.365 8.306 16.754 8.306 8.991 0 16.911-6.188 21.556-15.583a31.218 31.218 0 015.642-7.966C75.12 67.3 77 63.388 77 59.216z" data-name="Path 8597" opacity=".1"/><g id="Group_3973" data-name="Group 3973" transform="translate(6.356 25.394)"><g id="Group_3967" data-name="Group 3967"><g id="Group_3959" data-name="Group 3959" transform="translate(19.925 20.09)"><path id="Path_8599" d="M199.7 177.479c0 1.7-.051 3.37-.151 5q-1.621 1.834-3.428 3.643t-3.643 3.428c-1.627.1-3.3.151-5 .151s-3.37-.051-5-.151q-1.834-1.621-3.643-3.428t-3.428-3.643c-.1-1.627-.151-3.3-.151-5s.051-3.37.151-5q1.621-1.834 3.428-3.643t3.643-3.428c1.627-.1 3.3-.151 5-.151s3.37.051 5 .151q1.834 1.621 3.643 3.428t3.428 3.643c.097 1.63.151 3.299.151 5z" class="cls-2" data-name="Path 8599" transform="translate(-175.26 -165.26)"/><path id="Path_8600" fill="#77b0ff" d="M204.452 203.644c-1.264 0-2.527-.03-3.77-.089-.92-.836-1.835-1.709-2.73-2.6s-1.767-1.81-2.6-2.73a79.675 79.675 0 010-7.54c.836-.92 1.709-1.835 2.6-2.73s1.81-1.768 2.73-2.6a79.675 79.675 0 017.54 0c.92.836 1.835 1.709 2.73 2.6s1.767 1.81 2.6 2.73a79.675 79.675 0 010 7.54c-.836.92-1.709 1.835-2.6 2.73s-1.81 1.768-2.73 2.6a79.675 79.675 0 01-3.77.089z" data-name="Path 8600" transform="translate(-192.233 -182.233)"/></g><g id="Group_3964" data-name="Group 3964" transform="translate(25.723 28.239)"><g id="Group_3963" data-name="Group 3963"><g id="Group_3960" data-name="Group 3960" transform="translate(1.966 3.134)"><path id="Path_8601" d="M234.714 242.371a.753.753 0 01-.392-.11 6.38 6.38 0 00-6.612 0 .757.757 0 01-.785-1.294 7.894 7.894 0 018.182 0 .757.757 0 01-.393 1.4z" class="cls-4" data-name="Path 8601" transform="translate(-226.561 -239.824)"/></g><g id="Group_3961" data-name="Group 3961" transform="translate(4.091 6.185)"><path id="Path_8602" d="M244.506 261.936a.753.753 0 01-.392-.11 2.316 2.316 0 00-2.362 0 .757.757 0 11-.785-1.294 3.793 3.793 0 013.931 0 .757.757 0 01-.393 1.4z" class="cls-4" data-name="Path 8602" transform="translate(-240.603 -259.983)"/></g><g id="Group_3962" data-name="Group 3962"><path id="Path_8603" d="M225.655 222.208a.753.753 0 01-.392-.11 10.175 10.175 0 00-10.544 0 .757.757 0 01-.785-1.294 11.688 11.688 0 0112.113 0 .757.757 0 01-.393 1.4z" class="cls-4" data-name="Path 8603" transform="translate(-213.57 -219.112)"/></g></g></g><g id="Group_3965" data-name="Group 3965" transform="translate(20.694 8.751)"><circle id="Ellipse_212" cx="2.108" cy="2.108" r="2.108" class="cls-5" data-name="Ellipse 212" transform="translate(0 43.047)"/><circle id="Ellipse_213" cx="2.108" cy="2.108" r="2.108" class="cls-5" data-name="Ellipse 213" transform="translate(30.692 12.514)"/><circle id="Ellipse_214" cx="2.108" cy="2.108" r="2.108" class="cls-5" data-name="Ellipse 214" transform="translate(.227)"/></g><g id="Group_3966" data-name="Group 3966"><circle id="Ellipse_215" cx="2.108" cy="2.108" r="2.108" class="cls-5" data-name="Ellipse 215" transform="translate(53.494 46.855)"/><path id="Path_8604" fill="#0f0720" d="M106.288 64.309c0-3.206-2.8-6.242-7.9-8.573a2.839 2.839 0 00-5.214-1.9 57.43 57.43 0 00-7.057-1.559 54.759 54.759 0 00-2.173-9.085l.133-.061c5.429-2.416 9.7-2.633 11.731-.6 1.663 1.672 1.527 4.5 1.119 6.579a.751.751 0 101.473.29c.686-3.5.156-6.242-1.531-7.938-2.526-2.538-7.285-2.437-13.4.284l-.038.017-.015-.039C81.01 35.454 77.715 32 74.144 32c-3.2 0-6.23 2.834-8.552 7.988a2.662 2.662 0 00-.253-.013 2.833 2.833 0 00-2.217 1.073c-5.289-2.01-9.436-1.867-11.707.415-2.526 2.537-2.425 7.322.285 13.469l.017.038-.039.015C45.436 57.408 42 60.719 42 64.309s3.436 6.9 9.675 9.324l.039.015-.017.038c-2.708 6.147-2.808 10.931-.283 13.47a6.987 6.987 0 005.128 1.831 13.669 13.669 0 002.194-.188.755.755 0 00-.24-1.49c-1.886.308-4.46.346-6.019-1.22-2.026-2.037-1.809-6.335.594-11.791l.06-.134a54.024 54.024 0 009.037 2.184 58.155 58.155 0 001.553 7.1 2.859 2.859 0 001.392 5.348 2.827 2.827 0 00.528-.051c2.316 5.086 5.324 7.878 8.5 7.878 3.571 0 6.866-3.454 9.276-9.725l.015-.039.038.017a21.122 21.122 0 008.294 2.117 6.934 6.934 0 005.107-1.833 6.292 6.292 0 001.693-3.478 2.859 2.859 0 00-.4-5.522 28.687 28.687 0 00-1.586-4.508l.036-.014c6.239-2.423 9.675-5.734 9.675-9.324zm-10.713-10.3a1.349 1.349 0 11-1.342 1.349 1.347 1.347 0 011.342-1.345zm-2.839 1.26v.088a2.855 2.855 0 00.924 2.1 55.823 55.823 0 01-3.516 5.576 75.804 75.804 0 00-3.285-4.023 75.896 75.896 0 00-.507-5.181 55.436 55.436 0 016.389 1.437zM66.1 72.394q-1.669-1.677-3.2-3.4-.132-2.3-.135-4.683t.135-4.682q1.526-1.722 3.2-3.4t3.388-3.216a81.02 81.02 0 019.314.001q1.713 1.535 3.388 3.214t3.2 3.406a81.887 81.887 0 010 9.358q-1.527 1.722-3.2 3.407T78.8 75.61a80.958 80.958 0 01-9.312-.001q-1.714-1.535-3.387-3.216zm.965 3.036q-1.823-.164-3.575-.411-.247-1.76-.41-3.594.955 1.027 1.958 2.037t2.027 1.969zm-1.727-29.738a2.827 2.827 0 002.1-.938 55.756 55.756 0 015.444 3.477q-2.01 1.543-4 3.3c-1.76.114-3.483.285-5.154.51a56.256 56.256 0 011.413-6.361c.059.006.13.012.197.012zm8.8 3.471q1.413 1.069 2.818 2.25-1.4-.047-2.817-.049t-2.818.049q1.409-1.18 2.822-2.25zm-7.077 4.024q-1.022.96-2.028 1.969t-1.958 2.037q.163-1.833.41-3.6 1.754-.242 3.58-.406zm-5.63 5.833q-1.746 2-3.284 4.022a52.683 52.683 0 01-4.372-7.213 52.15 52.15 0 018.164-1.993 75.35 75.35 0 00-.508 5.184zm-.118 2.457q-.047 1.4-.048 2.832t.048 2.833q-1.174-1.412-2.239-2.832 1.064-1.419 2.24-2.834zm19.911-8.289q1.823.164 3.576.412.246 1.758.409 3.594-.955-1.027-1.959-2.038t-2.026-1.968zm-7.08 24.066q1.419 0 2.817-.049-1.4 1.18-2.818 2.25-1.411-1.069-2.818-2.25 1.399.047 2.819.048zm5.267-.169a75.04 75.04 0 005.153-.51 52.877 52.877 0 01-1.983 8.207 52.327 52.327 0 01-7.173-4.393q2.012-1.544 4.003-3.305zm1.812-1.653q1.021-.96 2.027-1.969t1.959-2.037q-.163 1.833-.409 3.6-1.75.24-3.577.405zm5.631-5.832q1.749-2 3.29-4.027a52.422 52.422 0 014.377 7.21 52.141 52.141 0 01-8.174 2c.224-1.683.394-3.412.507-5.183zm.12-2.462q.047-1.4.048-2.832t-.049-2.834q1.176 1.414 2.241 2.83-1.064 1.421-2.24 2.835zm-2.411-15.1a72.756 72.756 0 00-5.154-.511q-1.986-1.755-4-3.3a52.331 52.331 0 017.175-4.394 52.876 52.876 0 011.979 8.209zM74.144 33.51c2.865 0 5.736 3.193 7.875 8.759l.051.137a54.231 54.231 0 00-7.927 4.88 57.752 57.752 0 00-6.019-3.876A2.862 2.862 0 0067 40.519c2.055-4.524 4.583-7.009 7.144-7.009zm-8.805 7.975A1.349 1.349 0 1164 42.833a1.347 1.347 0 011.338-1.348zM53.07 54.321c-2.4-5.457-2.62-9.754-.594-11.791 1.821-1.831 5.379-1.861 10.049-.1a2.824 2.824 0 001.193 2.745 58.2 58.2 0 00-1.551 7.091 54.025 54.025 0 00-9.038 2.184zm-.854 17.9c-5.538-2.15-8.714-5.035-8.714-7.915s3.176-5.765 8.714-7.915l.136-.052a54.57 54.57 0 004.854 7.967 54.6 54.6 0 00-4.854 7.967l-.136-.052zm1.559.565a52.7 52.7 0 014.372-7.212q1.534 2.02 3.284 4.022c.113 1.769.282 3.5.507 5.183a52.157 52.157 0 01-8.163-1.992zm15.1 4.3q1.987 1.756 4 3.3A55.334 55.334 0 0167.2 84a2.826 2.826 0 00-2.02-.919 56.037 56.037 0 01-1.453-6.5c1.673.219 3.392.39 5.152.503zm-5.108 8.848a1.342 1.342 0 111.342 1.349 1.347 1.347 0 01-1.338-1.351zm18.248.416c-2.139 5.567-5.01 8.759-7.875 8.759-2.567 0-5.1-2.493-7.155-7.033a2.853 2.853 0 00.9-2.738 57.3 57.3 0 006.251-4 54.2 54.2 0 007.926 4.879c-.009.04-.026.083-.043.131zm16.99-5.382a1.342 1.342 0 11-1.342-1.349 1.347 1.347 0 011.346 1.347zM96.65 78.3a2.859 2.859 0 00.369 5.446 4.676 4.676 0 01-1.208 2.34c-2.026 2.036-6.3 1.819-11.731-.6l-.133-.06a54.772 54.772 0 002.173-9.083 54 54 0 009.044-2.187A27.819 27.819 0 0196.65 78.3zm-5.569-13.992a57.854 57.854 0 003.909-6.15 2.824 2.824 0 002.818-1.032c4.5 2.066 6.978 4.608 6.978 7.182 0 2.88-3.176 5.765-8.714 7.915l-.132.05a54.552 54.552 0 00-4.859-7.965z" data-name="Path 8604" transform="translate(-42 -32)"/></g></g><g id="Group_3968" data-name="Group 3968" transform="translate(2.004 9.787)"><path id="Path_8605" d="M57.214 100.611a1.969 1.969 0 111.969-1.969 1.971 1.971 0 01-1.969 1.969zm0-2.425a.456.456 0 10.456.456.456.456 0 00-.456-.455z" class="cls-2" data-name="Path 8605" transform="translate(-55.245 -96.673)"/></g><g id="Group_3969" data-name="Group 3969" transform="translate(49.503)"><path id="Path_8606" d="M373.7 35.938a1.969 1.969 0 111.969-1.969 1.972 1.972 0 01-1.969 1.969zm0-2.425a.456.456 0 10.456.456.456.456 0 00-.456-.456z" class="cls-7" data-name="Path 8606" transform="translate(-371.733 -32)"/></g><g id="Group_3970" data-name="Group 3970" transform="translate(.792 53.177)"><path id="Path_8607" d="M49.2 388.164a1.969 1.969 0 111.969-1.969 1.972 1.972 0 01-1.969 1.969zm0-2.425a.456.456 0 10.456.456.456.456 0 00-.456-.456z" class="cls-7" data-name="Path 8607" transform="translate(-47.233 -384.225)"/></g><g id="Group_3971" data-name="Group 3971" transform="translate(43.493 61.395)"><path id="Path_8608" d="M334.206 443.639a.754.754 0 01-.535-.222l-1.709-1.709a.756.756 0 010-1.07l1.709-1.709a.756.756 0 011.07 0l1.709 1.709a.756.756 0 010 1.07l-1.709 1.709a.754.754 0 01-.535.222zm-.639-2.466l.639.639.639-.639-.639-.639z" class="cls-5" data-name="Path 8608" transform="translate(-331.74 -438.708)"/></g><g id="Group_3972" data-name="Group 3972" transform="translate(57.389 .716)"><path id="Path_8609" d="M426.881 41.664a.756.756 0 01-.535-.222l-1.709-1.709a.756.756 0 010-1.07l1.709-1.709a.757.757 0 011.07 0l1.709 1.709a.757.757 0 010 1.07l-1.709 1.709a.757.757 0 01-.535.222zm-.639-2.466l.639.639.639-.639-.639-.639z" class="cls-5" data-name="Path 8609" transform="translate(-424.415 -36.733)"/></g></g></g></svg>