<svg xmlns="http://www.w3.org/2000/svg" width="79.187" height="93"><defs><style>.cls-4{fill:#4c97ff}.cls-3{fill:#d2deff}.cls-5{fill:#3bffd3}.cls-7{fill:#fff}.cls-8{fill:#b7c5ff}.cls-10{fill:#ffb53b}</style></defs><g id="credit-card" transform="translate(-32.249)"><path id="Path_8560" fill="#4c97ff" d="M147.99.077c-17.4 1.572-19.083 34.953-26.587 52.056-3.719 8.475-12.488 17.218-10.942 27.206 1.744 11.268 13.237 14.545 22.1 13.467 21.922-2.667 31.4-25.621 32.83-47.372.884-13.41 3.686-47.261-17.4-45.357z" data-name="Path 8560" opacity=".1" transform="translate(-66.447)"/><path id="Path_8562" fill="#94c1ff" d="M127.3 121.605V164.2a3.807 3.807 0 01-3.8 3.815H53.726a3.807 3.807 0 01-3.8-3.815v-42.595a3.807 3.807 0 013.8-3.815H123.5a3.807 3.807 0 013.8 3.815z" data-name="Path 8562" transform="translate(-16.771 -96.401)"/><path id="Path_8563" d="M398.143 266.439h13.679v-6.788h-13.679a.908.908 0 00-.908.908v4.972a.908.908 0 00.908.908z" class="cls-3" data-name="Path 8563" transform="translate(-301.295 -212.487)"/><path id="Path_8564" d="M49.927 170H127.3v12.266H49.927z" class="cls-4" data-name="Path 8564" transform="translate(-16.771 -139.12)"/><path id="Path_8566" d="M113.137 100.866H98.984a1.816 1.816 0 01-1.816-1.816V84.9a1.816 1.816 0 011.816-1.816h14.154a1.816 1.816 0 011.816 1.816v14.15a1.816 1.816 0 01-1.817 1.816z" class="cls-5" data-name="Path 8566" transform="translate(-55.434 -67.989)"/><path id="Path_8568" fill="#ffdda4" d="M347.067 345.858h-14.153a1.816 1.816 0 01-1.816-1.816v-14.153a1.816 1.816 0 011.816-1.816h14.154a1.816 1.816 0 011.816 1.816v14.154a1.816 1.816 0 01-1.817 1.815z" data-name="Path 8568" transform="translate(-247.167 -268.477)"/><path id="Path_8570" d="M81.966 316.514h-3a.908.908 0 110-1.816h3a.908.908 0 110 1.816z" class="cls-7" data-name="Path 8570" transform="translate(-39.794 -257.536)"/><path id="Path_8571" d="M103.895 342.514H78.966a.908.908 0 110-1.816h24.929a.908.908 0 110 1.816z" class="cls-5" data-name="Path 8571" transform="translate(-39.794 -278.813)"/><path id="Path_8572" d="M103.895 361.594H78.966a.908.908 0 110-1.816h24.929a.908.908 0 110 1.816z" class="cls-5" data-name="Path 8572" transform="translate(-39.794 -294.427)"/><circle id="Ellipse_209" cx="1.015" cy="1.015" r="1.015" class="cls-8" data-name="Ellipse 209" transform="translate(83.289 35.999)"/><circle id="Ellipse_210" cx="1.015" cy="1.015" r="1.015" class="cls-8" data-name="Ellipse 210" transform="translate(86.349 35.999)"/><circle id="Ellipse_211" cx="1.015" cy="1.015" r="1.015" class="cls-8" data-name="Ellipse 211" transform="translate(89.409 35.999)"/><path id="Path_8573" d="M129.579 104.275h-.279v-1.867h1.182a.908.908 0 000-1.816H129.3v-.463a.908.908 0 10-1.816 0v.463h-.284a2.749 2.749 0 000 5.5h.281v1.867H126.3a.908.908 0 000 1.816h1.182v.463a.908.908 0 001.816 0v-.463h.281a2.749 2.749 0 100-5.5zm-2.378 0a.933.933 0 010-1.867h.281v1.867zm2.378 3.683h-.279v-1.867h.281a.933.933 0 110 1.867z" class="cls-7" data-name="Path 8573" transform="translate(-77.829 -81.197)"/><path id="Path_8574" fill="#0f0720" d="M119.411 84.386h-46.4v-3.58a2.723 2.723 0 00-2.714-2.725h-14.1a2.723 2.723 0 00-2.714 2.725v3.58h-3.85a4.719 4.719 0 00-4.7 4.723v33.456a.9.9 0 101.809 0V107.96h75.568v23.74a2.9 2.9 0 01-2.9 2.907h-4.075v-9.29a2.723 2.723 0 00-2.714-2.725h-14.1a2.723 2.723 0 00-2.714 2.725v9.29H49.633a2.9 2.9 0 01-2.9-2.907v-4.03a.9.9 0 10-1.809 0v4.03a4.719 4.719 0 004.7 4.723H95.8v3.053a2.723 2.723 0 002.714 2.725h14.1a2.723 2.723 0 002.714-2.725v-3.056h4.075a4.719 4.719 0 004.7-4.723V89.109a4.719 4.719 0 00-4.7-4.723zm-5.885 55.086a.908.908 0 01-.9.908h-14.1a.908.908 0 01-.9-.908v-14.16a.908.908 0 01.9-.908h14.1a.908.908 0 01.9.908zm-58.24-58.666a.908.908 0 01.9-.908h14.1a.908.908 0 01.9.908v14.16a.908.908 0 01-.9.908h-14.1a.908.908 0 01-.9-.908zm-5.652 5.4h3.843v7.669h-6.739v-4.766a2.9 2.9 0 012.895-2.909zm-2.9 19.941V95.688h6.838a2.719 2.719 0 002.614 2h14.1A2.723 2.723 0 0073 94.963V86.2h46.4a2.9 2.9 0 012.9 2.907v4.762H77.573a.908.908 0 000 1.817h44.733v10.456z" data-name="Path 8574" transform="translate(-12.68 -63.902)"/><path id="Path_8575" d="M352.257 351.594a2.363 2.363 0 112.363-2.363 2.365 2.365 0 01-2.363 2.363zm0-2.909a.547.547 0 10.547.547.547.547 0 00-.547-.547z" class="cls-10" data-name="Path 8575" transform="translate(-262.48 -283.862)"/><path id="Path_8576" d="M386.586 385.924a2.363 2.363 0 112.363-2.363 2.365 2.365 0 01-2.363 2.363zm0-2.909a.547.547 0 10.547.547.547.547 0 00-.547-.547z" class="cls-10" data-name="Path 8576" transform="translate(-290.598 -311.957)"/><path id="Path_8577" d="M361.785 364.823a.908.908 0 01-.642-1.55l5.155-5.155a.908.908 0 111.284 1.284l-5.154 5.154a.905.905 0 01-.643.267z" class="cls-10" data-name="Path 8577" transform="translate(-271.482 -292.851)"/><g id="Group_3957" data-name="Group 3957" transform="translate(38.318 46.977)"><path id="Path_8578" d="M81.466 265.893H80.5a2.146 2.146 0 01-2.143-2.143v-2.988a2.146 2.146 0 012.143-2.143h.968a2.146 2.146 0 012.143 2.143v2.988a2.146 2.146 0 01-2.145 2.143zm-.968-5.459a.328.328 0 00-.327.327v2.988a.328.328 0 00.327.327h.968a.328.328 0 00.327-.327v-2.988a.328.328 0 00-.327-.327z" class="cls-3" data-name="Path 8578" transform="translate(-78.355 -258.618)"/><path id="Path_8579" d="M117.022 262.784h-2.547a.908.908 0 01-.908-.908v-2.349a.908.908 0 111.816 0v1.441h1.639a.908.908 0 110 1.816z" class="cls-3" data-name="Path 8579" transform="translate(-107.173 -258.619)"/><path id="Path_8580" d="M130.1 265.782a.908.908 0 01-.908-.908v-5.347a.908.908 0 111.816 0v5.347a.908.908 0 01-.908.908z" class="cls-3" data-name="Path 8580" transform="translate(-119.958 -258.619)"/><path id="Path_8581" d="M149.811 265.893h-.968a2.146 2.146 0 01-2.143-2.143v-2.988a2.146 2.146 0 012.143-2.143h.968a2.146 2.146 0 012.143 2.143v2.988a2.145 2.145 0 01-2.143 2.143zm-.968-5.459a.328.328 0 00-.327.327v2.988a.328.328 0 00.327.327h.968a.328.328 0 00.327-.327v-2.988a.328.328 0 00-.327-.327z" class="cls-3" data-name="Path 8581" transform="translate(-134.289 -258.618)"/><path id="Path_8582" d="M185.365 262.784h-2.547a.908.908 0 01-.908-.908v-2.349a.908.908 0 111.816 0v1.441h1.639a.908.908 0 110 1.816z" class="cls-3" data-name="Path 8582" transform="translate(-163.106 -258.619)"/><path id="Path_8583" d="M198.441 265.782a.908.908 0 01-.908-.908v-5.347a.908.908 0 111.816 0v5.347a.908.908 0 01-.908.908z" class="cls-3" data-name="Path 8583" transform="translate(-175.892 -258.619)"/><path id="Path_8584" d="M244.71 262.784h-2.547a.908.908 0 01-.908-.908v-2.349a.908.908 0 111.816 0v1.441h1.639a.908.908 0 110 1.816z" class="cls-3" data-name="Path 8584" transform="translate(-211.675 -258.619)"/><path id="Path_8585" d="M257.786 265.782a.908.908 0 01-.908-.908v-5.347a.908.908 0 111.816 0v5.347a.908.908 0 01-.908.908z" class="cls-3" data-name="Path 8585" transform="translate(-224.461 -258.619)"/><path id="Path_8586" d="M277.817 262.784h-2.547a.908.908 0 01-.908-.908v-2.349a.908.908 0 111.816 0v1.441h1.639a.908.908 0 110 1.816z" class="cls-3" data-name="Path 8586" transform="translate(-238.771 -258.619)"/><path id="Path_8587" d="M290.892 265.782a.908.908 0 01-.908-.908v-5.347a.908.908 0 011.816 0v5.347a.908.908 0 01-.908.908z" class="cls-3" data-name="Path 8587" transform="translate(-251.555 -258.619)"/><path id="Path_8588" d="M310.924 262.784h-2.547a.908.908 0 01-.908-.908v-2.349a.908.908 0 011.816 0v1.441h1.639a.908.908 0 010 1.816z" class="cls-3" data-name="Path 8588" transform="translate(-265.865 -258.619)"/><path id="Path_8589" d="M324 265.782a.908.908 0 01-.908-.908v-5.347a.908.908 0 011.816 0v5.347a.908.908 0 01-.908.908z" class="cls-3" data-name="Path 8589" transform="translate(-278.651 -258.619)"/><path id="Path_8590" d="M344.032 262.784h-2.547a.908.908 0 01-.908-.908v-2.349a.908.908 0 011.816 0v1.441h1.639a.908.908 0 110 1.816z" class="cls-3" data-name="Path 8590" transform="translate(-292.961 -258.619)"/><path id="Path_8591" d="M357.107 265.782a.908.908 0 01-.908-.908v-5.347a.908.908 0 011.816 0v5.347a.908.908 0 01-.908.908z" class="cls-3" data-name="Path 8591" transform="translate(-305.746 -258.619)"/></g><path id="Path_8592" d="M210.645 46.248h-.59v-.59a.908.908 0 00-1.816 0v.59h-.59a.908.908 0 000 1.816h.59v.59a.908.908 0 001.816 0v-.59h.59a.908.908 0 100-1.816z" class="cls-5" data-name="Path 8592" transform="translate(-145.227 -36.624)"/><path id="Path_8593" d="M437.443 442.248h-.59v-.59a.908.908 0 00-1.816 0v.59h-.59a.908.908 0 000 1.816h.59v.59a.908.908 0 001.816 0v-.59h.59a.908.908 0 000-1.816z" class="cls-5" data-name="Path 8593" transform="translate(-331.006 -360.688)"/><path id="Path_8594" d="M195.273 431.988h-.59v-.59a.908.908 0 10-1.816 0v.59h-.59a.908.908 0 100 1.816h.59v.59a.908.908 0 001.816 0v-.59h.59a.908.908 0 100-1.816z" class="cls-10" data-name="Path 8594" transform="translate(-132.636 -352.291)"/><path id="Path_8595" d="M236.015 453.916a2.652 2.652 0 112.534-1.864 2.643 2.643 0 01-2.534 1.864zm0-3.488a.84.84 0 10.249.038.832.832 0 00-.249-.038z" class="cls-10" data-name="Path 8595" transform="translate(-167.035 -367.121)"/><path id="Path_8596" d="M434.836 73.784a2.652 2.652 0 112.534-1.865 2.644 2.644 0 01-2.534 1.865zm0-3.488a.836.836 0 10.248.038.837.837 0 00-.246-.034zm1.664 1.354z" class="cls-4" data-name="Path 8596" transform="translate(-329.899 -56.045)"/></g></svg>