<svg xmlns="http://www.w3.org/2000/svg" xmlns:xlink="http://www.w3.org/1999/xlink" width="40" height="40" viewBox="0 0 40 40">
  <defs>
    <clipPath id="clip-Unlimited_1_port_">
      <rect width="40" height="40"/>
    </clipPath>
  </defs>
  <g id="Unlimited_1_port_" data-name="Unlimited  1 port " clip-path="url(#clip-Unlimited_1_port_)">
    <g id="Сгруппировать_4310" data-name="Сгруппировать 4310" transform="translate(-15612.365 -11560.946)">
      <path id="Контур_2407" data-name="Контур 2407" d="M392.4,141.9a3.71,3.71,0,0,0,0-7.42h-1.852v7.42Z" transform="translate(15252.452 11435.94)" fill="#ffb53b"/>
      <circle id="Эллипс_159" data-name="Эллипс 159" cx="3.71" cy="3.71" r="3.71" transform="translate(15639.286 11570.416)" fill="#ffc76a"/>
      <path id="Контур_2408" data-name="Контур 2408" d="M108.109,87.984a5.609,5.609,0,0,0,0-11.218h-2.8V87.984Z" transform="translate(15512.955 11488.677)" fill="#25e6bb"/>
      <circle id="Эллипс_160" data-name="Эллипс 160" cx="5.609" cy="5.609" r="5.609" transform="translate(15612.809 11565.443)" fill="#3bffd3"/>
      <path id="Контур_2409" data-name="Контур 2409" d="M167.1,345.3a4.373,4.373,0,1,0,0-8.746h-2.183V345.3H167.1Z" transform="translate(15458.53 11251.257)" fill="#3985ee"/>
      <circle id="Эллипс_161" data-name="Эллипс 161" cx="4.373" cy="4.373" r="4.373" transform="translate(15619.152 11587.812)" fill="#4c97ff"/>
      <path id="Контур_2410" data-name="Контур 2410" d="M252.223,248.229a.443.443,0,0,1-.313-.756l10.142-10.142a.443.443,0,0,1,.627.627L252.537,248.1A.442.442,0,0,1,252.223,248.229Z" transform="translate(15379.145 11342.026)" fill="#ffb53b"/>
      <path id="Контур_2411" data-name="Контур 2411" d="M223.638,103.928a.446.446,0,0,1-.092-.01L212.5,101.576a.443.443,0,0,1,.184-.867l11.045,2.342a.443.443,0,0,1-.091.877Z" transform="translate(15415.334 11466.865)" fill="#3bffd3"/>
      <path id="Контур_2412" data-name="Контур 2412" d="M100.185,231.907a.443.443,0,0,1-.433-.351l-1.842-8.681a.443.443,0,0,1,.867-.184l1.842,8.681a.443.443,0,0,1-.342.525A.454.454,0,0,1,100.185,231.907Z" transform="translate(15519.726 11355.635)" fill="#4c97ff"/>
      <path id="Контур_2413" data-name="Контур 2413" d="M375.3,152.814a1.589,1.589,0,1,0-2.2,0,1.583,1.583,0,0,0-.491,1.145.443.443,0,0,0,.886,0,.7.7,0,0,1,1.4,0,.443.443,0,1,0,.886,0A1.583,1.583,0,0,0,375.3,152.814Zm-1.8-1.145a.7.7,0,1,1,.7.7A.7.7,0,0,1,373.5,151.669Z" transform="translate(15268.916 11421.703)" fill="#0f0720"/>
      <path id="Контур_2414" data-name="Контур 2414" d="M84.256,106.821a2.175,2.175,0,1,0-2.628,0,2.173,2.173,0,0,0-.861,1.732.443.443,0,0,0,.886,0,1.289,1.289,0,0,1,2.577,0,.443.443,0,0,0,.886,0A2.172,2.172,0,0,0,84.256,106.821Zm-2.6-1.732a1.289,1.289,0,1,1,1.289,1.289A1.29,1.29,0,0,1,81.653,105.089Z" transform="translate(15535.476 11464.847)" fill="#0f0720"/>
      <path id="Контур_2415" data-name="Контур 2415" d="M69.58,76.777H67.763a4.078,4.078,0,0,0-3.544,2.065L51.434,76.134a5.947,5.947,0,0,0-5.728-4.369H42.959a5.931,5.931,0,1,0,0,11.861h1.13l2.341,11.023a4.717,4.717,0,0,0,1.713,9.116h2.142a4.719,4.719,0,1,0,0-9.438H48.142a4.736,4.736,0,0,0-.875.083l-2.29-10.783h.729a5.927,5.927,0,0,0,5.9-6.567l12.257,2.6a4.06,4.06,0,0,0,1.267,4.3L54.788,94.285a.435.435,0,0,0,.615.614L65.868,84.448a4.054,4.054,0,0,0,1.9.469h1.817a4.087,4.087,0,0,0,1.928-.484.434.434,0,1,0-.412-.765,3.184,3.184,0,0,1-.687.27,4.058,4.058,0,0,0,0-6.184,3.2,3.2,0,0,1,2.134,4.32.435.435,0,0,0,.8.333,4.07,4.07,0,0,0-3.764-5.63ZM44.286,99.046a3.856,3.856,0,1,1,3.856,3.851A3.858,3.858,0,0,1,44.286,99.046Zm9.854,0a3.858,3.858,0,0,1-3.188,3.792,4.71,4.71,0,0,0,0-7.583A3.858,3.858,0,0,1,54.14,99.046ZM37.89,77.7a5.069,5.069,0,1,1,5.069,5.062A5.071,5.071,0,0,1,37.89,77.7Zm8.182,5.047a5.922,5.922,0,0,0,0-10.095,5.06,5.06,0,0,1,0,10.095Zm24.9-1.9a3.206,3.206,0,1,1-3.206-3.2A3.207,3.207,0,0,1,70.969,80.847Z" transform="translate(15575.346 11493.235)" fill="#0f0720"/>
      <path id="Контур_2416" data-name="Контур 2416" d="M147.652,358.983a1.793,1.793,0,0,0-2.97,1.35.443.443,0,0,0,.886,0,.907.907,0,0,1,1.814,0,.443.443,0,0,0,.886,0A1.788,1.788,0,0,0,147.652,358.983Zm-2.083-1.35a.907.907,0,1,1,.907.907A.908.908,0,0,1,145.568,357.633Z" transform="translate(15477.025 11233.681)" fill="#0f0720"/>
      <path id="Контур_2417" data-name="Контур 2417" d="M155.3,231.109a1.294,1.294,0,1,1,.915-.379A1.286,1.286,0,0,1,155.3,231.109Zm0-1.7a.408.408,0,1,0,.288.12A.405.405,0,0,0,155.3,229.407Z" transform="translate(15468.521 11350.074)" fill="#4c97ff"/>
      <path id="Контур_2418" data-name="Контур 2418" d="M457.081,104.884a1.294,1.294,0,1,1,.915-.378A1.29,1.29,0,0,1,457.081,104.884Zm0-1.7a.408.408,0,1,0,.288.119.407.407,0,0,0-.288-.119Z" transform="translate(15192.99 11465.409)" fill="#4c97ff"/>
      <path id="Контур_2419" data-name="Контур 2419" d="M264.023,378.789h-.288V378.5a.443.443,0,1,0-.886,0v.288h-.288a.443.443,0,1,0,0,.886h.288v.288a.443.443,0,0,0,.886,0v-.288h.288a.443.443,0,1,0,0-.886Z" transform="translate(15369.813 11213.432)" fill="#3bffd3"/>
      <path id="Контур_2420" data-name="Контур 2420" d="M356.569,95.373h-.288v-.288a.443.443,0,1,0-.886,0v.288h-.288a.443.443,0,0,0,0,.886h.288v.288a.443.443,0,1,0,.886,0v-.288h.288a.443.443,0,0,0,0-.886Z" transform="translate(15285.32 11472.386)" fill="#ffb53b"/>
      <path id="Контур_2421" data-name="Контур 2421" d="M81.964,327.585h-.288V327.3a.443.443,0,0,0-.886,0v.288H80.5a.443.443,0,0,0,0,.886h.288v.288a.443.443,0,0,0,.886,0v-.288h.288a.443.443,0,0,0,0-.886Z" transform="translate(15536.12 11260.272)" fill="#ffb53b"/>
      <ellipse id="Эллипс_288" data-name="Эллипс 288" cx="12" cy="11.5" rx="12" ry="11.5" transform="translate(15628 11564)" fill="#ebd557"/>
      <circle id="Эллипс_289" data-name="Эллипс 289" cx="9.5" cy="9.5" r="9.5" transform="translate(15630 11566)" fill="#ffd63b"/>
      <path id="Контур_9313" data-name="Контур 9313" d="M39.077,12.9H37.949a1.692,1.692,0,0,1,0-3.385H41.9a1.128,1.128,0,1,0,0-2.256H39.641V5H37.385V7.3a3.949,3.949,0,0,0,.564,7.852h1.128a1.692,1.692,0,0,1,0,3.385H35.128a1.128,1.128,0,1,0,0,2.256h2.256v2.256h2.256v-2.3a3.949,3.949,0,0,0-.564-7.852Z" transform="translate(15601.18 11560.768)" fill="#ffb53b"/>
      <path id="Контур_9314" data-name="Контур 9314" d="M26.231,36.282h-.564a1.692,1.692,0,1,1,0,3.385H25.1a1.692,1.692,0,1,1,0,3.385h-.564a1.692,1.692,0,1,1,0,3.385h-9.59L11,45.307V35.154c1.692,0,2.82-2.256,2.82-2.256L16.077,25s2.82,0,2.82,3.385L18.333,32.9h7.9a1.692,1.692,0,1,1,0,3.385Z" transform="translate(15611.205 11552.049)" fill="#ffdda4"/>
      <path id="Контур_9315" data-name="Контур 9315" d="M1,41H6.641V53.41H1Z" transform="translate(15615.564 11545.074)" fill="#3bffd3"/>
      <path id="Контур_9316" data-name="Контур 9316" d="M23.692,34.153A2.256,2.256,0,0,0,21.436,31.9h-7.26l.491-3.881a.276.276,0,0,0,0-.068c0-3.125-2.211-3.949-3.385-3.949a.564.564,0,0,0-.564.412L8.461,32.247a4.327,4.327,0,0,1-1.692,1.788v-.446a.564.564,0,0,0-.564-.564H.564A.564.564,0,0,0,0,33.589V46a.564.564,0,0,0,.564.564H6.205A.564.564,0,0,0,6.769,46v-.378L10,46.564a.451.451,0,0,0,.152,0h9.59a2.256,2.256,0,0,0,1.692-3.712A2.256,2.256,0,0,0,22,39.467a2.256,2.256,0,0,0,.564-3.385A2.256,2.256,0,0,0,23.692,34.153ZM5.641,45.435H1.128V34.153H5.641Zm14.1,0H10.233l-3.464-.987V35.214a4.968,4.968,0,0,0,2.758-2.5.756.756,0,0,0,.039-.1l2.127-7.435c.66.147,1.833.694,1.845,2.736l-.564,4.479a.563.563,0,0,0,.564.632h7.9a1.128,1.128,0,0,1,0,2.256h-2.82a.564.564,0,1,0,0,1.128h2.256a1.128,1.128,0,0,1,0,2.256h-2.82a.564.564,0,1,0,0,1.128h2.256a1.128,1.128,0,1,1,0,2.256h-2.82a.564.564,0,1,0,0,1.128h2.256a1.128,1.128,0,1,1,0,2.256Z" transform="translate(15616 11552.485)"/>
      <path id="Контур_9317" data-name="Контур 9317" d="M12.564,13.256h.564v.564a.564.564,0,1,0,1.128,0v-.564h.564a.564.564,0,1,0,0-1.128h-.564v-.564a.564.564,0,1,0-1.128,0v.564h-.564a.564.564,0,1,0,0,1.128Z" transform="translate(15610.77 11558.151)"/>
      <path id="Контур_9318" data-name="Контур 9318" d="M51.82,49.128h-.564v-.564a.564.564,0,0,0-1.128,0v.564h-.564a.564.564,0,1,0,0,1.128h.564v.564a.564.564,0,0,0,1.128,0v-.564h.564a.564.564,0,1,0,0-1.128Z" transform="translate(15594.641 11542.023)"/>
      <path id="Контур_9319" data-name="Контур 9319" d="M32.41,0A12.41,12.41,0,0,0,20,12.41a.564.564,0,0,0,1.128,0A11.282,11.282,0,1,1,34.559,23.488a.567.567,0,0,0,.107,1.128h.107A12.41,12.41,0,0,0,32.41,0Z" transform="translate(15607.282 11562.947)"/>
      <path id="Контур_9320" data-name="Контур 9320" d="M43.154,16.41A4.513,4.513,0,0,0,38.641,11.9H37.513a1.128,1.128,0,0,1,0-2.256h3.949a1.692,1.692,0,0,0,0-3.385H39.769V4.564A.564.564,0,0,0,39.205,4H36.949a.564.564,0,0,0-.564.564V6.4a4.513,4.513,0,0,0,1.128,8.879h1.128a1.128,1.128,0,1,1,0,2.256H34.692a1.692,1.692,0,0,0,0,3.385h1.692v1.692a.564.564,0,0,0,.564.564h2.256a.564.564,0,0,0,.564-.564V20.776A4.513,4.513,0,0,0,43.154,16.41Zm-4.028,3.345a.564.564,0,0,0-.485.564v1.732H37.513V20.359a.564.564,0,0,0-.564-.564H34.692a.564.564,0,0,1,0-1.128h3.949a2.256,2.256,0,1,0,0-4.513H37.513a3.385,3.385,0,0,1-.485-6.73.564.564,0,0,0,.485-.564V5.128h1.128V6.82a.564.564,0,0,0,.564.564h2.256a.564.564,0,1,1,0,1.128H37.513a2.256,2.256,0,0,0,0,4.513h1.128a3.385,3.385,0,0,1,.485,6.73Z" transform="translate(15601.615 11561.203)"/>
    </g>
  </g>
</svg>
