<svg xmlns="http://www.w3.org/2000/svg" width="62" height="65"><defs><style>.cls-3{fill:#4c97ff}.cls-4{fill:#3bffd3}.cls-5{fill:#d2e0f2}.cls-6{fill:#ffb53b}.cls-7{fill:#0f0720}</style></defs><g id="illustration" transform="translate(-4.476 -23)"><path id="Path_8934" fill="#fff" d="M129.343 102.3v39.565a2.088 2.088 0 01-2.087 2.088h-51.48a2.088 2.088 0 01-2.087-2.088V102.3a2.088 2.088 0 012.087-2.088h51.48a2.088 2.088 0 012.087 2.088z" data-name="Path 8934" transform="translate(-63.568 -66.399)"/><path id="Path_8935" fill="#ffdda4" d="M198.6 236.182h-22.715a.42.42 0 01-.42-.42v-21.791a.42.42 0 01.42-.42H198.6a.42.42 0 01.42.42v21.791a.42.42 0 01-.42.42z" data-name="Path 8935" transform="translate(-151.271 -164.028)"/><path id="Path_8937" d="M129.343 106.957v-4.644a2.094 2.094 0 00-2.087-2.1h-51.48a2.094 2.094 0 00-2.087 2.1v4.644z" class="cls-3" data-name="Path 8937" transform="translate(-63.568 -66.447)"/><path id="Path_8938" d="M211.2 44.518a.7.7 0 01-.5-.205l-1.539-1.539a.7.7 0 010-.99l1.539-1.539a.7.7 0 01.99 0l1.539 1.539a.7.7 0 010 .99l-1.539 1.539a.7.7 0 01-.49.205zm-.549-2.24l.549.549.549-.549-.549-.549z" class="cls-3" data-name="Path 8938" transform="translate(-180.043 -14.653)"/><path id="Path_8939" d="M362.678 461.457a.7.7 0 01-.7-.7.843.843 0 00-.842-.842.7.7 0 110-1.4.843.843 0 00.842-.842.7.7 0 111.4 0 .843.843 0 00.842.842.7.7 0 010 1.4.843.843 0 00-.842.842.7.7 0 01-.7.7z" class="cls-4" data-name="Path 8939" transform="translate(-310.436 -373.457)"/><path id="Path_8941" d="M376.932 209.794h-10.641a.394.394 0 01-.42-.361v-22.649a.394.394 0 01.42-.361h10.641a.394.394 0 01.42.361v22.648a.394.394 0 01-.42.362z" class="cls-5" data-name="Path 8941" transform="translate(-315.184 -136.901)"/><path id="Path_8943" d="M365.871 267.478h11.481v3.149h-11.481z" class="cls-3" data-name="Path 8943" transform="translate(-315.184 -210.384)"/><g id="Group_3982" data-name="Group 3982" transform="translate(52.053 61.926)"><path id="Path_8944" d="M378.887 303.353h-2.847a.42.42 0 01-.42-.42v-.35a.42.42 0 01.42-.42h2.847a.42.42 0 01.42.42v.35a.42.42 0 01-.42.42z" class="cls-3" data-name="Path 8944" transform="translate(-375.62 -302.163)"/><path id="Path_8945" d="M415.046 303.353H412.2a.42.42 0 01-.42-.42v-.35a.42.42 0 01.42-.42h2.847a.42.42 0 01.42.42v.35a.42.42 0 01-.421.42z" class="cls-3" data-name="Path 8945" transform="translate(-406.715 -302.163)"/><path id="Path_8946" d="M378.887 317.6h-2.847a.42.42 0 01-.42-.42v-.35a.42.42 0 01.42-.42h2.847a.42.42 0 01.42.42v.35a.42.42 0 01-.42.42z" class="cls-3" data-name="Path 8946" transform="translate(-375.62 -314.415)"/><path id="Path_8947" d="M415.046 317.6H412.2a.42.42 0 01-.42-.42v-.35a.42.42 0 01.42-.42h2.847a.42.42 0 01.42.42v.35a.42.42 0 01-.421.42z" class="cls-3" data-name="Path 8947" transform="translate(-406.715 -314.415)"/><path id="Path_8948" d="M378.887 331.847h-2.847a.42.42 0 01-.42-.42v-.35a.42.42 0 01.42-.42h2.847a.42.42 0 01.42.42v.35a.42.42 0 01-.42.42z" class="cls-3" data-name="Path 8948" transform="translate(-375.62 -326.667)"/><path id="Path_8949" d="M415.046 331.847H412.2a.42.42 0 01-.42-.42v-.35a.42.42 0 01.42-.42h2.847a.42.42 0 01.42.42v.35a.42.42 0 01-.421.42z" class="cls-3" data-name="Path 8949" transform="translate(-406.715 -326.667)"/></g><path id="Path_8951" d="M118.2 197.826v-10.983a.42.42 0 00-.42-.42h-5.6a.42.42 0 00-.42.42v10.983a.42.42 0 00.42.42h5.6a.42.42 0 00.42-.42z" class="cls-5" data-name="Path 8951" transform="translate(-96.38 -136.648)"/><path id="Path_8953" d="M83.972 421.486H76.5a1.4 1.4 0 01-1.4-1.4v-3.08h10.272v3.08a1.4 1.4 0 01-1.4 1.4z" class="cls-4" data-name="Path 8953" transform="translate(-64.785 -339.088)"/><path id="Path_8955" d="M44.9 253.173h7.522l5.625-5.25a2.8 2.8 0 00.533-3.415l-9.028-16.138a1.017 1.017 0 00-1.775 0l-9.031 16.138a2.8 2.8 0 00.533 3.415z" class="cls-5" data-name="Path 8955" transform="translate(-33.211 -176.349)"/><circle id="Ellipse_238" cx="2.796" cy="2.796" r="2.796" class="cls-4" data-name="Ellipse 238" transform="translate(12.657 65.767)"/><path id="Path_8956" d="M73.819 403.05H62.4a1.4 1.4 0 01-1.4-1.4v-.807a1.4 1.4 0 011.4-1.4h11.419a1.4 1.4 0 011.4 1.4v.807a1.4 1.4 0 01-1.4 1.4z" class="cls-6" data-name="Path 8956" transform="translate(-52.657 -323.985)"/><path id="Path_8957" d="M108.163 119.941v-.02a.7.7 0 00-1.4 0v.02a.7.7 0 101.4 0z" class="cls-7" data-name="Path 8957" transform="translate(-92.01 -82.8)"/><path id="Path_8958" d="M127.484 119.941v-.02a.7.7 0 00-1.4 0v.02a.7.7 0 101.4 0z" class="cls-7" data-name="Path 8958" transform="translate(-108.7 -82.8)"/><path id="Path_8959" d="M146.805 119.941v-.02a.7.7 0 10-1.4 0v.02a.7.7 0 101.4 0z" class="cls-7" data-name="Path 8959" transform="translate(-125.331 -82.8)"/><path id="Path_8960" d="M92.591 95.212H41.078a2.8 2.8 0 00-2.785 2.8v.788a.7.7 0 101.393 0v-.788a1.4 1.4 0 011.392-1.4h51.513a1.4 1.4 0 011.392 1.4v3.944H38.99a.7.7 0 00-.7.7v19.409l-4.469 8.035a3.507 3.507 0 00.662 4.268l3.175 2.98a2.1 2.1 0 00-1.132 1.865v.807a2.1 2.1 0 001.964 2.094v1.239a2.1 2.1 0 002.089 2.1H48a2.1 2.1 0 002.089-2.1v-1.239a2.1 2.1 0 001.964-2.094v-.807a2.1 2.1 0 00-1.132-1.865l3.175-2.98a3.507 3.507 0 00.662-4.268l-8.98-16.138a1.7 1.7 0 00-2.981 0l-3.115 5.6v-16.205h54.3v34.454a1.4 1.4 0 01-1.392 1.4H55.383a.7.7 0 000 1.4h37.208a2.8 2.8 0 002.785-2.8v-39.8a2.8 2.8 0 00-2.785-2.8zM48 144.057h-7.421a.7.7 0 01-.7-.7v-1.233H48.7v1.233a.7.7 0 01-.7.7zm2.66-4.033a.7.7 0 01-.7.7H38.615a.7.7 0 01-.7-.7v-.807a.7.7 0 01.7-.7h11.353a.7.7 0 01.7.7v.807zm-6.373-11.271a2.1 2.1 0 11-2.084 2.1 2.092 2.092 0 012.088-2.1zm-.7-13.347v12.017a3.476 3.476 0 101.393 0v-12.017l8.559 15.381a2.1 2.1 0 01-.4 2.561l-3.976 3.732c-.012.011-.021.025-.032.037h-9.7c-.011-.012-.02-.026-.032-.037l-3.976-3.732a2.1 2.1 0 01-.4-2.561z" class="cls-7" data-name="Path 8960" transform="translate(-28.9 -62.359)"/><path id="Path_8961" d="M316.347 434.336l-1.539-1.539a.7.7 0 00-.99 0l-1.539 1.539a.7.7 0 000 .99l1.539 1.539a.7.7 0 00.99 0l1.539-1.539a.7.7 0 000-.99zm-2.035 1.044l-.549-.549.549-.549.549.549z" class="cls-6" data-name="Path 8961" transform="translate(-268.805 -352.491)"/><path id="Path_8962" d="M255.264 25.943a.843.843 0 01.842.842.7.7 0 101.4 0 .843.843 0 01.842-.842.7.7 0 100-1.4.843.843 0 01-.842-.842.7.7 0 00-1.4 0 .843.843 0 01-.842.842.7.7 0 100 1.4z" class="cls-6" data-name="Path 8962" transform="translate(-219.301)"/><path id="Path_8963" d="M214.547 248.472v-12.553a1.4 1.4 0 00-1.4-1.4h-15.589a1.4 1.4 0 00-1.4 1.4v12.553a1.4 1.4 0 001.4 1.4h15.588a1.4 1.4 0 001.401-1.4zm-4.83 0v-7.549h3.43v7.549zm3.429-12.553v3.6h-15.588v-3.6zm-15.588 5h10.758v7.549h-10.758z" class="cls-6" data-name="Path 8963" transform="translate(-169.068 -182.051)"/><path id="Path_8964" d="M112.328 171.043h2.709a.565.565 0 000-1.129h-2.709a.565.565 0 100 1.129z" class="cls-5" data-name="Path 8964" transform="translate(-96.376 -126.423)"/><path id="Path_8965" d="M158.319 171.043h2.709a.565.565 0 000-1.129h-2.709a.565.565 0 000 1.129z" class="cls-5" data-name="Path 8965" transform="translate(-135.965 -126.423)"/><path id="Path_8966" d="M204.31 171.043h2.709a.565.565 0 000-1.129h-2.709a.565.565 0 000 1.129z" class="cls-5" data-name="Path 8966" transform="translate(-175.554 -126.423)"/><path id="Path_8967" d="M250.3 171.043h2.709a.565.565 0 100-1.129H250.3a.565.565 0 000 1.129z" class="cls-5" data-name="Path 8967" transform="translate(-215.143 -126.423)"/><path id="Path_8968" d="M296.292 171.043H299a.565.565 0 100-1.129h-2.709a.565.565 0 000 1.129z" class="cls-5" data-name="Path 8968" transform="translate(-254.732 -126.423)"/></g></svg>